<svg width="164" height="66" viewBox="0 0 164 66" fill="none" xmlns="http://www.w3.org/2000/svg">
<path d="M7.31659 64.9358C6.88067 65.1537 5.94657 65.4028 4.79449 65.4028C2.1167 65.4028 0.0927734 63.7214 0.0927734 60.5766C0.0927734 57.5874 2.11669 55.5635 5.07471 55.5635C6.25793 55.5635 7.00521 55.8126 7.34772 55.9994L7.03635 56.9958C6.56929 56.7779 5.91542 56.591 5.13699 56.591C2.89512 56.591 1.43167 58.0233 1.43167 60.5143C1.43167 62.8496 2.77057 64.3442 5.07471 64.3442C5.82201 64.3442 6.60043 64.1885 7.09863 63.9394L7.31659 64.9358Z" fill="#DADADA"/>
<path d="M16.657 65.2467V61.1989L13.6367 55.7188H15.0379L16.3768 58.3343C16.7193 59.0504 17.0307 59.6421 17.3109 60.2959H17.342C17.5911 59.6732 17.9336 59.0504 18.3073 58.3343L19.6773 55.7188H21.0474L17.8714 61.1677V65.2156H16.657V65.2467Z" fill="#DADADA"/>
<path d="M27.7422 55.8752C28.2715 55.7506 29.1434 55.6572 29.9841 55.6572C31.1984 55.6572 32.008 55.8752 32.5684 56.3422C33.0666 56.7159 33.378 57.2764 33.378 58.0236C33.378 58.9578 32.7553 59.7673 31.7589 60.1099V60.141C32.6619 60.3589 33.7205 61.1062 33.7205 62.5074C33.7205 63.317 33.4092 63.9708 32.911 64.4068C32.2571 64.9984 31.1984 65.3097 29.6416 65.3097C28.8009 65.3097 28.147 65.2475 27.7422 65.1852V55.8752ZM28.9565 59.7673H30.0775C31.3541 59.7673 32.1325 59.0823 32.1325 58.1482C32.1325 57.0584 31.2918 56.5913 30.0463 56.5913C29.4859 56.5913 29.1434 56.6225 28.9565 56.6848V59.7673ZM28.9565 64.3134C29.2056 64.3445 29.5481 64.3756 29.9841 64.3756C31.2607 64.3756 32.4128 63.9086 32.4128 62.5385C32.4128 61.2619 31.2918 60.7014 29.9529 60.7014H28.9565V64.3134Z" fill="#DADADA"/>
<path d="M45.9577 60.7941H42.2836V64.2192H46.3937V65.2467H41.0381V55.7188H46.2069V56.7463H42.2836V59.7666H45.9577V60.7941Z" fill="#DADADA"/>
<path d="M53.6182 55.844C54.2409 55.7195 55.1439 55.6572 55.9846 55.6572C57.2924 55.6572 58.1642 55.9063 58.7246 56.4357C59.1917 56.8716 59.4719 57.4943 59.4719 58.2416C59.4719 59.4871 58.6935 60.3278 57.6971 60.6703V60.7014C58.4133 60.9505 58.8492 61.6356 59.0671 62.632C59.3785 63.9708 59.5965 64.8738 59.8144 65.2475H58.5378C58.3821 64.9672 58.1642 64.1577 57.9151 62.9745C57.6349 61.6667 57.1055 61.1685 55.9846 61.1374H54.8325V65.2475H53.6182V55.844ZM54.8636 60.2032H56.1091C57.4169 60.2032 58.2576 59.4871 58.2576 58.3973C58.2576 57.183 57.3546 56.6225 56.078 56.6225C55.4864 56.6225 55.0816 56.6536 54.8636 56.7159V60.2032Z" fill="#DADADA"/>
<path d="M75.5068 55.8752C76.2541 55.7506 77.1571 55.6572 78.1224 55.6572C79.8972 55.6572 81.1427 56.0932 81.9834 56.8405C82.8552 57.6189 83.3534 58.7087 83.3534 60.2655C83.3534 61.8224 82.8552 63.099 81.9834 63.9708C81.0804 64.8738 79.6169 65.3409 77.7487 65.3409C76.8457 65.3409 76.1296 65.3097 75.5068 65.2163V55.8752ZM76.7212 64.2822C77.0326 64.3133 77.4685 64.3445 77.9667 64.3445C80.6133 64.3445 82.0145 62.881 82.0145 60.2967C82.0145 58.0548 80.769 56.6225 78.1535 56.6225C77.5307 56.6225 77.0326 56.6848 76.7212 56.747V64.2822Z" fill="#DADADA"/>
<path d="M95.4655 60.7941H91.7914V64.2192H95.9015V65.2467H90.5459V55.7188H95.7147V56.7463H91.7914V59.7666H95.4655V60.7941Z" fill="#DADADA"/>
<path d="M103.126 55.7188H108.264V56.7463H104.371V59.9223H107.952V60.9498H104.371V65.2467H103.126V55.7188Z" fill="#DADADA"/>
<path d="M120.594 60.7941H116.919V64.2192H121.029V65.2467H115.674V55.7188H120.843V56.7463H116.919V59.7666H120.594V60.7941Z" fill="#DADADA"/>
<path d="M128.253 65.2467V55.7188H129.623L132.643 60.545C133.328 61.6659 133.889 62.6623 134.325 63.6276H134.356C134.231 62.351 134.2 61.1989 134.2 59.7043V55.7188H135.352V65.2467H134.107L131.086 60.4205C130.433 59.3618 129.779 58.272 129.312 57.2445H129.28C129.343 58.4588 129.374 59.5798 129.374 61.1677V65.2467H128.253Z" fill="#DADADA"/>
<path d="M143.044 63.7526C143.604 64.0951 144.382 64.3754 145.223 64.3754C146.469 64.3754 147.216 63.7215 147.216 62.7563C147.216 61.8844 146.718 61.3551 145.41 60.888C143.853 60.3276 142.888 59.518 142.888 58.1791C142.888 56.6845 144.102 55.5947 145.97 55.5947C146.936 55.5947 147.652 55.8127 148.057 56.0618L147.714 57.0582C147.403 56.8713 146.78 56.5911 145.908 56.5911C144.6 56.5911 144.102 57.3695 144.102 58.0234C144.102 58.9264 144.694 59.3623 146.002 59.8605C147.621 60.4832 148.43 61.2617 148.43 62.6628C148.43 64.1263 147.372 65.4029 145.099 65.4029C144.196 65.4029 143.168 65.1227 142.67 64.7802L143.044 63.7526Z" fill="#DADADA"/>
<path d="M160.729 60.7941H157.055V64.2192H161.165V65.2467H155.81V55.7188H160.978V56.7463H157.055V59.7666H160.729V60.7941Z" fill="#DADADA"/>
<path d="M57.1367 12.999H62.0564V43.1398H80.7075V47.4056H57.1367V12.999Z" fill="#DADADA"/>
<path d="M88.2116 15.4585C87.62 14.8669 87.3086 14.1507 87.3086 13.2789C87.3086 12.4382 87.62 11.6909 88.2116 11.0993C88.8032 10.5077 89.5816 10.1963 90.4846 10.1963C91.3875 10.1963 92.166 10.4765 92.7576 11.0681C93.3492 11.6286 93.6606 12.3448 93.6606 13.2166C93.6606 14.0884 93.3492 14.8357 92.7576 15.4585C92.166 16.0501 91.3875 16.3614 90.4846 16.3614C89.5816 16.3303 88.8032 16.0501 88.2116 15.4585ZM88.1182 21.3745H92.851V47.4363H88.1182V21.3745Z" fill="#DADADA"/>
<path d="M126.137 23.9905C128.098 25.921 129.064 28.7233 129.064 32.4287V47.4367H124.331V32.9891C124.331 30.467 123.739 28.5676 122.525 27.291C121.31 26.0144 119.567 25.3605 117.325 25.3605C114.772 25.3605 112.748 26.1078 111.284 27.6024C109.821 29.097 109.074 31.2454 109.074 34.0166V47.4367H104.31V21.375H108.824V25.2982C109.79 23.9593 111.066 22.9318 112.685 22.1845C114.305 21.4684 116.142 21.0947 118.228 21.0947C121.528 21.1259 124.175 22.06 126.137 23.9905Z" fill="#DADADA"/>
<path d="M163.875 35.9774H142.733C143.013 38.2816 144.041 40.1187 145.753 41.5198C147.466 42.921 149.614 43.606 152.167 43.606C155.281 43.606 157.803 42.5473 159.703 40.4612L162.318 43.5126C161.135 44.8826 159.672 45.9413 157.928 46.6574C156.184 47.3736 154.223 47.7472 152.043 47.7472C149.303 47.7472 146.843 47.1868 144.726 46.0347C142.608 44.9138 140.958 43.3258 139.775 41.3019C138.623 39.278 138.031 36.9738 138.031 34.4206C138.031 31.8985 138.592 29.6255 139.713 27.5704C140.834 25.5465 142.39 23.9585 144.383 22.8375C146.376 21.7166 148.618 21.125 151.109 21.125C153.6 21.125 155.811 21.6855 157.772 22.8375C159.734 23.9585 161.26 25.5465 162.349 27.5704C163.439 29.5943 164 31.9296 164 34.5451C163.968 34.8876 163.937 35.3858 163.875 35.9774ZM145.411 27.1656C143.885 28.5356 142.982 30.3416 142.733 32.5835H159.454C159.204 30.3727 158.302 28.5979 156.776 27.1967C155.25 25.7956 153.351 25.1106 151.109 25.1106C148.836 25.1106 146.936 25.7956 145.411 27.1656Z" fill="#DADADA"/>
<path d="M22.8633 13.6126L29.5673 23.4198L31.1188 7.49414L22.8633 13.6126Z" fill="#DADADA"/>
<path d="M31.8507 0L22.8633 13.6129L31.1188 7.49441L31.8507 0Z" fill="#DADADA"/>
<path d="M31.119 7.49441L29.5674 23.42C29.5967 23.3908 29.6259 23.3615 29.6845 23.3322L36.5348 12.9103L31.8508 0L31.119 7.49441Z" fill="#DADADA"/>
<path d="M31.8516 0L40.839 6.3234L44.996 0H31.8516Z" fill="#DADADA"/>
<path d="M36.5356 12.9103L40.839 6.3234L31.8516 0L36.5356 12.9103Z" fill="#DADADA"/>
<path d="M3.57154 43.1223C5.2695 41.7171 7.02601 40.3119 8.78252 38.9067C10.539 37.5015 12.2955 36.1255 14.052 34.7789C15.7793 33.4322 17.565 32.1149 19.2337 30.856C20.9024 29.5679 22.5711 28.3969 24.1226 27.2552C24.8252 26.7575 25.4986 26.2599 26.1426 25.7915C25.0594 24.8254 23.947 23.83 22.8638 22.8347C21.2244 21.3124 19.5557 19.7901 17.9456 18.297C16.3355 16.804 14.7839 15.2817 13.2616 13.8179C11.7393 12.3835 10.3048 10.9197 8.92889 9.57306C7.55296 8.22641 6.29414 6.90904 5.12313 5.67949C3.01533 3.51313 1.2881 1.61026 0 0.175781L15.6329 23.186L16.1013 23.8886L3.22026 43.4443C3.33736 43.3272 3.45444 43.2394 3.57154 43.1223Z" fill="#DADADA"/>
<path d="M5.82537 45.9329C5.03495 46.5477 4.24453 47.1625 3.4541 47.748H13.6418L8.63579 43.7373C7.66971 44.4985 6.7329 45.2011 5.82537 45.9329Z" fill="#DADADA"/>
<path d="M16.278 37.5595C15.2533 38.4085 14.2287 39.2575 13.1748 40.0772L13.6139 47.7472L22.8063 33.7538V33.7831L25.5289 29.626C24.1529 30.8263 22.7185 32.1144 21.1962 33.3732C19.6153 34.7491 17.9759 36.1543 16.278 37.5595Z" fill="#DADADA"/>
<path d="M11.0655 41.7751C10.2458 42.4191 9.42612 43.0925 8.57715 43.7365L13.5832 47.7472L13.144 40.0771C12.4707 40.6626 11.7681 41.2189 11.0655 41.7751Z" fill="#DADADA"/>
<path d="M25.82 29.3921C25.7322 29.48 25.6444 29.5385 25.5566 29.6263L22.834 33.7834L28.9232 42.7708L28.0157 27.46C27.3131 28.0747 26.5812 28.7481 25.82 29.3921Z" fill="#DADADA"/>
<path d="M41.5703 41.1904L41.3946 41.2197L32.3193 47.748H46.0201L41.5703 41.1904Z" fill="#DADADA"/>
<path d="M41.5121 41.1316L37.9991 35.9206C37.7942 35.7742 37.6185 35.5986 37.4136 35.4522C36.9159 35.0424 36.4182 34.6325 35.8913 34.1934L28.9238 42.771L41.395 41.2194L41.5121 41.1316Z" fill="#DADADA"/>
<path d="M32.7582 31.5585C31.2359 30.2411 29.5965 28.8944 28.0156 27.46L28.9232 42.7708L35.8906 34.1932C34.866 33.3442 33.8121 32.466 32.7582 31.5585Z" fill="#DADADA"/>
<path d="M28.9238 42.7713L32.3197 47.7481L41.395 41.2197L28.9238 42.7713Z" fill="#DADADA"/>
<path d="M13.6119 0H1.22852L18.3837 7.02601L13.6119 0Z" fill="#DADADA"/>
<path d="M18.3837 7.02601V8.02135V7.02601L1.22852 0C2.69227 1.08318 4.47806 2.4591 6.52731 4.09851C7.84469 5.15241 9.27916 6.26485 10.7722 7.52367C12.2652 8.75323 13.8461 10.0413 15.4269 11.4173C16.393 12.2662 17.3884 13.1152 18.3837 13.9642V7.02601Z" fill="#DADADA"/>
<path d="M22.8638 13.6133L18.3848 7.05566V13.9646C19.0288 14.5208 19.7021 15.077 20.3462 15.6625C22.0149 17.1263 23.6835 18.6193 25.3522 20.1123C26.6403 21.2833 27.9284 22.4836 29.1872 23.6546C29.3043 23.5668 29.4507 23.479 29.5678 23.3912L22.8638 13.6133Z" fill="#DADADA"/>
<path d="M18.3848 7.02637L22.8638 13.6133L18.3848 7.02637Z" fill="#DADADA"/>
</svg>
