<svg width="198" height="50" viewBox="0 0 198 50" fill="none" xmlns="http://www.w3.org/2000/svg">
<path d="M78.1377 26.1731L63.3535 26.2278L60.4515 33.0724L54.8115 33.1271L67.953 3.50396L73.3739 3.44922L86.8987 32.9629L81.1493 33.0176L78.1377 26.1731ZM76.3308 21.9021L70.6909 8.97959L65.2152 21.9568L76.3308 21.9021Z" fill="#DADADA"/>
<path d="M117.781 4.48984C119.697 5.31118 121.175 6.51581 122.161 8.10374C123.201 9.69167 123.694 11.5534 123.694 13.6889C123.694 15.8244 123.201 17.6861 122.216 19.274C121.23 20.862 119.752 22.1213 117.89 22.9427C115.974 23.8188 113.783 24.2569 111.21 24.2569L104.53 24.3116L104.584 32.8536L99.1086 32.9083L98.9443 3.3399L111.1 3.28516C113.674 3.28516 115.919 3.66849 117.781 4.48984ZM116.357 18.1241C117.616 17.0837 118.219 15.6601 118.219 13.7436C118.219 11.8819 117.562 10.4035 116.357 9.4179C115.097 8.43229 113.291 7.93944 110.881 7.93944L104.475 7.99419L104.53 19.7121L110.936 19.6573C113.345 19.6573 115.152 19.1097 116.357 18.1241Z" fill="#DADADA"/>
<path d="M156.494 4.27109C158.411 5.09243 159.889 6.29706 160.875 7.88499C161.915 9.47292 162.408 11.3346 162.408 13.4701C162.408 15.6056 161.915 17.4674 160.93 19.0553C159.944 20.6432 158.466 21.9026 156.604 22.7239C154.742 23.5453 152.497 24.0381 149.924 24.0381L143.243 24.0928L143.298 32.6348L137.822 32.6896L137.658 3.12122L149.814 3.06641C152.333 3.06641 154.578 3.44974 156.494 4.27109ZM155.071 17.9054C156.33 16.8651 156.932 15.4414 156.932 13.5249C156.932 11.6632 156.275 10.1848 155.071 9.19915C153.811 8.21354 152.004 7.72069 149.595 7.72069L143.189 7.7755L143.243 19.4933L149.65 19.4386C152.004 19.4386 153.811 18.9458 155.071 17.9054Z" fill="#DADADA"/>
<path d="M179.437 31.9229C177.301 31.2658 175.604 30.4444 174.399 29.3493L176.261 25.0784C177.466 26.0092 178.944 26.8305 180.751 27.3781C182.503 27.9804 184.31 28.2542 186.063 28.2542C188.253 28.2542 189.895 27.8709 190.991 27.1591C192.086 26.4472 192.633 25.5164 192.578 24.3665C192.578 23.5452 192.25 22.8334 191.648 22.2858C191.045 21.7382 190.279 21.3002 189.348 21.0264C188.417 20.6978 187.158 20.3693 185.515 19.986C183.27 19.4384 181.408 18.9456 180.039 18.3981C178.616 17.8505 177.466 17.0292 176.425 15.8793C175.44 14.7294 174.892 13.1962 174.892 11.2797C174.892 9.63704 175.33 8.15865 176.206 6.78974C177.083 5.42083 178.397 4.38045 180.204 3.5591C182.011 2.73776 184.201 2.35449 186.774 2.35449C188.581 2.35449 190.334 2.57349 192.086 3.01154C193.838 3.44959 195.371 4.10667 196.63 4.92801L194.933 9.19903C193.619 8.43244 192.305 7.88489 190.881 7.5016C189.457 7.11831 188.088 6.89928 186.774 6.95404C184.584 6.95404 182.996 7.33732 181.956 8.10391C180.915 8.81574 180.368 9.80131 180.368 11.006C180.368 11.8273 180.696 12.5392 181.299 13.0867C181.901 13.6343 182.668 14.0176 183.599 14.3461C184.529 14.6747 185.789 15.0032 187.431 15.3865C189.622 15.8793 191.429 16.4269 192.852 16.9197C194.276 17.4672 195.481 18.2886 196.466 19.4384C197.452 20.5336 197.999 22.0668 197.999 23.9832C197.999 25.6259 197.561 27.1043 196.685 28.4185C195.809 29.7326 194.44 30.8278 192.688 31.5944C190.881 32.4157 188.691 32.799 186.117 32.799C183.818 32.8537 181.572 32.58 179.437 31.9229Z" fill="#DADADA"/>
<path d="M59.521 44.1334H57.4951V46.0498H59.7948V46.5974H56.838L56.7832 41.3408H59.6306V41.8884H57.4403V43.5311H59.4663L59.521 44.1334Z" fill="#DADADA"/>
<path d="M65.1613 46.5428L64.4494 45.3929C64.1757 44.9549 64.0114 44.6811 63.8471 44.3525C63.6829 44.6811 63.5186 44.9549 63.2996 45.3929L62.6973 46.5428H61.9307L63.5186 43.8597L61.9307 41.2862H62.6973L63.4091 42.4908C63.6282 42.8193 63.7376 43.0932 63.9019 43.367C64.0661 43.0384 64.1757 42.8193 64.3947 42.4908L65.1066 41.2314H65.8732L64.2852 43.805L65.9279 46.488L65.1613 46.5428Z" fill="#DADADA"/>
<path d="M68.2275 41.3409C68.5561 41.2862 68.9941 41.2314 69.5417 41.2314C70.1988 41.2314 70.6916 41.3957 71.0201 41.6695C71.2939 41.9432 71.4582 42.3265 71.5129 42.7646C71.5129 43.2574 71.4034 43.6407 71.1297 43.9145C70.7464 44.2978 70.1988 44.5168 69.5417 44.5168C69.3227 44.5168 69.1584 44.5168 68.9941 44.4621V46.5975H68.3371L68.2275 41.3409ZM68.9394 43.8597C69.1037 43.9145 69.2679 43.9145 69.487 43.9145C70.3083 43.9145 70.8011 43.4764 70.8011 42.7646C70.8011 42.0528 70.3083 41.7243 69.5417 41.7243C69.2679 41.7243 68.9942 41.7243 68.8847 41.779L68.9394 43.8597Z" fill="#DADADA"/>
<path d="M76.7154 44.024H74.6894V45.9405H76.9891V46.488H74.0323L73.9775 41.2314H76.8249V41.779H74.6347V43.4217H76.6606L76.7154 44.024Z" fill="#DADADA"/>
<path d="M79.3984 41.2862C79.727 41.2315 80.2198 41.1768 80.7126 41.1768C81.4244 41.1768 81.9172 41.2862 82.2457 41.6148C82.5195 41.8338 82.6838 42.2171 82.6838 42.6004C82.6838 43.3122 82.2457 43.7503 81.6982 43.9693C82.0815 44.1336 82.3553 44.4621 82.4648 45.0097C82.629 45.7215 82.7933 46.2691 82.9029 46.4334H82.191C82.0815 46.2691 81.972 45.831 81.8625 45.1739C81.6982 44.4621 81.4244 44.1883 80.7673 44.1335H80.1103V46.4334H79.4532L79.3984 41.2862ZM80.0555 43.6955H80.7673C81.4792 43.6955 81.972 43.3122 81.972 42.7099C81.972 42.0528 81.4792 41.7243 80.7673 41.7243C80.4388 41.7243 80.2198 41.7243 80.1103 41.7791L80.0555 43.6955Z" fill="#DADADA"/>
<path d="M86.2422 41.7244H84.6543V41.1221H88.542V41.7244H86.9541V46.4335H86.2422V41.7244Z" fill="#DADADA"/>
<path d="M90.5686 45.6122C90.8971 45.8312 91.3352 45.9407 91.7732 45.9407C92.485 45.9407 92.8683 45.5574 92.8683 45.0099C92.8683 44.5171 92.5946 44.2433 91.8828 43.9695C91.0067 43.641 90.459 43.2029 90.459 42.491C90.459 41.6697 91.1162 41.0674 92.1565 41.0674C92.7041 41.0674 93.0874 41.1769 93.3064 41.3412L93.1421 41.8887C92.9778 41.7792 92.6493 41.6149 92.1565 41.6697C91.4447 41.6697 91.1709 42.1077 91.1709 42.491C91.1709 42.9838 91.4994 43.2029 92.2113 43.4767C93.0874 43.8052 93.5802 44.2433 93.5802 45.0099C93.5802 45.8312 92.9778 46.543 91.7732 46.543C91.2804 46.543 90.7328 46.3788 90.4043 46.2145L90.5686 45.6122Z" fill="#DADADA"/>
<path d="M99.9316 41.1221L99.9863 46.3787H99.2745L99.2197 41.1221H99.9316Z" fill="#DADADA"/>
<path d="M102.723 46.3787L102.668 41.1221H103.435L105.132 43.8051C105.515 44.4075 105.844 44.955 106.063 45.5026C106.008 44.7907 105.953 44.1337 105.953 43.3123V41.1221H106.61L106.665 46.3787H105.953L104.256 43.6957C103.873 43.0933 103.544 42.491 103.27 41.9434C103.325 42.6005 103.325 43.2576 103.325 44.1337V46.3787H102.723Z" fill="#DADADA"/>
<path d="M112.579 45.4481C112.908 45.6671 113.346 45.7766 113.784 45.7766C114.496 45.7766 114.879 45.3933 114.879 44.8457C114.879 44.3529 114.605 44.0791 113.893 43.8054C113.017 43.4768 112.47 43.0388 112.47 42.327C112.47 41.5056 113.127 40.9033 114.167 40.9033C114.715 40.9033 115.098 41.0128 115.317 41.1771L115.153 41.7247C114.989 41.6152 114.66 41.4509 114.167 41.5056C113.455 41.5056 113.182 41.9437 113.182 42.327C113.182 42.8198 113.51 43.0388 114.222 43.3125C115.098 43.6411 115.591 44.0792 115.591 44.8457C115.591 45.6671 114.989 46.379 113.784 46.379C113.291 46.379 112.744 46.2146 112.415 46.0504L112.579 45.4481Z" fill="#DADADA"/>
<path d="M122.546 43.9149C122.491 43.203 122.436 42.2721 122.436 41.6151C122.272 42.2174 122.053 42.8745 121.779 43.6411L120.848 46.2146H120.356L119.479 43.6958C119.206 42.9292 119.041 42.2721 118.877 41.6698C118.877 42.3269 118.822 43.203 118.768 44.0243L118.658 46.2693H118.001L118.33 41.0128H119.206L120.136 43.5315C120.356 44.1886 120.52 44.7362 120.684 45.2838C120.848 44.7362 121.013 44.1886 121.232 43.5315L122.162 40.958H123.039L123.422 46.2146H122.765L122.546 43.9149Z" fill="#DADADA"/>
<path d="M126.708 44.5719L126.16 46.2146H125.448L127.2 40.958H128.022L129.829 46.2146H129.117L128.569 44.5719H126.708ZM128.46 44.0243L127.912 42.4911C127.803 42.1626 127.693 41.8341 127.638 41.5056C127.584 41.8341 127.474 42.1626 127.365 42.4364L126.872 43.9696L128.46 44.0243Z" fill="#DADADA"/>
<path d="M132.183 41.0128C132.511 40.958 133.004 40.9033 133.497 40.9033C134.209 40.9033 134.701 41.0128 135.03 41.3413C135.304 41.5604 135.468 41.9437 135.468 42.327C135.468 43.0388 135.03 43.4769 134.482 43.6959C134.866 43.8601 135.139 44.1887 135.249 44.7363C135.413 45.4481 135.578 45.9956 135.687 46.1599H134.975C134.866 45.9956 134.756 45.5576 134.647 44.9005C134.482 44.1887 134.209 43.9149 133.552 43.8601H132.894V46.1599H132.237L132.183 41.0128ZM132.894 43.3674H133.606C134.318 43.3674 134.811 42.984 134.811 42.3817C134.811 41.7246 134.318 41.3961 133.606 41.3961C133.278 41.3961 133.059 41.3961 132.949 41.4509L132.894 43.3674Z" fill="#DADADA"/>
<path d="M139.026 41.45H137.438V40.8477H141.326V41.45H139.738V46.1591H139.026V41.45Z" fill="#DADADA"/>
<path d="M146.638 45.2831C146.966 45.5021 147.404 45.6116 147.843 45.6116C148.554 45.6116 148.938 45.2283 148.938 44.6807C148.938 44.1879 148.664 43.9142 147.952 43.6404C147.076 43.3119 146.528 42.8738 146.528 42.1619C146.528 41.3406 147.185 40.7383 148.226 40.7383C148.773 40.7383 149.157 40.8478 149.376 41.0121L149.211 41.5596C149.047 41.4501 148.719 41.2858 148.226 41.3406C147.514 41.3406 147.24 41.7786 147.24 42.1619C147.24 42.6547 147.569 42.8738 148.281 43.1476C149.157 43.4761 149.65 43.9141 149.65 44.6807C149.65 45.5021 149.047 46.2139 147.843 46.2139C147.35 46.2139 146.802 46.0497 146.474 45.8854L146.638 45.2831Z" fill="#DADADA"/>
<path d="M156.658 43.3667C156.658 45.1736 155.563 46.1592 154.249 46.1592C152.825 46.1592 151.895 45.0641 151.84 43.4762C151.84 41.7787 152.88 40.6836 154.249 40.6836C155.673 40.6836 156.658 41.7787 156.658 43.3667ZM152.552 43.4762C152.552 44.626 153.154 45.6117 154.249 45.6117C155.344 45.6117 155.947 44.626 155.947 43.4214C155.947 42.381 155.399 41.2859 154.249 41.2859C153.099 41.2859 152.552 42.3263 152.552 43.4762Z" fill="#DADADA"/>
<path d="M159.068 40.793H159.78V45.502H162.025V46.0496H159.068V40.793Z" fill="#DADADA"/>
<path d="M164.708 40.7383V43.8594C164.708 45.0093 165.255 45.5569 165.967 45.5021C166.734 45.5021 167.227 44.9546 167.227 43.8047V40.6836H167.938V43.7499C167.938 45.3926 167.117 46.0497 165.967 46.0497C164.872 46.0497 164.051 45.4474 164.051 43.8047V40.6836L164.708 40.7383Z" fill="#DADADA"/>
<path d="M171.662 41.2859H170.074V40.6836H173.962V41.2859H172.374V45.9949H171.662V41.2859Z" fill="#DADADA"/>
<path d="M176.809 40.6836L176.863 45.9402H176.151L176.097 40.6836H176.809Z" fill="#DADADA"/>
<path d="M184.092 43.2026C184.092 45.0096 182.997 45.9952 181.683 45.9952C180.259 45.9952 179.328 44.9 179.273 43.3121C179.273 41.6146 180.314 40.5195 181.683 40.5195C183.161 40.5743 184.092 41.6694 184.092 43.2026ZM179.985 43.3121C179.985 44.462 180.588 45.4476 181.683 45.4476C182.778 45.4476 183.38 44.462 183.38 43.2573C183.38 42.217 182.833 41.1218 181.683 41.1218C180.533 41.1218 179.985 42.1622 179.985 43.3121Z" fill="#DADADA"/>
<path d="M186.556 45.8855L186.501 40.6289H187.268L188.965 43.3119C189.348 43.9142 189.677 44.4618 189.896 45.0094C189.841 44.2976 189.786 43.6405 189.786 42.8192V40.6289H190.443L190.498 45.8855H189.786L188.089 43.2024C187.706 42.6001 187.377 41.9978 187.103 41.4503C187.158 42.1073 187.158 42.7644 187.158 43.6405V45.8855H186.556Z" fill="#DADADA"/>
<path d="M193.181 45.0643C193.509 45.2834 193.947 45.3929 194.386 45.3929C195.097 45.3929 195.481 45.0096 195.481 44.462C195.481 43.9692 195.207 43.6954 194.495 43.4216C193.619 43.0931 193.071 42.655 193.071 41.9432C193.071 41.1218 193.728 40.5195 194.769 40.5195C195.316 40.5195 195.7 40.629 195.919 40.7933L195.754 41.3409C195.59 41.2314 195.262 41.0671 194.769 41.1218C194.057 41.1218 193.783 41.5599 193.783 41.9432C193.783 42.436 194.112 42.655 194.824 42.9288C195.7 43.2574 196.192 43.6954 196.192 44.462C196.192 45.2834 195.59 45.9952 194.386 45.9952C193.893 45.9952 193.345 45.8309 193.017 45.6666L193.181 45.0643Z" fill="#DADADA"/>
<path d="M15.7697 0H0.109375V4.76384H12.5938L15.7697 0Z" fill="#DADADA"/>
<path d="M26.0093 31.0469C25.2974 29.5137 24.3118 28.1448 23.1619 26.9949C23.1072 26.9401 23.1072 26.9401 23.0524 26.8853C21.793 25.6807 20.3694 24.7499 18.7814 24.0928C17.1388 23.3809 15.496 23.0524 13.6891 23.0524C13.1415 23.0524 12.6487 23.1072 12.1559 23.1619C11.9916 23.2167 11.8274 23.2167 11.6631 23.2167L26.7211 0H21.2455L17.9053 5.09236L5.91371 23.381L5.8589 23.4357L3.50442 26.9949H13.7986C15.058 26.9949 16.2079 27.2139 17.303 27.7067C18.3981 28.1447 19.329 28.8018 20.1504 29.6232C20.7527 30.2255 21.2454 30.8826 21.6835 31.5944C21.8478 31.8682 21.9573 32.142 22.1216 32.4705C22.6144 33.5656 22.8334 34.7155 22.8334 35.9749C22.8334 37.2343 22.6144 38.3842 22.1216 39.4793C21.6288 40.5744 21.0264 41.5053 20.2051 42.3267C19.3838 43.148 18.4529 43.7503 17.3577 44.1884C16.2626 44.6264 15.1128 44.9002 13.8534 44.9002C12.594 44.9002 11.4441 44.6812 10.349 44.1884C9.25383 43.7503 8.26818 43.0932 7.50159 42.3267C6.68024 41.5601 6.02317 40.5744 5.58512 39.4793C5.09231 38.3842 4.87333 37.1795 4.87333 35.9201C4.87333 34.6607 5.09231 33.4561 5.58512 32.361C5.69463 32.0872 5.85894 31.8134 5.96845 31.5396H0.876088C0.328525 32.9633 0 34.4417 0 35.9201C0 37.7271 0.383294 39.4793 1.09513 41.0672C1.80696 42.6552 2.79259 44.0788 4.05198 45.2287C5.25662 46.4333 6.735 47.3643 8.32293 48.0213C9.96562 48.7332 11.7178 49.0616 13.5248 49.0616C15.277 49.0616 16.9745 48.7331 18.6171 48.0761C20.2598 47.419 21.6835 46.4882 22.9429 45.2835C24.2023 44.0789 25.1879 42.7099 25.9545 41.122C26.7211 39.534 27.1044 37.8366 27.1044 36.0297C27.1044 34.4417 26.8306 32.9633 26.2283 31.4849C26.1188 31.3754 26.064 31.2111 26.0093 31.0469ZM17.9053 5.09236H18.0148L6.07794 23.1619L17.9053 5.09236Z" fill="#DADADA"/>
<path d="M32.142 0L29.4042 4.27102L27.1592 7.72063H32.2515L34.4418 4.27102H37.3987V7.72063V49.0616H41.6696V7.72063V0H32.142Z" fill="#DADADA"/>
</svg>
