<svg width="208" height="89" viewBox="0 0 208 89" fill="none" xmlns="http://www.w3.org/2000/svg">
<path d="M10.3157 83.0155C10.2071 81.3867 10.0985 79.3778 10.0985 77.9119C9.66412 79.2692 9.22976 80.7894 8.63253 82.4182L6.56938 88.1191H5.42922L3.52893 82.4725C2.986 80.7894 2.49735 79.2692 2.17159 77.9119H2.11728C2.06298 79.3778 2.00871 81.3324 1.90012 83.124L1.57434 88.1734H0.108398L0.922806 76.3916H2.8774L4.88628 82.0925C5.37492 83.5584 5.75495 84.8615 6.08072 86.0559H6.13503C6.46079 84.8615 6.89514 83.5584 7.38378 82.0925L9.50125 76.3916H11.4558L12.2159 88.1734H10.6957L10.3157 83.0155Z" fill="#DADADA"/>
<path d="M34.5307 82.6354H29.97V86.8703H35.0736V88.1734H28.3955V76.3916H34.8022V77.6947H29.97V81.441H34.5307V82.6354Z" fill="#DADADA"/>
<path d="M52.9913 84.4814L51.7425 88.1734H50.168L54.1857 76.3916H56.0317L60.0494 88.1734H58.4206L57.1719 84.4814H52.9913ZM56.8461 83.287L55.6517 79.8664C55.3802 79.1063 55.2173 78.4005 55.0544 77.6947H55.0001C54.8372 78.4005 54.6743 79.1063 54.4029 79.8121L53.2627 83.2326H56.8461V83.287Z" fill="#DADADA"/>
<path d="M75.793 76.5547C76.716 76.3918 77.8018 76.2832 79.0506 76.2832C81.2224 76.2832 82.7969 76.8261 83.8284 77.7491C84.9143 78.7264 85.5116 80.0838 85.5116 81.9841C85.5116 83.8843 84.9143 85.4589 83.8284 86.5447C82.6883 87.6306 80.8966 88.2278 78.6163 88.2278C77.5304 88.2278 76.6074 88.1735 75.8472 88.0649V76.5547H75.793ZM77.3132 86.9791C77.6932 87.0333 78.2362 87.0333 78.8334 87.0333C82.091 87.0333 83.8828 85.1874 83.8828 82.0383C83.8828 79.2693 82.3082 77.4776 79.1049 77.4776C78.2905 77.4776 77.7475 77.532 77.3132 77.6405V86.9791Z" fill="#DADADA"/>
<path d="M111.573 82.1467C111.573 86.2188 109.13 88.3362 106.089 88.3362C102.94 88.3362 100.769 85.893 100.769 82.3096C100.769 78.5634 103.103 76.1201 106.252 76.1201C109.456 76.1744 111.573 78.6719 111.573 82.1467ZM102.397 82.3639C102.397 84.9157 103.755 87.1418 106.198 87.1418C108.587 87.1418 109.999 84.9157 109.999 82.2553C109.999 79.8664 108.75 77.4232 106.252 77.4232C103.755 77.4232 102.397 79.7578 102.397 82.3639Z" fill="#DADADA"/>
<path d="M129.49 88.173L126.504 76.3912H128.133L129.544 82.3635C129.87 83.8294 130.196 85.2954 130.413 86.4355H130.467C130.685 85.2411 131.01 83.8837 131.445 82.3635L133.019 76.3912H134.594L136.005 82.3635C136.331 83.7752 136.657 85.1868 136.82 86.3813H136.874C137.145 85.0782 137.471 83.7752 137.797 82.3092L139.372 76.3369H140.946L137.58 88.1186H136.005L134.539 81.9835C134.159 80.4633 133.942 79.3231 133.779 78.1286H133.725C133.508 79.3231 133.236 80.4633 132.802 81.9835L131.119 88.1186H129.49V88.173Z" fill="#DADADA"/>
<path d="M182.317 87.8473C181.774 88.1188 180.634 88.3903 179.223 88.3903C175.911 88.3903 173.413 86.2728 173.413 82.418C173.413 78.726 175.911 76.2285 179.603 76.2285C181.069 76.2285 181.992 76.5543 182.426 76.7715L182.046 78.0202C181.503 77.7487 180.688 77.5315 179.657 77.5315C176.888 77.5315 175.042 79.3232 175.042 82.418C175.042 85.3498 176.725 87.1416 179.548 87.1416C180.471 87.1416 181.449 86.9244 182.046 86.6529L182.317 87.8473Z" fill="#DADADA"/>
<path d="M208 82.1467C208 86.2188 205.557 88.3362 202.516 88.3362C199.367 88.3362 197.195 85.893 197.195 82.3096C197.195 78.5634 199.53 76.1201 202.679 76.1201C205.882 76.1744 208 78.6719 208 82.1467ZM198.824 82.3639C198.824 84.9157 200.181 87.1418 202.625 87.1418C205.014 87.1418 206.425 84.9157 206.425 82.2553C206.425 79.8664 205.177 77.4232 202.679 77.4232C200.181 77.4232 198.824 79.7578 198.824 82.3639Z" fill="#DADADA"/>
<path d="M22.3147 47.0728L13.9535 58.2031H12.9762L4.83213 47.0186V65.6414H0V40.0146H5.53794L13.5735 51.0363L21.6089 40.0146H27.1469V65.6414H22.3147V47.0728Z" fill="#DADADA"/>
<path d="M52.61 65.5866H33.4443C33.4443 57.0625 33.4443 48.4841 33.4443 39.96H52.61V44.6292H38.2222V50.5473H52.0671V55.0537H38.2222V60.8631H52.61V65.5866Z" fill="#DADADA"/>
<path d="M80.5179 47.0728L72.1566 58.2031H71.1794L63.0353 47.0186V65.6414H58.2031V40.0146H63.7411L71.7766 51.0363L79.8121 40.0146H85.35V65.6414H80.5179V47.0728Z" fill="#DADADA"/>
<path d="M144.964 65.5872H139.209L131.716 57.0088H127.047V65.5872H122.215V39.9062C126.287 39.9062 130.359 39.9605 134.377 39.9605C140.403 40.0148 143.607 44.0326 143.607 48.4304C143.607 51.9594 141.978 55.4886 137.146 56.4659L144.91 65.2071V65.5872H144.964ZM127.101 44.4669V52.6653H134.431C137.526 52.6653 138.829 50.6021 138.829 48.5933C138.829 46.5301 137.471 44.4669 134.431 44.4669H127.101Z" fill="#DADADA"/>
<path d="M148.818 65.5866V39.96H153.596V65.5866H148.818Z" fill="#DADADA"/>
<path d="M178.138 60.7545H164.728L162.556 65.5866H157.344L168.854 39.96H174.121L185.631 65.5866H180.364L178.138 60.7545ZM171.46 45.3893L166.682 56.3024H176.238L171.46 45.3893Z" fill="#DADADA"/>
<path d="M194.807 39.96V61.1345H208V65.5866H189.975V39.96H194.807Z" fill="#DADADA"/>
<path d="M112.117 52.9906C112.062 57.2255 109.782 61.7319 103.755 61.7319C97.7287 61.7319 95.4484 57.2255 95.3398 53.0449C95.2855 50.7102 95.9913 48.2127 97.6201 46.421C96.0456 45.9867 94.5254 45.3894 93.1137 44.6836C91.4306 47.0725 90.6162 50.0044 90.6162 52.9363C90.6162 59.6687 94.7968 66.1297 103.81 66.1297C112.822 66.1297 116.894 59.5059 116.949 52.882C117.003 50.2759 116.297 47.6698 114.994 45.4437C113.528 46.041 111.954 46.5296 110.325 46.8553C111.574 48.647 112.171 50.8731 112.117 52.9906Z" fill="#DADADA"/>
<path d="M128.785 16.1795C128.568 16.1795 128.351 16.1795 128.133 16.1795C119.446 16.3424 112.66 18.9485 107.99 23.9436C106.687 25.3552 105.656 26.8211 104.787 28.3956C104.896 27.5269 105.221 25.0294 105.276 23.3463C105.276 23.0749 105.276 22.8577 105.276 22.6405C105.276 22.6405 105.276 22.6405 105.276 22.5862C105.167 19.22 104.461 16.0167 103.267 13.0305C101.747 9.28424 99.4663 6.24377 97.0773 3.85485C97.0773 3.85485 97.0773 3.85486 97.023 3.80057C96.8601 3.58339 96.5887 3.36621 96.3715 3.14903C96.2629 3.09474 96.2086 2.98615 96.1 2.87757C95.6114 2.44321 95.0684 1.95457 94.5255 1.52022C94.4169 1.41163 94.3626 1.35734 94.254 1.24875C94.254 1.24875 94.2541 1.24873 94.1998 1.19444C93.6568 0.760087 93.2225 0.380057 92.7338 0C92.1909 0.325763 91.5936 0.651506 91.105 1.03156C83.2867 6.40665 78.9432 16.0709 80.8435 25.9524C82.8523 36.2682 91.105 43.8151 100.932 45.4439C101.149 45.4982 101.367 45.4982 101.529 45.5525C104.136 45.9326 106.85 45.8783 109.565 45.3353C109.619 45.3353 109.619 45.3353 109.673 45.3353C122.433 42.7835 130.902 30.7303 129.165 17.9712C129.165 17.8626 129.111 17.6998 129.111 17.5912C129.056 17.2654 129.002 16.7767 128.893 16.451C128.839 16.3967 128.785 16.2881 128.785 16.1795ZM82.3637 25.8981C82.2551 25.6266 82.2008 25.3552 82.2008 25.2466C80.6263 16.0167 84.9698 7.05817 92.4623 2.28031H92.5166C93.1682 2.76896 93.9283 3.3662 94.6341 4.01772C92.8424 7.54682 91.3222 11.9989 91.2679 17.1568C91.2679 21.1203 92.1909 25.0294 93.8197 28.8843C89.802 26.1696 84.8069 26.1696 82.5266 26.3868C82.5266 26.3325 82.5266 26.2782 82.5266 26.2782L82.3637 25.8981ZM100.769 43.2721V43.5436V43.6522V43.7608L100.172 43.6522H100.063C100.009 43.6522 99.9549 43.6522 99.9006 43.5979C98.7061 43.3264 97.5117 43.0007 96.3715 42.5664C86.8701 38.3857 83.8296 31.4361 82.9066 28.1242C85.1327 28.0156 89.6934 28.1785 93.5482 30.9475C94.4169 31.599 95.3942 32.3048 95.9914 33.1735L96.1543 33.3364C96.3172 33.4993 96.4801 33.7164 96.6973 33.9879C97.0773 34.5308 97.4574 35.0738 97.8917 35.6167C98.1632 35.9968 98.4347 36.3768 98.6518 36.8112C98.6518 36.8112 98.6518 36.8112 98.7061 36.8655C98.7604 36.9198 98.7604 36.974 98.8147 37.0826C98.8147 37.0826 98.8147 37.0827 98.8147 37.137C98.9776 37.4084 99.0862 37.5713 99.1948 37.8428C99.792 39.1458 100.715 41.3719 100.769 43.2721ZM101.204 37.897L100.715 37.0283C100.552 36.7569 100.389 36.4854 100.226 36.1597L100.172 36.1054C100.118 35.9968 100.063 35.8882 100.009 35.8339C99.9549 35.7796 99.9549 35.7253 99.9006 35.6167C99.5206 34.9652 99.0862 34.3137 98.7061 33.7164C98.7061 33.6621 98.6518 33.6622 98.6518 33.6079C98.2718 33.1735 97.946 32.7392 97.6203 32.3591C96.7516 31.1646 95.9914 29.753 95.72 29.21C95.6657 29.1557 95.6657 29.1015 95.6657 29.0472C95.6657 29.0472 95.6657 29.0472 95.6657 28.9929C95.6657 28.9386 95.6657 28.9386 95.6657 28.9386C93.7654 25.0837 92.951 21.1203 93.0053 17.1025C93.0053 12.5419 94.4169 8.46982 95.9914 5.21219C98.1632 7.43824 100.226 10.2072 101.638 13.6277C102.724 16.3424 103.375 19.22 103.484 22.2062V22.2605V22.1518C103.538 23.2377 103.701 25.3009 103.375 25.3552H103.321C103.213 29.9159 101.584 36.3225 101.258 37.5713C101.258 37.7342 101.258 37.8427 101.204 37.897ZM109.239 43.5979C109.185 43.5979 109.185 43.5979 109.131 43.5979C107.393 43.9236 105.764 44.1951 104.027 44.0323C103.647 44.0323 103.267 43.978 102.995 43.9237C102.941 40.829 103.321 31.6532 109.402 25.138C113.528 20.6859 119.555 18.297 127.319 17.9712C128.948 29.9702 121.129 41.2633 109.239 43.5979Z" fill="#F9F9F9"/>
<path d="M127.265 18.0801C129.002 29.9704 121.13 41.2636 109.239 43.6525C109.185 43.6525 109.185 43.6525 109.131 43.6525C107.393 43.9783 105.764 44.2497 104.027 44.0868C103.647 44.0868 103.267 44.0326 102.995 43.9783C102.941 40.8835 103.321 31.7079 109.402 25.1926C113.474 20.7405 119.501 18.3515 127.265 18.0801Z" fill="#DADADA"/>
<path d="M103.43 22.3145V22.3687C103.43 22.3687 103.43 22.2602 103.43 22.3145C103.43 23.4003 103.592 25.4092 103.321 25.4635H103.267C103.158 30.0242 101.529 36.4309 101.203 37.6796C101.203 37.7339 101.203 37.8425 101.149 37.8968L100.661 37.0281C100.498 36.7566 100.335 36.4851 100.172 36.1594L100.118 36.1051C100.063 35.9965 100.009 35.8879 99.9547 35.8336C99.9004 35.7793 99.9004 35.725 99.8461 35.6164C99.466 34.9649 99.0317 34.3134 98.6516 33.7162C98.6516 33.6619 98.5974 33.6619 98.5974 33.6076C98.2173 33.1733 97.8915 32.7389 97.5658 32.3588C96.6971 31.1644 95.9369 29.7527 95.6655 29.2098C95.6112 29.1555 95.6112 29.1012 95.6112 29.0469C95.6112 29.0469 95.6112 29.0469 95.6112 28.9926C95.6112 28.9383 95.6112 28.9383 95.6112 28.9383C93.7109 25.0834 92.8965 21.12 92.9508 17.1023C92.9508 12.5416 94.3624 8.46954 95.9369 5.21191C98.1087 7.43796 100.172 10.2069 101.584 13.6275C102.669 16.3964 103.321 19.274 103.43 22.3145Z" fill="#DADADA"/>
<path d="M93.8198 28.8846C89.8021 26.1699 84.807 26.1699 82.5267 26.3871C82.5267 26.3328 82.5267 26.2786 82.5267 26.2786L82.3638 25.9527C82.2552 25.6813 82.2009 25.4098 82.2009 25.3012C80.6264 16.0713 84.9699 7.11282 92.4624 2.33496H92.5167C93.1683 2.82361 93.9284 3.42084 94.6342 4.07237C92.8425 7.60147 91.3223 12.0535 91.268 17.2114C91.268 21.1206 92.191 24.9755 93.8198 28.8846Z" fill="#DADADA"/>
<path d="M100.769 43.272V43.5435V43.6521V43.7607L100.172 43.6521H100.063C100.009 43.6521 99.9545 43.6521 99.9002 43.5978C98.7058 43.3263 97.5113 43.0006 96.3711 42.5662C86.8697 38.3856 83.8292 31.436 82.9062 28.124C85.1323 28.0155 89.693 28.1784 93.5479 30.9474C94.4166 31.5989 95.3938 32.3047 95.9911 33.1734L96.154 33.3363C96.3168 33.4992 96.4797 33.7163 96.6969 33.9878C97.0769 34.5307 97.457 35.0737 97.8914 35.6166C98.1628 35.9967 98.4343 36.3767 98.6515 36.8111C98.6515 36.8111 98.6515 36.8111 98.7058 36.8654C98.7601 36.9197 98.7601 36.9739 98.8144 37.0825C98.8144 37.0825 98.8144 37.0826 98.8144 37.1369C98.9772 37.4083 99.0858 37.5712 99.1944 37.8426C99.7916 39.1457 100.715 41.3717 100.769 43.272Z" fill="#DADADA"/>
</svg>
