<svg width="208" height="65" viewBox="0 0 208 65" fill="none" xmlns="http://www.w3.org/2000/svg">
<path d="M58.7232 30.0039C58.5314 29.8081 58.4355 29.5633 58.4355 29.3186V3.37735C58.4355 3.08368 58.5314 2.83895 58.7232 2.69211C58.9149 2.49633 59.1546 2.39844 59.3943 2.39844H63.8525C64.1401 2.39844 64.3798 2.49633 64.5236 2.69211C64.7153 2.8879 64.8112 3.13262 64.8112 3.37735V16.5438L70.1802 10.5234C70.2281 10.4745 70.324 10.3766 70.4678 10.2298C70.6116 10.0829 70.7554 9.98503 70.8992 9.93609C71.0431 9.88714 71.2348 9.8382 71.4266 9.8382H76.6038C76.8435 9.8382 77.0352 9.93609 77.179 10.0829C77.3228 10.2298 77.4187 10.4745 77.4187 10.6703C77.4187 10.9639 77.3228 11.1597 77.1311 11.3555L70.1802 18.9911L78.0898 28.7802C78.2816 28.976 78.3775 29.1718 78.3775 29.3676C78.3775 29.6123 78.2816 29.857 78.1378 30.0039C77.994 30.1507 77.7543 30.2486 77.5146 30.2486H72.2415C71.9059 30.2486 71.6662 30.1996 71.4745 30.1017C71.3307 30.0039 71.091 29.8081 70.8992 29.6123L64.8112 22.1236V29.2697C64.8112 29.5144 64.7153 29.7591 64.5236 29.9549C64.3318 30.1507 64.0921 30.2486 63.8525 30.2486H59.4422C59.1546 30.2975 58.9629 30.1996 58.7232 30.0039Z" fill="#008F9D"/>
<path d="M81.3977 28.3882C79.672 26.8219 78.7612 24.6683 78.5694 21.8784C78.5215 21.5358 78.5215 20.9484 78.5215 20.1164C78.5215 19.2843 78.5215 18.6969 78.5694 18.3543C78.7132 15.5644 79.672 13.4108 81.4457 11.8445C83.2193 10.2783 85.6641 9.49512 88.7321 9.49512C91.8481 9.49512 94.2929 10.2783 96.0665 11.8445C97.8402 13.4108 98.799 15.5644 98.9428 18.3543C98.9907 18.6969 98.9907 19.2843 98.9907 20.1164C98.9907 20.9484 98.9907 21.5358 98.9428 21.8784C98.799 24.6683 97.8402 26.8709 96.1145 28.3882C94.3887 29.9545 91.9439 30.6886 88.7321 30.6886C85.5683 30.6886 83.1235 29.9545 81.3977 28.3882ZM91.2728 24.8641C91.8001 24.1789 92.1357 23.102 92.1836 21.6826C92.2316 21.4379 92.2316 20.8995 92.2316 20.1164C92.2316 19.3332 92.2316 18.7948 92.1836 18.5501C92.0877 17.1307 91.8001 16.0539 91.2249 15.3686C90.6496 14.6834 89.8347 14.2918 88.7321 14.2918C86.6229 14.2918 85.4724 15.7112 85.3286 18.5501L85.2806 20.1164L85.3286 21.6826C85.3765 23.102 85.6641 24.1789 86.2394 24.8641C86.8146 25.5493 87.6296 25.892 88.7321 25.892C89.8826 25.9409 90.7455 25.5493 91.2728 24.8641Z" fill="#008F9D"/>
<path d="M102.298 30.0525C102.107 29.8567 102.011 29.612 102.011 29.3672V10.8657C102.011 10.572 102.107 10.3273 102.298 10.1805C102.49 9.98469 102.73 9.8868 102.969 9.8868H107.14C107.428 9.8868 107.667 9.98469 107.811 10.1805C108.003 10.3763 108.099 10.621 108.099 10.8657V12.1873C108.674 11.4041 109.489 10.7678 110.448 10.2294C111.454 9.73996 112.557 9.44629 113.755 9.44629C116.584 9.44629 118.549 10.572 119.604 12.8235C120.227 11.8446 121.09 11.0126 122.192 10.3763C123.295 9.73996 124.493 9.44629 125.74 9.44629C127.849 9.44629 129.575 10.1805 130.869 11.6488C132.211 13.1172 132.834 15.2708 132.834 18.1586V29.3183C132.834 29.563 132.739 29.8077 132.547 30.0035C132.355 30.1993 132.115 30.2972 131.876 30.2972H127.513C127.226 30.2972 126.986 30.1993 126.794 30.0035C126.603 29.8077 126.507 29.563 126.507 29.3183V18.4523C126.507 17.1308 126.267 16.2008 125.74 15.6135C125.212 15.0261 124.493 14.7324 123.583 14.7324C122.768 14.7324 122.096 15.0261 121.521 15.6135C120.994 16.2008 120.706 17.1308 120.706 18.4034V29.2693C120.706 29.5141 120.61 29.7588 120.419 29.9546C120.227 30.1504 119.987 30.2482 119.748 30.2482H115.289C115.002 30.2482 114.762 30.1504 114.618 29.9546C114.427 29.7588 114.331 29.5141 114.331 29.2693V18.4523C114.331 17.1797 114.043 16.2498 113.516 15.6624C112.94 15.0751 112.269 14.7814 111.406 14.7814C110.592 14.7814 109.92 15.0751 109.345 15.6624C108.77 16.2498 108.53 17.1797 108.53 18.4523V29.3672C108.53 29.612 108.434 29.8567 108.243 30.0525C108.051 30.2482 107.811 30.3461 107.571 30.3461H102.969C102.73 30.2972 102.49 30.2482 102.298 30.0525Z" fill="#008F9D"/>
<path d="M138.827 30.0038C138.635 29.808 138.539 29.5632 138.539 29.3185V15.0263H135.615C135.327 15.0263 135.088 14.9285 134.944 14.7327C134.752 14.5369 134.656 14.2922 134.656 14.0474V10.866C134.656 10.5723 134.752 10.3275 134.944 10.1807C135.136 9.98493 135.375 9.88704 135.615 9.88704H138.539V8.61445C138.539 6.02032 139.258 4.16038 140.696 2.98568C142.134 1.81098 144.244 1.22363 146.928 1.22363H149.948C150.236 1.22363 150.476 1.32152 150.619 1.51731C150.811 1.71309 150.907 1.95782 150.907 2.20255V5.38402C150.907 5.62875 150.811 5.87348 150.619 6.06927C150.428 6.26505 150.188 6.36294 149.948 6.36294H147.264C146.401 6.36294 145.826 6.55872 145.442 6.95029C145.059 7.34186 144.915 7.97815 144.915 8.76128V9.83809H149.565C149.852 9.83809 150.092 9.93598 150.236 10.1318C150.428 10.3275 150.524 10.5723 150.524 10.817V13.9985C150.524 14.2432 150.428 14.4879 150.236 14.6837C150.044 14.8795 149.804 14.9774 149.565 14.9774H144.915V29.2696C144.915 29.5143 144.819 29.759 144.627 29.9548C144.435 30.1506 144.196 30.2485 143.956 30.2485H139.498C139.258 30.2974 139.019 30.1995 138.827 30.0038Z" fill="#008F9D"/>
<path d="M154.359 28.3882C152.633 26.8219 151.722 24.6683 151.53 21.8784C151.482 21.5358 151.482 20.9484 151.482 20.1164C151.482 19.2843 151.482 18.6969 151.53 18.3543C151.674 15.5644 152.633 13.4108 154.407 11.8445C156.18 10.2783 158.577 9.49512 161.693 9.49512C164.809 9.49512 167.254 10.2783 169.027 11.8445C170.801 13.4108 171.76 15.5644 171.904 18.3543C171.952 18.6969 171.952 19.2843 171.952 20.1164C171.952 20.9484 171.952 21.5358 171.904 21.8784C171.76 24.6683 170.801 26.8709 169.075 28.3882C167.35 29.9545 164.905 30.6886 161.693 30.6886C158.529 30.6886 156.084 29.9545 154.359 28.3882ZM164.234 24.8641C164.761 24.1789 165.097 23.102 165.145 21.6826C165.192 21.4379 165.192 20.8995 165.192 20.1164C165.192 19.3332 165.192 18.7948 165.145 18.5501C165.049 17.1307 164.761 16.0539 164.186 15.3686C163.611 14.6834 162.796 14.2918 161.693 14.2918C159.584 14.2918 158.433 15.7112 158.29 18.5501L158.242 20.1164L158.29 21.6826C158.337 23.102 158.625 24.1789 159.2 24.8641C159.776 25.5493 160.59 25.892 161.693 25.892C162.844 25.9409 163.706 25.5493 164.234 24.8641Z" fill="#008F9D"/>
<path d="M174.492 30.0524C174.3 29.8566 174.204 29.6119 174.204 29.3671V10.8656C174.204 10.572 174.3 10.3272 174.492 10.1804C174.683 9.98461 174.923 9.88672 175.163 9.88672H179.573C179.861 9.88672 180.1 9.98461 180.292 10.1804C180.484 10.3762 180.58 10.6209 180.58 10.8656V12.4319C181.97 10.7188 183.887 9.88672 186.284 9.88672H187.962C188.25 9.88672 188.489 9.98461 188.633 10.1804C188.825 10.3762 188.921 10.6209 188.921 10.8656V14.9281C188.921 15.1729 188.825 15.4176 188.633 15.6134C188.441 15.8092 188.202 15.907 187.962 15.907H184.223C183.168 15.907 182.353 16.2007 181.778 16.7881C181.203 17.3754 180.915 18.2075 180.915 19.2843V29.3671C180.915 29.6608 180.819 29.9055 180.628 30.0524C180.436 30.2482 180.196 30.3461 179.909 30.3461H175.115C174.875 30.2971 174.636 30.2482 174.492 30.0524Z" fill="#008F9D"/>
<path d="M195.537 22.5641V15.0265H192.516C192.229 15.0265 191.989 14.9286 191.797 14.7328C191.606 14.537 191.51 14.2923 191.51 14.0475V10.8661C191.51 10.5724 191.606 10.3277 191.797 10.1808C191.989 9.98503 192.229 9.88714 192.516 9.88714H195.537V3.37735C195.537 3.08368 195.632 2.83895 195.824 2.69211C196.016 2.54527 196.256 2.39844 196.495 2.39844H200.953C201.241 2.39844 201.481 2.49633 201.625 2.69211C201.816 2.8879 201.912 3.13262 201.912 3.37735V9.8382H206.706C206.994 9.8382 207.233 9.93609 207.425 10.1319C207.617 10.3277 207.713 10.5724 207.713 10.8171V13.9986C207.713 14.2923 207.617 14.537 207.425 14.6838C207.233 14.8796 206.994 14.9775 206.706 14.9775H201.912V22.0257C201.912 23.9835 202.631 24.9135 204.117 24.9135H207.089C207.377 24.9135 207.617 25.0114 207.761 25.2072C207.952 25.403 208.048 25.6477 208.048 25.8924V29.3186C208.048 29.5633 207.952 29.8081 207.761 30.0039C207.569 30.1996 207.329 30.2975 207.089 30.2975H203.494C198.173 30.2975 195.537 27.7524 195.537 22.5641Z" fill="#008F9D"/>
<path d="M62.0306 58.5884C61.0239 58.0989 60.3049 57.5605 59.8255 56.9732C59.3461 56.3369 59.1064 55.8474 59.1064 55.4558C59.1064 55.2601 59.2023 55.0643 59.3461 54.9664C59.4899 54.8685 59.6817 54.7706 59.8255 54.7706H61.2157C61.4074 54.7706 61.5992 54.8685 61.7909 55.0643C62.2703 55.6516 62.8456 56.1411 63.4208 56.4837C63.996 56.8263 64.763 56.9732 65.7697 56.9732C66.8243 56.9732 67.7352 56.7774 68.4063 56.3369C69.0774 55.8963 69.413 55.309 69.413 54.5259C69.413 54.0364 69.2691 53.5959 68.9815 53.2533C68.6939 52.9107 68.2145 52.617 67.5434 52.4212C66.8723 52.1765 65.8656 51.9317 64.5234 51.5891C62.7017 51.1976 61.4554 50.6102 60.6884 49.8271C59.9214 49.0439 59.5379 48.065 59.5379 46.8903C59.5379 46.1072 59.7776 45.3241 60.2569 44.5899C60.7363 43.8557 61.4074 43.2683 62.3182 42.8278C63.2291 42.3873 64.2837 42.1426 65.578 42.1426C66.9202 42.1426 68.0228 42.3873 68.9815 42.8278C69.8923 43.2683 70.6114 43.8067 71.0908 44.3941C71.5701 44.9814 71.8098 45.5198 71.8098 45.9114C71.8098 46.1072 71.7619 46.254 71.6181 46.4009C71.4743 46.5477 71.3305 46.5966 71.1387 46.5966H69.8444C69.6047 46.5966 69.365 46.4988 69.2212 46.303C68.8857 45.9114 68.598 45.5688 68.3583 45.373C68.1187 45.1283 67.7831 44.9325 67.3517 44.7857C66.9202 44.6388 66.345 44.5409 65.6739 44.5409C64.6672 44.5409 63.9002 44.7367 63.3729 45.1772C62.8456 45.6177 62.5579 46.1561 62.5579 46.8903C62.5579 47.3308 62.6538 47.7224 62.8935 48.0161C63.1332 48.3097 63.5646 48.6034 64.2357 48.8482C64.9069 49.0929 65.8177 49.3866 67.064 49.6313C69.0295 50.0718 70.4197 50.6591 71.2346 51.4423C72.0495 52.2254 72.4809 53.2533 72.4809 54.4769C72.4809 55.4069 72.2413 56.19 71.714 56.9732C71.1866 57.7073 70.4196 58.2947 69.413 58.7352C68.4063 59.1757 67.2078 59.3715 65.8177 59.3715C64.2357 59.3226 62.9894 59.0778 62.0306 58.5884Z" fill="#076868"/>
<path d="M74.8783 58.7841C74.7345 58.6373 74.6865 58.4904 74.6865 58.2457V37.199C74.6865 37.0032 74.7345 36.8075 74.8783 36.6606C75.0221 36.5138 75.1659 36.4648 75.4056 36.4648H76.9396C77.1313 36.4648 77.3231 36.5138 77.4669 36.6606C77.6107 36.8075 77.6586 36.9543 77.6586 37.199V44.5898C78.2818 43.8067 78.9529 43.2194 79.7679 42.7789C80.5828 42.3383 81.5895 42.1426 82.7879 42.1426C84.7534 42.1426 86.3353 42.7788 87.4378 44.1004C88.5404 45.4219 89.1157 47.135 89.1157 49.2886V58.2457C89.1157 58.4415 89.0677 58.6373 88.9239 58.7841C88.7801 58.931 88.6363 58.9799 88.3966 58.9799H86.8626C86.6709 58.9799 86.4791 58.931 86.3353 58.7841C86.1915 58.6373 86.1435 58.4904 86.1435 58.2457V49.4844C86.1435 47.9671 85.808 46.8414 85.0889 46.0093C84.3699 45.1772 83.3632 44.7856 82.0209 44.7856C80.7266 44.7856 79.672 45.2261 78.905 46.0582C78.138 46.8903 77.7545 48.065 77.7545 49.5334V58.2457C77.7545 58.4415 77.7066 58.6373 77.5628 58.7841C77.419 58.931 77.2751 58.9799 77.0354 58.9799H75.5015C75.1659 58.9799 75.0221 58.931 74.8783 58.7841Z" fill="#076868"/>
<path d="M93.6209 57.3158C92.3745 55.9942 91.7034 54.2811 91.6075 52.0786L91.5596 50.7081L91.6075 49.3376C91.7034 47.184 92.3745 45.4219 93.6209 44.1004C94.8672 42.7789 96.6409 42.1426 98.894 42.1426C101.147 42.1426 102.921 42.7789 104.167 44.1004C105.413 45.4219 106.085 47.1351 106.18 49.3376C106.18 49.5823 106.228 50.0229 106.228 50.7081C106.228 51.3933 106.228 51.8338 106.18 52.0786C106.085 54.2322 105.413 55.9942 104.167 57.3158C102.921 58.6373 101.147 59.2736 98.894 59.2736C96.6409 59.3226 94.8672 58.6373 93.6209 57.3158ZM102.01 55.6027C102.777 54.7706 103.16 53.5469 103.256 51.9807C103.256 51.7849 103.304 51.3444 103.304 50.757C103.304 50.1697 103.304 49.7781 103.256 49.5334C103.208 47.9671 102.777 46.7435 102.01 45.9114C101.243 45.0793 100.236 44.6388 98.9419 44.6388C97.6476 44.6388 96.593 45.0793 95.826 45.9114C95.059 46.7435 94.6755 47.9671 94.6276 49.5334L94.5796 50.757L94.6276 51.9807C94.6755 53.5469 95.059 54.7706 95.826 55.6027C96.593 56.4348 97.6476 56.8753 98.9419 56.8753C100.188 56.8753 101.243 56.4348 102.01 55.6027Z" fill="#076868"/>
<path d="M109.057 64.8045C108.913 64.6576 108.865 64.5108 108.865 64.2661V43.2194C108.865 43.0236 108.913 42.8278 109.057 42.681C109.201 42.5341 109.345 42.4852 109.584 42.4852H111.022C111.214 42.4852 111.406 42.5341 111.55 42.681C111.694 42.8278 111.741 42.9747 111.741 43.2194V44.5899C112.892 42.9747 114.618 42.1426 116.823 42.1426C118.98 42.1426 120.61 42.8278 121.712 44.2472C122.815 45.6177 123.39 47.4287 123.486 49.6313C123.486 49.876 123.534 50.2186 123.534 50.7081C123.534 51.1976 123.534 51.5402 123.486 51.7849C123.39 53.9385 122.815 55.7495 121.712 57.1689C120.61 58.5884 118.98 59.2736 116.823 59.2736C114.666 59.2736 112.988 58.4905 111.789 56.8753V64.2171C111.789 64.4129 111.741 64.6087 111.598 64.7555C111.454 64.9024 111.31 64.9513 111.118 64.9513H109.584C109.393 65.0003 109.201 64.9513 109.057 64.8045ZM119.364 55.3579C120.035 54.428 120.418 53.2043 120.466 51.687C120.466 51.4912 120.514 51.1486 120.514 50.757C120.514 46.7435 119.076 44.7857 116.152 44.7857C114.714 44.7857 113.659 45.2751 112.94 46.2051C112.221 47.184 111.837 48.3098 111.789 49.6313L111.741 50.8549L111.789 52.0786C111.837 53.3022 112.221 54.428 112.988 55.3579C113.755 56.2879 114.809 56.7774 116.2 56.7774C117.638 56.7284 118.692 56.2879 119.364 55.3579Z" fill="#076868"/>
<path d="M3.11593 0.0488281C1.39018 0.0488281 0 1.46826 0 3.2303L0.0479373 54.917C0.0479373 56.6791 1.43812 58.0985 3.16386 58.0985L3.11593 0.0488281Z" fill="#076868"/>
<path d="M3.16406 35.584L22.0993 58.099H3.16406V35.584Z" fill="#008F9D"/>
<path d="M28.4271 0L3.16415 29.3185L3.11621 0.0489458L28.4271 0Z" fill="#008F9D"/>
<path d="M40.2191 0H36.2883H32.3574V12.0896L36.2883 9.20181L40.2191 12.0896V0Z" fill="#008F9D"/>
<path d="M43.767 0H40.2196C40.2196 0.0489458 40.2196 0.0489458 40.2196 0.0978916V12.0896L36.2888 9.15286L32.3579 12.0896V0H29.6734V8.46762L9.15625 32.0595L30.9198 58.0986H43.767V0Z" fill="#076868"/>
</svg>
