<?xml version="1.0" encoding="UTF-8"?><svg id="txt" xmlns="http://www.w3.org/2000/svg" viewBox="0 0 128.38 39.62"><defs><style>.cls-1{fill:#777;}.cls-2{fill:#333;}</style></defs><path class="cls-2" d="M28.45,24.4c0,.16-.07.23-.2.23-.52,0-1.33-.03-2.42-.08-1.14-.05-1.96-.08-2.46-.08-.65,0-1.44.03-2.38.08-.88.05-1.59.08-2.1.08-.1,0-.16-.08-.16-.23s.05-.23.16-.23c.67,0,1.16-.07,1.46-.21.3-.14.45-.4.45-.76,0-.44-.26-1.18-.78-2.22l-2.65-5.26H7.79l-1.52,3.39c-.34.75-.51,1.45-.51,2.1,0,.93.33,1.66.99,2.18.66.52,1.55.78,2.67.78.13,0,.19.08.19.23s-.07.23-.19.23c-.47,0-1.14-.03-2.03-.08-.99-.05-1.85-.08-2.57-.08s-1.55.03-2.53.08c-.88.05-1.6.08-2.14.08-.1,0-.16-.08-.16-.23s.05-.23.16-.23c.73,0,1.34-.15,1.83-.45.49-.3.99-.83,1.48-1.6.49-.76,1.08-1.9,1.75-3.41L13.68.12c.05-.08.17-.12.35-.12.21,0,.32.04.35.12l9.74,19.18c.91,1.84,1.66,3.12,2.26,3.82s1.22,1.05,1.87,1.05c.13,0,.2.08.2.23ZM8.3,14.62h8.5l-4.48-8.89-4.01,8.89Z"/><path class="cls-2" d="M41.16,23.23c.13.37.38.61.76.74.38.13.98.2,1.81.2.08,0,.12.08.12.23s-.04.23-.12.23c-.86,0-1.53-.01-2.03-.04l-2.96-.04-2.88.04c-.52.03-1.22.04-2.1.04-.05,0-.08-.08-.08-.23s.03-.23.08-.23c.83,0,1.44-.07,1.83-.2.39-.13.66-.38.8-.76.14-.38.21-.95.21-1.74V3.43c0-.78-.07-1.35-.21-1.71-.14-.36-.41-.62-.8-.76-.39-.14-1-.21-1.83-.21-.05,0-.08-.08-.08-.23s.03-.23.08-.23l2.1.04c1.19.05,2.16.08,2.88.08.81,0,1.81-.03,3-.08l1.99-.04c.08,0,.12.08.12.23s-.04.23-.12.23c-.81,0-1.4.08-1.79.23s-.65.42-.78.8c-.13.38-.2.95-.2,1.73v17.97c0,.81.07,1.39.2,1.75Z"/><path class="cls-2" d="M77.99,24.4c0,.16-.04.23-.12.23-.91,0-1.64-.01-2.18-.04l-3-.04-3.51.04c-.47.03-1.1.04-1.91.04-.08,0-.12-.08-.12-.23s.04-.23.12-.23c.96,0,1.66-.07,2.1-.2.44-.13.74-.38.9-.74.16-.36.23-.95.23-1.75v-8.96h-12.59v8.96c0,.78.08,1.36.23,1.74.16.38.45.63.9.76.44.13,1.14.2,2.1.2.05,0,.08.08.08.23s-.03.23-.08.23c-.91,0-1.64-.01-2.18-.04l-3.39-.04-2.92.04c-.52.03-1.23.04-2.14.04-.05,0-.08-.08-.08-.23s.03-.23.08-.23c.91,0,1.57-.07,1.99-.2.42-.13.7-.38.86-.76s.23-.95.23-1.74V3.43c0-.78-.08-1.35-.23-1.71s-.44-.62-.84-.76c-.4-.14-1.05-.21-1.93-.21-.08,0-.12-.08-.12-.23s.04-.23.12-.23l2.1.04c1.19.05,2.16.08,2.88.08.99,0,2.13-.03,3.43-.08l2.14-.04c.05,0,.08.08.08.23s-.03.23-.08.23c-.94,0-1.62.08-2.07.23-.44.16-.75.42-.92.8-.17.38-.25.95-.25,1.73v7.91h12.59V3.51c0-.78-.08-1.36-.23-1.73s-.45-.64-.9-.8c-.44-.16-1.14-.23-2.1-.23-.08,0-.12-.08-.12-.23s.04-.23.12-.23l1.91.04c1.3.05,2.47.08,3.51.08.7,0,1.7-.03,3-.08l2.18-.04c.08,0,.12.08.12.23s-.04.23-.12.23c-.88,0-1.54.07-1.97.21-.43.14-.72.4-.86.76-.14.36-.21.93-.21,1.71v18.05c0,.78.07,1.36.21,1.74.14.38.42.63.84.76.42.13,1.08.2,1.99.2.08,0,.12.08.12.23Z"/><path class="cls-2" d="M92.06,23.23c.13.37.38.61.76.74.38.13.98.2,1.81.2.08,0,.12.08.12.23s-.04.23-.12.23c-.86,0-1.53-.01-2.03-.04l-2.96-.04-2.88.04c-.52.03-1.22.04-2.1.04-.05,0-.08-.08-.08-.23s.03-.23.08-.23c.83,0,1.44-.07,1.83-.2.39-.13.66-.38.8-.76.14-.38.21-.95.21-1.74V3.43c0-.78-.07-1.35-.21-1.71-.14-.36-.41-.62-.8-.76-.39-.14-1-.21-1.83-.21-.05,0-.08-.08-.08-.23s.03-.23.08-.23l2.1.04c1.19.05,2.16.08,2.88.08.81,0,1.81-.03,3-.08l1.99-.04c.08,0,.12.08.12.23s-.04.23-.12.23c-.81,0-1.4.08-1.79.23s-.65.42-.78.8c-.13.38-.2.95-.2,1.73v17.97c0,.81.07,1.39.2,1.75Z"/><path class="cls-2" d="M128.38,24.4c0,.16-.07.23-.2.23-.52,0-1.33-.03-2.42-.08-1.14-.05-1.96-.08-2.46-.08-.65,0-1.44.03-2.38.08-.88.05-1.59.08-2.1.08-.1,0-.16-.08-.16-.23s.05-.23.16-.23c.67,0,1.16-.07,1.46-.21.3-.14.45-.4.45-.76,0-.44-.26-1.18-.78-2.22l-2.65-5.26h-9.59l-1.52,3.39c-.34.75-.51,1.45-.51,2.1,0,.93.33,1.66.99,2.18.66.52,1.55.78,2.67.78.13,0,.19.08.19.23s-.07.23-.19.23c-.47,0-1.14-.03-2.03-.08-.99-.05-1.85-.08-2.57-.08s-1.55.03-2.53.08c-.88.05-1.6.08-2.14.08-.1,0-.16-.08-.16-.23s.05-.23.16-.23c.73,0,1.34-.15,1.83-.45.49-.3.99-.83,1.48-1.6.49-.76,1.08-1.9,1.75-3.41L113.61.12c.05-.08.17-.12.35-.12.21,0,.32.04.35.12l9.74,19.18c.91,1.84,1.66,3.12,2.26,3.82s1.22,1.05,1.87,1.05c.13,0,.2.08.2.23ZM108.23,14.62h8.5l-4.48-8.89-4.01,8.89Z"/><path class="cls-1" d="M20.2,34.39v.24c0,.69-.21,1.12-.68,1.34v.02c.56.22.78.72.78,1.43v.55c0,1.03-.54,1.59-1.6,1.59h-1.65v-6.69h1.59c1.09,0,1.56.51,1.56,1.54ZM18.11,33.8v1.77h.41c.39,0,.63-.17.63-.71v-.37c0-.48-.16-.69-.54-.69h-.51ZM18.11,36.53v2.06h.6c.35,0,.55-.16.55-.66v-.58c0-.62-.2-.81-.68-.81h-.47Z"/><path class="cls-1" d="M23.69,37.32l-1.33-4.47h1.1l.79,3.05h.02l.79-3.05h1l-1.33,4.47v2.22h-1.05v-2.22Z"/><path class="cls-1" d="M31.49,32.85h3.25v.96h-1.1v5.74h-1.05v-5.74h-1.1v-.96Z"/><path class="cls-1" d="M38.16,39.54h-1.05v-6.69h1.05v2.87h1.19v-2.87h1.07v6.69h-1.07v-2.87h-1.19v2.87Z"/><path class="cls-1" d="M44.16,35.67h1.44v.96h-1.44v1.96h1.82v.96h-2.87v-6.69h2.87v.96h-1.82v1.86Z"/><path class="cls-1" d="M53.35,32.77c1.02,0,1.55.61,1.55,1.68v.21h-.99v-.28c0-.48-.19-.66-.53-.66s-.53.18-.53.66.21.85.9,1.45c.88.77,1.16,1.33,1.16,2.09,0,1.07-.54,1.68-1.57,1.68s-1.57-.61-1.57-1.68v-.41h.99v.48c0,.48.21.65.54.65s.54-.17.54-.65-.21-.85-.9-1.45c-.88-.77-1.16-1.33-1.16-2.09,0-1.07.53-1.68,1.55-1.68Z"/><path class="cls-1" d="M57.11,32.85h3.25v.96h-1.1v5.74h-1.05v-5.74h-1.1v-.96Z"/><path class="cls-1" d="M62.65,34.45c0-1.07.56-1.68,1.6-1.68s1.6.61,1.6,1.68v3.48c0,1.07-.56,1.68-1.6,1.68s-1.6-.61-1.6-1.68v-3.48ZM63.7,38c0,.48.21.66.55.66s.55-.18.55-.66v-3.61c0-.48-.21-.66-.55-.66s-.55.18-.55.66v3.61Z"/><path class="cls-1" d="M70.63,39.54c-.06-.17-.1-.28-.1-.82v-1.05c0-.62-.21-.85-.69-.85h-.36v2.73h-1.05v-6.69h1.59c1.09,0,1.56.51,1.56,1.54v.53c0,.69-.22,1.13-.69,1.35v.02c.53.22.7.72.7,1.42v1.03c0,.33,0,.56.11.81h-1.07ZM69.48,33.8v2.06h.41c.39,0,.63-.17.63-.71v-.66c0-.48-.16-.69-.54-.69h-.51Z"/><path class="cls-1" d="M76.4,37.6h.02l.71-4.75h1.46v6.69h-.99v-4.8h-.02l-.71,4.8h-.99l-.76-4.73h-.02v4.73h-.92v-6.69h1.46l.76,4.75Z"/><path class="cls-1" d="M86.88,37.6h.02l.71-4.75h1.46v6.69h-.99v-4.8h-.02l-.71,4.8h-.99l-.76-4.73h-.02v4.73h-.92v-6.69h1.46l.76,4.75Z"/><path class="cls-1" d="M92.8,35.67h1.44v.96h-1.44v1.96h1.82v.96h-2.87v-6.69h2.87v.96h-1.82v1.86Z"/><path class="cls-1" d="M97.18,32.85h1.66c1.05,0,1.57.58,1.57,1.65v3.38c0,1.07-.52,1.65-1.57,1.65h-1.66v-6.69ZM98.23,33.8v4.78h.59c.33,0,.54-.17.54-.65v-3.48c0-.48-.2-.65-.54-.65h-.59Z"/><path class="cls-1" d="M102.99,32.85h1.05v6.69h-1.05v-6.69Z"/><path class="cls-1" d="M110.12,39.54h-1.06l-.18-1.21h-1.29l-.18,1.21h-.97l1.07-6.69h1.54l1.07,6.69ZM107.72,37.42h1.01l-.5-3.39h-.02l-.5,3.39Z"/></svg>