<svg id="_圖層_1" xmlns="http://www.w3.org/2000/svg" viewBox="0 0 179.3 56.62" width="236" fill="none" >
<defs>
<style type="text/css">
.cls-1{fill:#3e3a39;}
.cls-1,.cls-2{stroke-width:0px;}
.cls-2{fill:#d9403b;}
</style>
</defs>
<polygon class="cls-2" points="51.73 0 13.29 6.25 5.85 34.03 51.73 0"/><polygon class="cls-1" points="4.16 40.44 0 56.14 49.65 19.94 26.59 23.78 4.16 40.44"/><path class="cls-1" d="m95.62,50.53c-.16-.24-.32-.4-.56-.48-.24-.08-.48-.16-.72-.16-.16,0-.32,0-.48.08-.16,0-.24.08-.4.16-.08.08-.24.16-.32.32s-.08.32-.08.4c0,.24.08.48.24.56.24.16.4.24.64.32s.56.16.88.24c.32.08.56.24.88.4.24.16.48.4.64.64.16.32.32.72.24,1.04,0,.4-.08.72-.24,1.04-.16.32-.32.56-.64.72-.24.16-.56.32-.88.48-.32.08-.72.16-1.04.16-.48,0-.96-.08-1.36-.24-.4-.16-.8-.48-1.12-.8l1.04-.96c.16.24.4.48.64.56.24.16.56.24.88.24.16,0,.32,0,.48-.08.16,0,.32-.08.4-.16.16-.08.24-.16.32-.32.08-.16.16-.32.16-.48,0-.24-.08-.48-.24-.64s-.4-.32-.64-.4-.56-.16-.88-.32c-.32-.08-.56-.24-.88-.4-.24-.16-.48-.4-.64-.64-.16-.32-.32-.72-.24-1.04,0-.32.08-.72.24-.96.16-.24.4-.48.64-.72.24-.16.56-.32.88-.4.32-.08.72-.16,1.04-.16.4,0,.8.08,1.12.16.4.16.72.32,1.04.56l-1.04,1.28Z"/><polygon class="cls-1" points="100.82 50.13 98.5 50.13 98.5 48.93 104.5 48.93 104.5 50.13 102.18 50.13 102.18 56.46 100.82 56.46 100.82 50.13"/><path class="cls-1" d="m106.19,52.69c0-.56.08-1.12.32-1.6.16-.48.48-.88.8-1.28.4-.32.8-.64,1.28-.8s1.04-.24,1.6-.24,1.12.08,1.6.24c.96.32,1.76,1.12,2.08,2,.24.48.32,1.04.32,1.6s-.08,1.12-.32,1.6c-.16.48-.48.88-.8,1.28-.4.32-.8.64-1.28.8s-1.04.32-1.6.32-1.12-.08-1.6-.24c-.48-.16-.88-.48-1.28-.8-.32-.32-.64-.8-.8-1.2-.16-.56-.32-1.12-.32-1.68m1.44-.08c0,.4.08.72.16,1.12.08.32.32.64.56.88.24.24.48.48.8.56.32.16.72.24,1.04.24.4,0,.72-.08,1.12-.16.32-.16.56-.32.8-.56.24-.24.4-.56.56-.88s.16-.72.16-1.12c0-.32-.08-.72-.16-1.04-.08-.32-.32-.64-.56-.88s-.48-.4-.8-.56-.72-.24-1.04-.24c-.4,0-.72.08-1.04.24-.32.16-.56.32-.8.56s-.4.56-.56.88c-.16.32-.24.64-.24.96"/><path class="cls-1" d="m116.68,48.93h2.64c.32,0,.72,0,1.04.08.32.08.64.16.88.32s.48.4.64.64c.4.8.32,1.68-.24,2.4-.32.4-.8.64-1.28.64l2,3.28h-1.6l-1.76-3.2h-1.04v3.2h-1.36v-7.37h.08Zm2.4,3.2h.56c.16,0,.32-.08.56-.16.16-.08.32-.16.4-.32.08-.16.16-.4.16-.56s-.08-.4-.16-.56c-.08-.16-.24-.24-.32-.32-.16-.08-.32-.08-.48-.16h-1.76v1.92l1.04.16Z"/><polygon class="cls-1" points="124.6 48.93 126.69 48.93 128.77 54.21 130.77 48.93 132.77 48.93 132.77 56.46 131.49 56.46 131.49 50.21 131.49 50.21 129.17 56.46 128.29 56.46 125.97 50.21 125.89 50.21 125.89 56.46 124.6 56.46 124.6 48.93"/><polygon class="cls-1" points="140.06 48.93 142.14 48.93 144.14 54.21 146.23 48.93 148.23 48.93 148.23 56.46 146.95 56.46 146.95 50.21 146.95 50.21 144.62 56.46 143.66 56.46 141.42 50.21 141.34 50.21 141.34 56.46 140.06 56.46 140.06 48.93"/><polygon class="cls-1" points="151.19 48.93 156.16 48.93 156.16 50.13 152.47 50.13 152.47 51.97 156 51.97 156 53.17 152.47 53.17 152.47 55.26 156.4 55.26 156.4 56.46 151.19 56.46 151.19 48.93"/><path class="cls-1" d="m158.88,48.93h2.96c.48,0,.96.08,1.44.24.48.16.88.4,1.2.72.4.32.64.72.88,1.2.24.56.32,1.12.32,1.68s-.08,1.12-.4,1.68c-.24.48-.56.88-.96,1.12-.4.32-.8.56-1.28.72-.48.16-.96.24-1.44.24h-2.8l.08-7.61Zm2.32,6.33c.4,0,.8-.08,1.2-.16.32-.08.72-.24.96-.48.32-.24.48-.48.64-.8.16-.4.24-.8.24-1.2s-.08-.8-.24-1.12-.32-.56-.56-.8c-.24-.24-.56-.32-.88-.4-.4-.08-.72-.16-1.12-.16h-1.2v5.13h.96Z"/><rect class="cls-1" x="168.17" y="48.93" width="1.36" height="7.53"/><path class="cls-1" d="m174.81,48.93h1.2l3.28,7.53h-1.52l-.72-1.68h-3.28l-.72,1.68h-1.52l3.28-7.53Zm1.68,4.64l-1.12-3.04-1.2,3.04h2.32Z"/><path class="cls-1" d="m95.86,31.39c-.4-.24-.8-.56-1.2-.96l-.24-.24v.32c-.08,5.45-.56,5.69-.64,5.69-2.4,0-2.4-17.78-2.4-28.35v-.16h-24.02v11.05c0,6.17-.48,13.13-4.32,18.26l-.08.16.16.08c.48.24.96.56,1.28.96l.08.16.08-.16c3.2-4.32,4.72-10.65,4.72-19.38v-9.21h20.26v1.84c.16,15.54.24,26.75,4.08,26.75,1.68,0,2.08-1.76,2.24-6.73v-.08h0Z"/><path class="cls-1" d="m84.56,28.83h0l-1.68.64.16.16c.96,1.04,1.84,2.08,2.56,3.2l-5.53.24v-5.53h6.65v-9.61h-6.65v-3.68c.24,0,.4-.16.48-.32,2.16-.32,4.32-.8,6.49-1.36h.32c.16,0,.32,0,.4-.16l.08-.08-1.76-1.44h-.08c-3.76,1.2-10.65,2.24-15.86,2.8h-.16l.08.16c.24.4.32.88.48,1.36h.08c2.24-.24,4.88-.56,7.53-.96v3.6h-6.57v9.61h6.57v5.61c-3.6.16-6.89.32-9.13.4h-.16l.8,2.32h.08c.24-.08.4-.24.48-.48,4-.24,10.25-.64,16.26-1.04.56.88,1.04,1.76,1.44,2.72v.16l1.68-.8v-.08c-1.2-2.8-2.88-5.29-5.05-7.45m-6.41-3.04h-4.8v-6.25h4.8v6.25Zm1.92-6.25h4.88v6.17h-4.88v-6.17Z"/><path class="cls-1" d="m112.99,7.05c.32,0,.64-.16.72-.4l.08-.16-2.4-.8v.08c-2,6.25-5.29,12.49-8.57,16.18l-.08.08.08.08c.32.4.72,1.12.96,1.52l.08.16.08-.16c1.52-1.84,2.96-3.92,4.16-6.01v20.58h1.92V14.65c.24,0,.48-.16.64-.4l.08-.16-.64-.16c1.04-2.24,2-4.56,2.88-6.89"/><path class="cls-1" d="m117.8,30.27h0l-1.52.96.08.08c1.76,1.44,3.36,2.96,4.72,4.72l.08.08,1.52-1.2-.08-.08c-1.44-1.68-3.04-3.2-4.8-4.56"/><path class="cls-1" d="m131.01,26.03c.24,0,.4-.08.56-.24l1.76-.08c.56.56,1.12,1.12,1.68,1.68l.08.08,1.52-1.04-.08-.08c-1.6-1.68-3.36-3.12-5.29-4.4h3.2v-9.61h-8.97v-2.16h10.57v-1.68h-10.57v-1.92c.32,0,.56-.24.64-.48v-.16l-2.56-.16v2.64h-10.17v1.68h10.17v2.16h-8.73v9.53h8.73v2.48c-3.84.08-7.53.08-10.49.08h-.16l.64,2.16h.08c.24,0,.48-.16.56-.4,4-.08,9.61-.24,14.97-.4v2.48h-16.9v1.76h16.9v5.85q0,.56-1.92.56c-.72,0-1.68,0-2.72-.08h-1.04l.16.4c.24.4.4.88.48,1.36v.08h.08c3.6,0,4.72,0,5.53-.24,1.12-.32,1.28-.96,1.28-2v-5.93h5.37v-1.76h-5.37v-2.16Zm-5.61-12.17h7.05v2.48h-7.05v-2.48Zm0,4h7.05v2.48h-7.05v-2.48Zm0,4h3.92l-.56.32.16.08c.64.48,1.6,1.12,2.56,1.92-2,.08-4.08.08-6.09.08h-.08l.08-2.4Zm-1.92-1.52h-6.89v-2.48h6.89v2.48Zm0-4h-6.89v-2.48h6.89v2.48Z"/><polygon class="cls-2" points="172.17 13.21 166.09 14.25 164.88 18.66 172.17 13.21"/><path class="cls-1" d="m179.06,35.32c-3.2-1.92-6.01-4.56-8.17-7.61h8.09v-1.76h-9.53v-3.2c.24,0,.48-.16.56-.4h5.13v-11.05h3.92v-1.84h-3.92v-3.2c.32,0,.56-.24.56-.48v-.08l-2.48-.16v4h-9.45v-3.2c.32,0,.56-.24.56-.48v-.16l-2.48-.16v4h-4.08v1.84h4.08v10.97h5.61v3.6h-9.29v1.76h7.77c-2.24,3.2-5.13,5.85-8.49,7.85l-.16.08.16.16c.48.4.88.88,1.2,1.36l.08.08.08-.08c3.36-2.24,6.33-5.21,8.65-8.57v9.61h1.92v-9.61c2.24,3.28,5.05,6.09,8.25,8.33l.08.08.08-.08c.32-.48.72-.96,1.2-1.36l.16-.08-.08-.16Zm-5.85-14.73h-9.45v-9.29h9.45v9.29Z"/><path class="cls-1" d="m157.92,34.59l1.2-1.6-.08-.08c-1.12-1.36-2.4-2.64-3.76-3.84,1.68-4,2.72-9.05,3.2-15.3.08-.08.16-.24.16-.4v-.08l-1.12-.32-.32.08h-5.21c.56-2.56.96-4.8,1.36-6.65.4,0,.64-.16.64-.48v-.08l-2.48-.32-.08.32c-.4,2.24-.88,4.72-1.44,7.29h-3.84v1.84h3.44c-.8,3.68-1.92,8.73-2.88,12.17v.08l1.68.88.48-1.68c1.36.96,2.72,2,4,3.12-1.36,2.88-3.52,5.37-6.25,7.05l-.16.08.16.08c.4.4.8.88,1.12,1.36l.08.08.08-.08c2.8-1.84,5.05-4.32,6.49-7.37,1.2,1.12,2.32,2.32,3.36,3.6l.16.24Zm-8.49-10.09c.72-2.88,1.52-6.33,2.24-9.69h4.88c-.24,4.4-1.2,8.73-2.8,12.81-1.44-1.12-2.88-2.16-4.32-3.12"/><polygon class="cls-1" points="65.27 49.97 62.94 49.97 62.94 48.77 68.95 48.77 68.95 49.97 66.63 49.97 66.63 56.22 65.27 56.22 65.27 49.97"/><polygon class="cls-1" points="78.96 48.77 83.92 48.77 83.92 49.97 80.32 49.97 80.32 51.81 83.76 51.81 83.76 53.01 80.32 53.01 80.32 55.1 84.16 55.1 84.16 56.22 78.96 56.22 78.96 48.77"/><polygon class="cls-1" points="75.44 48.69 75.44 51.73 71.51 51.73 71.51 48.69 70.23 48.69 70.23 56.3 71.51 56.3 71.51 52.93 75.44 52.93 75.44 56.3 76.72 56.3 76.72 48.69 75.44 48.69"/></svg>