
<svg  width="54.7" fill="none" version="1.1" id="圖層_1" xmlns="http://www.w3.org/2000/svg" xmlns:xlink="http://www.w3.org/1999/xlink" x="0px" y="0px"
	 viewBox="0 0 54.7 54.7" style="enable-background:new 0 0 54.7 54.7;" xml:space="preserve">
<style type="text/css">
	.st0{opacity:0.23;}
	.st1{fill:#F1F2F2;}
	.st2{fill:#FFFFFF;}
</style>
<g class="st0">
	<g>
		
			<ellipse transform="matrix(0.2298 -0.9732 0.9732 0.2298 -5.5488 47.6531)" class="st1" cx="27.3" cy="27.3" rx="26.4" ry="26.4"/>
		<path class="st2" d="M27.3,54.7C12.3,54.7,0,42.4,0,27.3C0,12.3,12.3,0,27.3,0c15.1,0,27.3,12.3,27.3,27.3
			C54.7,42.4,42.4,54.7,27.3,54.7z M27.3,1.8C13.3,1.8,1.8,13.3,1.8,27.3s11.4,25.5,25.5,25.5c14.1,0,25.5-11.4,25.5-25.5
			S41.4,1.8,27.3,1.8z"/>
	</g>
	<g>
		<path class="st1" d="M20.3,1.9c-2.6,6-4.2,15.2-4.2,25.5s1.6,19.5,4.2,25.5"/>
		<path class="st2" d="M19.4,53.1c-2.7-6.3-4.3-15.8-4.3-25.8s1.6-19.5,4.3-25.8l1.7,0.7C18.5,8.4,17,17.5,17,27.3s1.5,19,4.1,25.1
			L19.4,53.1z"/>
	</g>
	<g>
		<path class="st1" d="M34.4,1.9c2.6,6,4.2,15.2,4.2,25.5s-1.6,19.5-4.2,25.5"/>
		<path class="st2" d="M35.2,53.1l-1.7-0.7c2.6-6.1,4.1-15.3,4.1-25.1s-1.5-19-4.1-25.1l1.7-0.7c2.7,6.3,4.3,15.8,4.3,25.8
			S37.9,46.8,35.2,53.1z"/>
	</g>
	<g>
		<polyline class="st1" points="53.7,27.3 38.6,27.3 27.3,27.3 16.1,27.3 0.9,27.3 		"/>
		<rect x="0.9" y="26.4" class="st2" width="52.8" height="1.8"/>
	</g>
	<g>
		<polyline class="st1" points="27.3,53.7 27.3,27.3 27.3,0.9 		"/>
		<rect x="26.4" y="0.9" class="st2" width="1.8" height="52.8"/>
	</g>
</g>
</svg>
