<svg width="38" height="38" viewBox="0 0 38 38" fill="none" xmlns="http://www.w3.org/2000/svg">
<path d="M32.5716 0.965079C30.7688 0.844445 28.8457 0.603175 27.0429 2.4127C25.24 4.22222 25.4804 6.15238 25.6006 7.96191C25.7208 9.65079 25.9611 11.0984 24.6391 12.4254C23.317 13.7524 21.8747 13.6317 20.192 13.3905C18.3891 13.2698 16.4661 13.0286 14.6632 14.8381C12.8604 16.6476 13.1008 18.5778 13.221 20.3873C13.3411 22.0762 13.5815 23.5238 12.2594 24.8508C10.9373 26.1778 9.49505 26.0571 7.81238 25.8159C6.00953 25.6952 4.08648 25.454 2.28362 27.2635C0.480762 29.073 0.721143 31.0032 0.841334 32.8127C1.08171 34.381 1.20191 35.8286 0 37.0349L0.961524 38C2.64419 36.3111 2.40381 34.2603 2.28362 32.5714C2.16343 30.8825 1.92305 29.4349 3.24514 28.1079C4.56724 26.781 6.00953 26.9016 7.69219 27.1429C9.49505 27.2635 11.4181 27.5048 13.221 25.6952C15.0238 23.8857 14.7834 21.9556 14.6632 20.146C14.5431 18.4571 14.3027 17.0095 15.6248 15.6825C16.9469 14.3556 18.3891 14.4762 20.0718 14.7175C21.8747 14.8381 23.7977 15.0794 25.6006 13.2698C27.4034 11.4603 27.1631 9.53016 27.0429 7.72064C26.9227 6.03175 26.6823 4.58413 28.0044 3.25714C29.3265 1.93016 30.7688 2.05079 32.4514 2.29206C34.2543 2.4127 36.1773 2.65397 37.9802 0.844444L36.8985 0C35.5764 1.32698 34.1341 1.20635 32.5716 0.965079Z" fill="url(#paint0_linear-01)"/>
<defs>
    <linearGradient id="paint0_linear-01" x1="-0.707382" y1="32.7823" x2="34.2904" y2="6.68905" gradientUnits="userSpaceOnUse">
    <stop stop-color="#FFA100"/>
    <stop offset="1" stop-color="#FF175C"/>
    </linearGradient>

    <linearGradient id="paint0_linear-02" x1="-0.707382" y1="32.7823" x2="34.2904" y2="6.68905" gradientUnits="userSpaceOnUse">
    <stop stop-color="#223FDC"/>
    <stop offset="1" stop-color="#FF175C"/>
    </linearGradient>
</defs>
</svg>
