<?xml version="1.0" encoding="UTF-8"?><svg id="_圖層_2" xmlns="http://www.w3.org/2000/svg" viewBox="0 0 1672.21 919.91"><defs><style>.cls-1{fill:#c18500;}</style></defs><g id="txt"><path class="cls-1" d="M1517.73,143.17l7.48-.92,43.74,86.32-8.77,1.08-12.19-24.57-37.16,4.56-5.88,26.79-8.77,1.08,21.56-94.33ZM1522.9,154.33l-10.34,46.98,31.74-3.9-21.4-43.08Z"/><path class="cls-1" d="M1593.6,133.86l11.09,90.33-8.52,1.05-11.09-90.33,8.52-1.05Z"/><path class="cls-1" d="M1001.81,56.74c3.47-4.21,5.92-7.94,7.33-11.18,1.42-3.24,1.94-6.32,1.58-9.26-.41-3.33-1.77-5.85-4.07-7.54-2.3-1.69-5.04-2.34-8.22-1.95-3.18.39-5.81,1.94-7.89,4.66-2.08,2.72-3.47,6.53-4.16,11.45,0,.08-.15.14-.46.18-.71.09-1.05-.03-1.01-.36l2.38-18.06c-.02-.16.13-.26.45-.3.24-.03.46,0,.68.1.21.09.28.19.22.28-.04.33-.03.73.03,1.21.16,1.27.83,1.83,2.02,1.69.71-.09,1.87-.51,3.47-1.27,1.15-.46,2.46-.95,3.93-1.45,1.47-.5,2.92-.84,4.35-1.02,3.97-.49,7.26.22,9.87,2.11,2.61,1.9,4.13,4.63,4.57,8.2.33,2.7-.15,5.5-1.45,8.4-1.3,2.9-3.56,6.28-6.79,10.14-3.23,3.86-7.8,8.7-13.7,14.5-.29.28-.36.49-.22.63.14.15.4.19.8.14,9.29-1.14,15.65-2.06,19.07-2.76,3.42-.7,5.78-1.68,7.08-2.92s2.09-3.3,2.39-6.16c.06-.17.31-.26.75-.27.44-.01.67.06.69.22l-.23,11.88c.04.32-.02.63-.19.93-.16.3-.41.47-.72.51l-36.33,4.46c-.32.04-.61-.08-.89-.37-.28-.29-.32-.6-.12-.95,6.39-6.34,11.33-11.62,14.8-15.84Z"/><path class="cls-1" d="M1046.6,65.03c-3.96-1.69-7.2-4.29-9.72-7.81-2.53-3.52-4.08-7.66-4.67-12.42-.58-4.68-.06-8.98,1.56-12.89,1.62-3.91,4.14-7.12,7.58-9.64,3.44-2.52,7.5-4.06,12.19-4.64,4.6-.57,8.82-.01,12.65,1.65,3.83,1.67,6.99,4.24,9.47,7.72,2.48,3.48,4.01,7.57,4.59,12.25.58,4.69.08,9.02-1.49,13-1.57,3.98-4.03,7.25-7.38,9.79-3.36,2.55-7.34,4.1-11.94,4.67-4.61.57-8.89,0-12.84-1.69ZM1071.35,57.88c2.1-4.21,2.74-9.65,1.93-16.32-.98-7.94-3.43-13.8-7.36-17.59-3.93-3.79-8.44-5.37-13.52-4.75-5,.61-8.67,3.12-10.99,7.51-2.32,4.4-3.09,9.81-2.3,16.24.57,4.61,1.83,8.68,3.8,12.23,1.97,3.55,4.47,6.2,7.51,7.96,3.04,1.76,6.42,2.42,10.15,1.96,5.08-.62,8.67-3.04,10.78-7.25Z"/><path class="cls-1" d="M1106.51,43.89c3.47-4.21,5.92-7.94,7.33-11.18,1.42-3.24,1.94-6.32,1.58-9.26-.41-3.33-1.77-5.85-4.07-7.54-2.3-1.69-5.04-2.34-8.22-1.95-3.18.39-5.81,1.94-7.89,4.66-2.08,2.72-3.47,6.53-4.16,11.45,0,.08-.15.14-.46.18-.71.09-1.05-.03-1.01-.36l2.38-18.06c-.02-.16.13-.26.45-.3.24-.03.46,0,.68.1.21.09.28.19.21.28-.04.33-.03.73.03,1.21.16,1.27.83,1.83,2.02,1.69.71-.09,1.87-.51,3.47-1.27,1.15-.46,2.46-.95,3.93-1.45,1.47-.5,2.92-.84,4.35-1.02,3.97-.49,7.26.22,9.87,2.11,2.61,1.9,4.13,4.63,4.57,8.2.33,2.7-.15,5.5-1.45,8.4-1.3,2.9-3.56,6.28-6.79,10.14-3.23,3.86-7.8,8.7-13.7,14.5-.29.28-.36.49-.23.63.14.15.41.19.8.14,9.29-1.14,15.65-2.06,19.07-2.76,3.42-.7,5.78-1.68,7.08-2.92,1.3-1.25,2.09-3.3,2.39-6.16.06-.17.31-.26.75-.27.44-.01.67.06.69.22l-.23,11.88c.04.32-.02.63-.19.93-.16.3-.41.47-.72.51l-36.33,4.46c-.32.04-.61-.08-.89-.37-.28-.29-.32-.6-.12-.95,6.39-6.35,11.33-11.62,14.8-15.84Z"/><path class="cls-1" d="M1143.06,16.19l-.81,15.09c10.97-1.27,19.25-.25,24.86,3.05,5.6,3.3,8.83,8.41,9.68,15.32.56,4.53-.07,8.77-1.88,12.74-1.81,3.97-4.94,7.98-9.4,12.04s-10.47,8.44-18.03,13.16h-.12c-.32.05-.6-.09-.84-.43-.24-.33-.22-.6.08-.8,9.49-6.08,15.98-11.83,19.46-17.26,3.48-5.43,4.88-10.96,4.19-16.59-.81-6.59-3.74-11.43-8.79-14.52-5.05-3.09-11.87-4.11-20.44-3.05-.4.05-.73-.05-1-.3-.27-.25-.39-.58-.36-.98l1.21-21.67c.01-.56.09-.92.23-1.06.14-.14.53-.28,1.15-.44,9.86-2.42,16.47-4.08,19.82-4.97,3.35-.9,5.5-1.66,6.43-2.3.93-.64,1.52-1.58,1.77-2.82.05-.25.3-.38.74-.39.44-.01.64.14.6.47l-1.45,7.91c-.2.99-.51,1.63-.91,1.93-.41.29-1.13.5-2.16.63l-22.45,3.24c-1.03.13-1.56.8-1.57,2.01Z"/><path d="M1535.74,265.71l-2.46.3-.47-3.81,34.86-4.28.47,3.81-27.71,3.4,2.64,21.52c.35,2.86,1.26,3.71,4.12,3.36l16.76-2.06c1.98-.24,5.55-.76,7.02-1.26.31,1.25.67,2.82,1.03,3.82-1.3.56-4.31,1.01-7.25,1.37l-17.31,2.12c-6.19.76-8.36-1.15-9.06-6.87l-2.63-21.44ZM1581.3,296.71l.44,3.57,18.9-2.32,3.26,26.52-5.56.68-.38-3.1-45.58,5.6.38,3.1-5.4.66-3.26-26.52,19.85-2.44-.44-3.57-27.95,3.43-.51-4.13,72.1-8.85.51,4.13-26.36,3.24ZM1558.06,278.12l-.06.17c3.9,1.54,8.3,3.9,10.75,5.53l-2.2,3.09c-2.21-1.58-6.02-3.7-9.52-5.36-1.28,2.66-3.83,5.55-8.68,8.08-.68-.96-2.02-2.01-2.99-2.7,5.65-2.55,7.78-5.55,8.49-8.3l-9.93,1.22-.42-3.42,10.56-1.3-.07-.55-.46-3.73-4.84.59c-.79,1.47-1.59,2.78-2.58,3.94-.78-.47-2.49-1.23-3.49-1.5,2.24-2.77,3.93-6.04,4.73-9.37l3.85.5c-.21.91-.5,1.83-.86,2.84l15.8-1.94.41,3.33-8.97,1.1.47,3.81.06.48,10.4-1.28.42,3.42-10.88,1.34ZM1597.52,318.5l-1.1-8.97-.79.1-10.24,1.26c-5.64.69-7.17,0-7.68-4.13l-.28-2.3-8.5,1.04c-.4,4-3.75,7.55-14.8,10.76-.68-.96-2.08-2.48-3.05-3.17,9.08-2.16,12.17-4.64,12.93-6.99l-14.06,1.73,2,16.28,45.58-5.6ZM1557.99,316.9l33.03-4.06.42,3.41-33.03,4.06-.42-3.41ZM1571.78,272.97c-.77-1.03-2.67-2.73-3.7-3.25,5.66-3.11,6.44-5.95,6.1-8.73l-.5-4.05,18.9-2.32.91,7.38c.19,1.51.39,1.89,1.35,1.77l3.49-.43c.95-.12,2.37-.37,3.23-.64.22,1.1.59,2.83.88,3.92-.84.35-2.18.59-3.45.75l-4.37.54c-4.29.53-5.37-1.03-5.9-5.4l-.37-3.02-9.37,1.15c.45,3.65-.56,7.89-5.92,11.53l21.6-2.65.92-.35,3.1.99c-1.38,4.52-3.81,8.37-6.87,11.64,4.03,1.28,7.82,2.67,10.54,3.78l-1.86,3.86c-2.97-1.25-7.38-2.96-12.09-4.56-4.04,3.24-8.64,5.82-13.48,7.7-.69-1.04-2.02-2.66-3.01-3.5,4.02-1.38,7.97-3.39,11.46-5.76-3.45-1.19-6.97-2.29-10.06-3.12l1.76-3.36c3.66.92,7.84,2.18,12.03,3.44,2.1-1.95,4-4.2,5.31-6.62l-19.93,2.45-.41-3.33-.3.2ZM1576.54,297.29l-8.34,1.02.44,3.57,8.34-1.02-.44-3.57ZM1582.18,303.86l.28,2.3c.2,1.59.62,1.78,3,1.49l9.05-1.11c.71-.09,1.19-.15,1.5-.26l-.5-4.05-13.34,1.64Z"/><path d="M1551.6,390.23c-1.36-3.86-4.39-10.18-6.84-15.04l4.24-2.21c2.6,4.76,5.7,10.99,7.02,14.53l-4.42,2.72ZM1560.77,369.76l2.5,20.33c1.48,12.07,1.96,29.1-6.46,41.26-.94-1.09-3.34-2.9-4.54-3.47,5.19-7.65,6.49-16.76,6.31-25.44-2.92,2.45-5.94,4.76-8.83,6.89l-2.63-5c2.92-1.81,6.93-4.64,11.24-7.59-.17-2.07-.41-3.98-.65-5.96l-3.13-25.49,27.87-3.42c-.88-1.91-1.96-4.11-2.81-5.86l5.56-1.97c1.23,2.11,2.69,4.83,3.61,7.05l27-3.32.63,5.16-55.66,6.83ZM1615.82,378.31c-1.73,2.31-3.95,4.6-5.9,6.45,3.3,1.93,6.95,3.42,10.43,4.2-.98,1.17-2.35,3.19-2.98,4.64-2.35-.76-4.8-1.67-7.14-2.99l1.94,15.8-15.17,1.86,1.48,12.07c.35,2.86-.05,4.2-2.17,5.34-2.05,1.06-5.3,1.46-10.46,2.09-.5-1.47-1.54-3.36-2.5-4.61,3.91-.32,7.24-.81,8.18-1,1.11-.14,1.32-.4,1.21-1.28l-1.46-11.91-14.77,1.81-1.92-15.64c-1.89,1.68-4.04,3.24-6.26,4.8-.96-1.25-2.76-2.8-4.13-3.44,3.52-2.2,6.6-4.68,9.18-7.25-2.04-1.52-4.65-3.06-6.81-4.24l2.84-3.09c2.14,1.03,4.91,2.54,6.94,3.98,1.75-2.15,3.33-4.36,4.43-6.59l-15.01,1.84-.58-4.68,17.95-2.2c.92-2.37,1.58-4.87,1.86-7.16l5.66.11c-.39,2.06-1.01,4.24-1.64,6.33l27.32-3.35.58,4.68-16.99,2.09c1.79,2.12,4.12,4.01,6.59,5.72,1.92-2.09,4.1-4.69,5.32-6.54l3.97,2.17ZM1583.69,413.29c-3.04,4.81-7.33,10.57-10.98,14.33-1.14-.75-3.5-2.23-4.96-2.94,3.77-3.45,7.85-8.3,10.56-12.5l5.38,1.11ZM1604.71,389.59l-25.25,3.1.59,4.84,25.25-3.1-.59-4.84ZM1605.77,398.16l-25.25,3.1.61,5,25.25-3.1-.61-5ZM1602.73,385.88c-3.12-2.44-5.96-5.23-8.27-8.25l-7.46.92c-1.52,3.41-3.52,6.8-6.18,10.03l21.92-2.69ZM1607.84,408.47c4.51,3.23,10.62,7.72,13.79,10.56l-4.09,3.48c-3.01-2.85-9-7.68-13.61-11.06l3.91-2.98Z"/><path d="M1565.72,482.31c-1.55,2.45-3.05,4.73-4.66,6.7-.84-1.59-2.54-3.64-3.99-4.91,5.87-6.68,11.7-17.64,14.28-28.11l4.63,2.25c-.32,1.33-.71,2.75-1.18,4.17,5.88,4.6,12.4,10.41,15.62,14.28l-2.68,5.08c-3.08-4.06-9.17-9.68-14.67-14.4-2.1,5.25-4.47,10.22-7.08,14.57l18.26-2.24.63,5.16-18.58,2.28-.59-4.84ZM1591.47,493.74c-1.98,8.14-5.98,17.58-9.66,23.75,2.51,2.03,4.85,4.08,6.53,5.89l-3.42,4.29c-4-4.35-11.96-10.78-18.17-14.7l3.24-3.78c2.26,1.33,4.82,3.12,7.37,4.9,2.77-4.37,5.76-10.86,7.49-16.48l-22.23,2.73-.62-5.08,24.62-3.02.91-.43,3.95,1.93ZM1604.64,469.07c.27-2.37.56-5.31.66-7.74l-16.28,2-.62-5.08,38.59-4.74.62,5.08-15.96,1.96c-.48,2.64-.87,5.43-1.38,7.83l16.12-1.98,5.06,41.21-33.67,4.13-5.06-41.21,11.91-1.46ZM1611.53,514.65c-3.31,4.52-9.22,9.59-14.42,12.57-1.02-1.08-2.98-2.62-4.38-3.49,5.29-2.91,10.9-7.71,13.34-11.47l5.45,2.39ZM1621.4,471.69l-22.71,2.79.95,7.7,22.71-2.79-.95-7.7ZM1622.89,483.76l-22.71,2.79.96,7.78,22.71-2.79-.96-7.78ZM1624.38,495.91l-22.71,2.79.96,7.78,22.71-2.79-.96-7.78ZM1622.24,510.68c4.63,2.25,10.86,5.76,14.07,8.27l-4.27,3.99c-2.97-2.54-9-6.31-13.89-8.77l4.09-3.48Z"/><path d="M1600.72,591.42l3.45,28.11c.35,2.86-.1,4.45-1.89,5.63-1.71,1.18-4.64,1.62-9.48,2.21-.33-1.41-1.41-3.61-2.29-4.88,3.42-.34,6.36-.7,7.23-.89.95-.12,1.31-.48,1.19-1.51l-3.35-27.32-13.12,3.46c1.27,10.32,2.02,24.34-2.67,34.02-.99-.85-3.48-2.07-4.82-2.47,4.23-8.9,3.43-20.65,2.34-30.19l-5.06,1.43-1.34-4.99,5.79-1.44-3.14-25.57,6.99-.86c.57-3.21,1.12-7.31,1.32-10.24l6.09.38c-.75,3.07-1.46,6.47-2.17,9.21l11.59-1.42,2.78,22.63,4.38-1.1.8,4.58-4.61,1.21ZM1581.85,591.32c4.08-.9,8.53-2.09,13.15-3.23l-2.28-18.58-13.34,1.64,2.48,20.17ZM1585.53,574.02c2.33,3.26,4.89,7.62,6.19,10.36l-3.67,2.3c-1.33-2.98-3.9-7.5-6.08-10.78l3.56-1.89ZM1592,611.67c-1.51-3.12-4.61-7.98-7.22-11.53l3.46-2.04c2.7,3.62,5.85,8.23,7.43,11.26l-3.67,2.3ZM1639.11,566.64l-37,4.54-.64-5.24,15.8-1.94c-1.59-3.11-3.91-6.93-6.13-9.89l5.06-2.15c2.75,3.37,5.65,7.93,7.27,11.28l15.01-1.84.64,5.24ZM1640.94,615.66c.56-.07,1.17-.3,1.46-.58.28-.36.51-1.11.44-2.31-.02-1.45-.32-4.55-.74-8.61,1.23.82,2.91,1.42,4.4,1.71.37,3.66.68,8.14.55,9.77-.19,1.72-.78,2.84-1.58,3.58-.87.83-2.26,1.32-3.68,1.5l-3.57.44c-1.51.19-3.16-.1-4.39-.99-1.32-.89-1.8-2.2-2.47-7.68l-3.73-30.41-13.18,1.62,1.55,12.62c1.1,8.97,1.28,20.96-5.45,29.77-1.16-.91-3.6-2.38-5.02-2.85,6.25-8.18,5.89-18.3,4.91-26.32l-2.18-17.79,24.3-2.98,4.43,36.05c.24,1.99.47,3.17.83,3.45.36.28.76.31,1.32.24l1.83-.22Z"/><path d="M1623.71,680.81c7.7,16.79,19.79,29.89,35.89,34.28-1.26,1.53-2.95,4.23-3.76,6.1-16.13-5.35-27.94-18.17-36.43-35.42-1.94,15.71-8.64,32.01-26.86,43.2-1.07-1.48-3.23-3.31-5.04-4.3,18.64-10.99,24.71-27.22,26.12-42.62l-29.3,3.6-.74-6.04,30.25-3.71c.17-8.48-.89-16.41-1.58-22.7l6.35-.78c.7,6.36,1.59,14.23,1.5,22.71l32.79-4.03.74,6.04-29.94,3.68Z"/><path d="M1606.67,784.94c.5,4.05.09,11.27-4.84,16.39-1.13-.67-3.5-1.59-4.85-2.07,4.52-4.5,4.76-10.5,4.35-13.83l-.09-.71-5.72.7-.59-4.84,17.39-2.14-.74-6.03-13.66,1.68-2-16.28,5.08-.62,1.41,11.51,8.58-1.05-1.63-13.26,5.48-.67,5.49,44.71-5.48.67-1.94-15.8-6.35.78.11.87ZM1640.28,806.6c10.37,2.43,24.37,6.12,31.93,8.65l-2.28,5.04c-7.43-2.72-22.21-6.95-33.02-9.65l2.02-3.88-3.73.46c-2.29,6.97-10.01,14.93-31.94,21.49-.8-1.27-2.49-3.24-3.92-4.35,17.97-5.27,25.71-11.14,28.95-16.29l-29.86,3.67-.61-5,32.24-3.96c.1-1.14.06-2.1-.05-3.06l-.59-4.84,5.8-.71.61,5c.12.95.14,1.84.19,2.88l16.2-1.99c-1.95-1.46-4.74-3.13-6.99-4.38l2.12-2.44-2.78.34c-.41-1.4-1.34-3.06-2.23-4.4,3.67-.29,6.85-.68,7.72-.79,1.02-.21,1.23-.47,1.12-1.35l-.97-7.86-18.5,2.27c3.41,1.52,7.25,3.95,9.27,5.95l-3.5,3.65c-1.95-2.1-6.07-4.81-9.5-6.49l3.01-3.03-9.45,1.16-.52-4.21,28.67-3.52-.71-5.8,5.64-.69.71,5.8,10-1.23.52,4.21-10,1.23.98,8.02c.34,2.78-.07,4.04-2.11,5.1-1.29.64-3.34,1.05-6.11,1.48,2.67,1.37,6.05,3.29,7.75,4.69l-1.45,1.95,14.85-1.82.61,5-30.09,3.7ZM1660.29,753.61c-5.58,13.02-21.13,20.25-37.28,24.57-.62-1.13-1.85-2.59-2.92-3.43,7.75-1.84,15.25-4.45,21.66-8.06-2.36-2.13-5.56-4.56-8.6-6.36-3.08,1.83-6.34,3.52-10.08,5.19-.85-1.02-2.55-2.43-3.67-3.01,9.38-3.73,16.41-8.14,20.18-12.23l5.3.48c-1.05,1.26-2.28,2.46-3.66,3.67l14.77-1.81,1-.36,3.31,1.37ZM1635.77,767.9c-4.79,1.07-9.11,1.92-13.12,2.74l-1.06-3.42c3.86-.72,8.43-1.6,13.71-2.57l.48,3.25ZM1637.21,758.62c2.95,1.73,5.87,3.79,8.13,5.85,3.26-2.33,5.93-4.84,7.99-7.83l-16.12,1.98Z"/><path d="M1041.53,892.02c-.47-1.55-1.41-3.89-2.22-5.68l1.48-.55c.84,1.79,1.8,4.09,2.27,5.64l-1.54.58ZM1046.2,894.64l1.74,14.17-1.86.23-1.74-14.17-4.06.5-.24-1.95,4.06-.5-1.13-9.23,1.86-.23,1.14,9.25,3.42-.42.24,1.92-3.42.42ZM1044.28,896.96c-.21,3.1-.94,7.05-2.15,9.15-.27-.56-.85-1.42-1.25-1.91.94-1.75,1.79-4.99,1.98-7.52l1.42.28ZM1049.26,885.38c-.49,2.01-1.08,4.53-1.62,6.07l-1.39-.31c.45-1.63.99-4.35,1.16-6.15l1.85.39ZM1047.87,896.1c.59.66,2.9,3.88,3.39,4.66l-1.23,1.7c-.64-1.3-2.52-4.43-3.21-5.45l1.04-.92ZM1065.29,889.98l.19,1.58-15.42,1.89-.19-1.58,6.56-.8-.23-1.89-5.56.68-.18-1.5,5.56-.68-.21-1.7-6.25.77-.19-1.58,6.25-.77-.28-2.25,2.03-.25.28,2.25,6.56-.8.19,1.58-6.56.8.21,1.7,6.06-.74.18,1.5-6.06.74.23,1.89,6.84-.84ZM1065.43,904.46c.12,1-.01,1.53-.72,1.92-.66.39-1.8.53-3.55.75-.15-.52-.48-1.18-.79-1.65,1.26-.1,2.4-.24,2.73-.31.36-.04.43-.17.39-.47l-.29-2.36-8.62,1.06c-.09,1.79-.43,3.61-1.4,5.11-.35-.35-1.17-1.01-1.61-1.18,1.38-2.29,1.23-5.12.96-7.31l-.63-5.11,12.17-1.49,1.36,11.06ZM1053.99,896.31l.25,2.06,8.34-1.02-.25-2.06-8.34,1.02ZM1063.01,900.87l-.25-2.06-8.34,1.02c.08.64.14,1.34.17,2.07l8.42-1.03Z"/><path d="M1077.66,887.82c-1.05-.55-3.16-1.16-4.75-1.5l.85-1.54c1.58.23,3.66.82,4.73,1.28l-.83,1.77ZM1079.11,883.12c-1.09-.57-3.1-1.31-4.7-1.74l.85-1.54c1.59.34,3.65.99,4.73,1.56l-.89,1.72ZM1099.74,896.95l-11.48,1.41.67,5.45-2.06.25-.67-5.45-11.26,1.38-.23-1.89,11.26-1.38-.25-2.03,2.06-.25.25,2.03,11.48-1.41.23,1.89ZM1074.76,895.03c1.31-1.52,3.2-4.03,4.72-6.33l1.28,1.25c-1.32,2.11-2.89,4.5-4.37,6.49l-1.64-1.41ZM1081.7,885.57c-.48.65-.95,1.22-1.45,1.76-.41-.32-1.29-.86-1.8-1.11,2.04-1.97,3.81-4.81,4.76-7.67l1.99.32c-.31.91-.67,1.86-1.13,2.76l4.42-.54c-.42-.68-.91-1.44-1.35-2.03l1.88-.79c.63.74,1.35,1.78,1.78,2.55l5.59-.69.2,1.61-6.11.75.26,2.08,5.25-.65.17,1.42-5.25.65.25,2,5.34-.66.17,1.42-5.34.66.26,2.14,6.59-.81.21,1.7-13.56,1.67.15,1.2-2.03.25-1.23-9.98ZM1088.49,882.73l-5,.61.26,2.08,5-.61-.26-2.08ZM1088.92,886.23l-5,.61.25,2,5-.61-.25-2ZM1089.34,889.65l-5,.61.26,2.14,5-.61-.26-2.14Z"/><path d="M1115.37,891c.35-1.09.71-2.68,1-4.24l-2.92.36,1.35,11c.13,1.08-.01,1.72-.78,2.13-.74.43-1.96.61-3.87.84-.15-.55-.54-1.37-.88-1.87,1.42-.15,2.7-.3,3.06-.38.42-.05.51-.18.47-.51l-1.35-10.98-4.56.56-.23-1.83,7.09-.87c-1.61-1.16-4.08-2.46-6.19-3.27l.95-1.47c.95.36,1.99.83,3.01,1.29.83-1.03,1.69-2.35,2.35-3.59l-7.45.92-.23-1.83,8.75-1.08.4-.19,1.39.73c-.91,2-2.28,4.2-3.65,5.86.94.5,1.79,1.05,2.39,1.54l-.56.94,2.03-.25.3-.12,1.32.18c-.49,2.23-1.02,4.75-1.62,6.35l-1.58-.23ZM1122.67,879.66c.09-.86.17-1.83.2-2.71l-5.78.71-.22-1.78,14.01-1.72.22,1.78-5.95.73c-.14.95-.3,1.9-.45,2.74l5.75-.71,1.77,14.4-11.98,1.47-1.77-14.4,4.2-.52ZM1124.99,895.6c-1.35,1.63-3.72,3.45-5.85,4.53-.35-.35-1.1-.91-1.53-1.22,2.07-1.04,4.4-2.77,5.44-4.14l1.94.83ZM1128.7,880.56l-8.12,1,.33,2.7,8.12-1-.33-2.7ZM1129.22,884.73l-8.12,1,.33,2.72,8.12-1-.33-2.72ZM1129.74,889.01l-8.12,1,.33,2.72,8.12-1-.33-2.72ZM1128.91,894.16c1.79.77,4.11,2,5.35,2.9l-1.46,1.39c-1.18-.9-3.49-2.19-5.31-3.04l1.43-1.25Z"/><path d="M1148.77,872.62c-.58,2.44-1.33,5.5-2.02,7.86,2.43,2.1,3.18,4.07,3.39,5.82.18,1.5,0,2.76-.74,3.39-.38.36-.89.59-1.43.74-.6.13-1.38.23-2.03.28-.1-.55-.36-1.31-.76-1.82.7-.03,1.26-.1,1.76-.16.36-.07.68-.2.91-.39.41-.36.45-1.16.35-1.99-.19-1.56-.95-3.41-3.34-5.37.58-2.16,1.17-4.91,1.55-6.93l-4.09.5,2.74,22.34-1.95.24-2.97-24.21,6.84-.84.3-.12,1.49.66ZM1155.24,876.57c.15,1.45.24,2.85.29,4.22l8.14-1,.12.94c.72,8.6.82,11.72.08,12.8-.42.73-.92.99-1.77,1.18-.79.21-2.3.34-3.78.46-.13-.63-.43-1.44-.86-1.98,1.52-.05,2.97-.19,3.52-.26.5-.06.74-.15.98-.49.51-.68.49-3.39-.11-10.51l-6.25.77c.02,5.47-1.12,10.21-5.56,13.49-.34-.44-1.06-1.05-1.58-1.36,5.74-4.06,5.5-10.61,4.76-18.02l-4.39.54-.24-1.95,15.98-1.96.24,1.95-9.56,1.17ZM1156.21,869.79c.63,1.22,1.48,2.87,1.85,3.84l-1.9.85c-.38-1.03-1.13-2.74-1.79-4.01l1.84-.68Z"/><path d="M1186.71,874.2c-.47-1.55-1.41-3.89-2.22-5.68l1.48-.55c.84,1.79,1.8,4.09,2.27,5.64l-1.54.58ZM1191.38,876.81l1.74,14.17-1.86.23-1.74-14.17-4.06.5-.24-1.95,4.06-.5-1.13-9.23,1.86-.23,1.14,9.25,3.42-.42.24,1.92-3.42.42ZM1189.46,879.14c-.21,3.1-.94,7.05-2.15,9.15-.27-.56-.85-1.42-1.25-1.91.94-1.75,1.79-4.99,1.98-7.52l1.42.28ZM1194.44,867.55c-.49,2.01-1.08,4.53-1.62,6.07l-1.39-.31c.45-1.63.99-4.35,1.16-6.15l1.85.39ZM1193.05,878.27c.59.66,2.9,3.88,3.39,4.66l-1.23,1.7c-.64-1.3-2.52-4.43-3.21-5.45l1.04-.92ZM1210.47,872.16l.19,1.58-15.42,1.89-.19-1.58,6.56-.8-.23-1.89-5.56.68-.18-1.5,5.56-.68-.21-1.7-6.25.77-.19-1.58,6.25-.77-.28-2.25,2.03-.25.28,2.25,6.56-.8.19,1.58-6.56.8.21,1.7,6.06-.74.18,1.5-6.06.74.23,1.89,6.84-.84ZM1210.61,886.64c.12,1-.01,1.53-.72,1.92-.66.39-1.8.53-3.55.75-.15-.52-.48-1.18-.8-1.65,1.26-.1,2.4-.24,2.73-.31.36-.04.43-.17.39-.47l-.29-2.36-8.62,1.06c-.09,1.79-.43,3.61-1.4,5.11-.35-.35-1.17-1.01-1.61-1.18,1.38-2.29,1.23-5.12.96-7.31l-.63-5.11,12.17-1.49,1.36,11.06ZM1199.17,878.48l.25,2.06,8.34-1.02-.25-2.06-8.34,1.02ZM1208.19,883.04l-.25-2.06-8.34,1.02c.08.64.14,1.34.17,2.07l8.42-1.03Z"/><path d="M1222.84,869.99c-1.05-.55-3.16-1.16-4.75-1.5l.85-1.54c1.58.23,3.65.82,4.73,1.28l-.83,1.77ZM1224.3,865.3c-1.09-.57-3.1-1.31-4.7-1.74l.85-1.54c1.59.34,3.65.99,4.73,1.56l-.89,1.72ZM1244.92,879.12l-11.48,1.41.67,5.45-2.06.25-.67-5.45-11.26,1.38-.23-1.89,11.26-1.38-.25-2.03,2.06-.25.25,2.03,11.48-1.41.23,1.89ZM1219.95,877.2c1.31-1.52,3.2-4.03,4.72-6.33l1.28,1.25c-1.32,2.11-2.89,4.5-4.37,6.49l-1.64-1.41ZM1226.88,867.74c-.48.65-.95,1.22-1.45,1.76-.41-.32-1.29-.86-1.8-1.11,2.04-1.97,3.81-4.81,4.76-7.67l1.99.32c-.31.91-.67,1.86-1.13,2.76l4.42-.54c-.42-.68-.91-1.44-1.35-2.03l1.88-.79c.63.74,1.35,1.78,1.78,2.55l5.59-.69.2,1.61-6.11.75.26,2.08,5.25-.65.17,1.42-5.25.65.25,2,5.34-.66.17,1.42-5.34.66.26,2.14,6.59-.81.21,1.7-13.56,1.67.15,1.2-2.03.25-1.22-9.98ZM1233.67,864.91l-5,.61.26,2.08,5-.61-.26-2.08ZM1234.1,868.41l-5,.61.25,2,5-.61-.25-2ZM1234.52,871.83l-5,.61.26,2.14,5-.61-.26-2.14Z"/><path d="M1257.33,869.9c-1.21-.64-3.68-1.69-5.45-2.35l.93-1.64c1.76.54,4.19,1.52,5.46,2.18l-.93,1.81ZM1258.22,862.23c-1.27-.72-3.74-1.77-5.61-2.47l.99-1.62c1.79.6,4.31,1.56,5.6,2.22l-.98,1.87ZM1254.29,881.67c1.24-2.27,2.94-6.17,4.16-9.51l1.67,1.18c-1.11,3.1-2.61,6.75-3.91,9.51l-1.92-1.17ZM1270.32,859.39c2.58,2.14,5.4,5.15,6.78,7.18l-1.71,1.28c-.31-.47-.72-1.04-1.18-1.6-11.88,2.28-13.18,2.52-14,2.96-.16-.4-.62-1.36-.94-1.89.54-.18,1.07-.92,1.7-2.04.69-1.07,2.76-5.11,3.9-8.88l2.21.35c-1.3,3.46-2.9,6.93-4.6,9.68l10.27-1.85c-1.25-1.43-2.72-2.88-4.05-4.07l1.61-1.1ZM1261.51,871.33l14.01-1.72,1.35,11.03-2.06.25-.14-1.14-9.95,1.22.15,1.22-2,.25-1.36-11.12ZM1263.75,873l.74,6.06,9.95-1.22-.74-6.06-9.95,1.22Z"/><path d="M1287.23,864.85c-.48-1.35-1.54-3.56-2.4-5.26l1.48-.77c.91,1.67,2,3.84,2.46,5.09l-1.55.95ZM1290.44,857.68l.87,7.12c.52,4.22.69,10.18-2.26,14.44-.33-.38-1.17-1.01-1.59-1.21,1.81-2.68,2.27-5.86,2.21-8.9-1.02.86-2.08,1.67-3.09,2.41l-.92-1.75c1.02-.63,2.42-1.62,3.93-2.65-.06-.73-.14-1.39-.23-2.09l-1.1-8.92,9.75-1.2c-.31-.67-.68-1.44-.99-2.05l1.95-.69c.43.74.94,1.69,1.26,2.47l9.45-1.16.22,1.81-19.48,2.39ZM1309.71,860.68c-.61.81-1.38,1.61-2.06,2.26,1.16.68,2.43,1.2,3.65,1.47-.34.41-.82,1.12-1.04,1.62-.82-.27-1.68-.58-2.5-1.05l.68,5.53-5.31.65.52,4.22c.12,1-.02,1.47-.76,1.87-.72.37-1.86.51-3.66.73-.18-.51-.54-1.17-.88-1.61,1.37-.11,2.53-.28,2.86-.35.39-.05.46-.14.42-.45l-.51-4.17-5.17.63-.67-5.47c-.66.59-1.41,1.13-2.19,1.68-.34-.44-.97-.98-1.45-1.2,1.23-.77,2.31-1.64,3.21-2.54-.71-.53-1.63-1.07-2.38-1.49l1-1.08c.75.36,1.72.89,2.43,1.39.61-.75,1.17-1.53,1.55-2.31l-5.25.64-.2-1.64,6.28-.77c.32-.83.55-1.71.65-2.51l1.98.04c-.14.72-.35,1.48-.58,2.21l9.56-1.17.2,1.64-5.95.73c.63.74,1.44,1.4,2.31,2,.67-.73,1.43-1.64,1.86-2.29l1.39.76ZM1298.47,872.92c-1.06,1.68-2.56,3.7-3.84,5.01-.4-.26-1.22-.78-1.73-1.03,1.32-1.21,2.75-2.9,3.69-4.37l1.88.39ZM1305.83,864.62l-8.84,1.08.21,1.7,8.84-1.08-.21-1.7ZM1306.19,867.62l-8.84,1.08.21,1.75,8.84-1.08-.21-1.75ZM1305.13,863.33c-1.09-.85-2.09-1.83-2.89-2.89l-2.61.32c-.53,1.19-1.23,2.38-2.17,3.51l7.67-.94ZM1306.92,871.23c1.58,1.13,3.72,2.7,4.83,3.7l-1.43,1.22c-1.05-1-3.15-2.69-4.76-3.87l1.37-1.04Z"/><path d="M1336.47,858.74c-1.16,1.61-2.8,3.19-4.34,4.14-.33-.35-.93-.93-1.36-1.21,1.8-.93,3.74-2.63,4.86-4.29l-4.03.5-.59-4.78,4.7-.58-.17-1.42-5.5.68-.19-1.58,5.5-.68-.21-1.75,1.83-.22.21,1.75,5.22-.64.19,1.58-5.22.64.17,1.42,4.53-.56.59,4.78-4.53.56.13,1.03.66-1.04c1.41.45,3.12,1.25,4.07,1.87l-.77,1.33c-.9-.62-2.55-1.44-3.94-1.97l.44,3.56-1.83.22-.41-3.34ZM1345.66,869.69l11.56-1.42.22,1.78-25.04,3.08-.22-1.78,4.56-.56-.56-4.59,1.97-.24.56,4.59,4.92-.6-.74-6.06-9.62,1.18-.21-1.72,21.43-2.63.21,1.72-9.78,1.2.27,2.17,7.95-.98.2,1.61-7.95.98.28,2.28ZM1333.12,856.28l3-.37-.25-2.03-3,.37.25,2.03ZM1337.71,853.66l.25,2.03,2.75-.34-.25-2.03-2.75.34ZM1353.15,850.46c-.4,2.28-1.15,4.2-2.25,5.83,1.48,1,3.26,1.77,5.32,2.2-.34.41-.81,1.25-.97,1.73-2.09-.5-3.92-1.41-5.44-2.52-1.34,1.49-3.06,2.69-5.04,3.72-.27-.33-.97-1.04-1.38-1.33,2.05-.96,3.75-2.12,5.04-3.55-1.17-1.07-2.14-2.25-2.85-3.43-.44.76-.92,1.49-1.4,2.12-.32-.33-1.13-.93-1.56-1.22,1.61-1.86,2.67-4.65,3.08-7.52l1.94.18c-.17.95-.36,1.88-.65,2.79l7.73-.95.21,1.72-1.78.22ZM1349.47,855.2c.83-1.29,1.43-2.8,1.7-4.5l-4.8.62c.73,1.35,1.77,2.69,3.1,3.88Z"/><path d="M1377.55,843.4c-.22.48-.48.91-.74,1.36,3.67,3.05,7.82,4.85,12.46,6.17-.47.51-.96,1.36-1.19,2.04-1.68-.58-3.28-1.18-4.81-1.92l.23,1.89-13.92,1.71-.17-1.42c-1.29,1-2.61,1.96-3.98,2.77-.43-.51-1.08-1.22-1.72-1.62,5-2.73,9.63-7.02,11.91-11.65l1.92.67ZM1368.56,858.16l17.12-2.1,1.34,10.95-2.14.26-.18-1.45-12.89,1.58.19,1.56-2.08.26-1.36-11.06ZM1383.23,851.03c-2.63-1.2-5.07-2.68-7.43-4.65-1.55,2.31-3.52,4.41-5.69,6.26l13.12-1.61ZM1370.87,859.74l.71,5.75,12.89-1.58-.71-5.75-12.89,1.58Z"/><path d="M1397.78,842.27l-.86.11-.16-1.33,12.2-1.5.16,1.33-9.7,1.19.92,7.53c.12,1,.44,1.3,1.44,1.18l5.86-.72c.69-.09,1.94-.27,2.46-.44.11.44.23.99.36,1.34-.46.2-1.51.35-2.54.48l-6.06.74c-2.17.27-2.93-.4-3.17-2.4l-.92-7.5ZM1413.73,853.12l.15,1.25,6.61-.81,1.14,9.28-1.95.24-.13-1.08-15.95,1.96.13,1.08-1.89.23-1.14-9.28,6.95-.85-.15-1.25-9.78,1.2-.18-1.45,25.23-3.1.18,1.45-9.23,1.13ZM1405.6,846.62l-.02.06c1.36.54,2.9,1.36,3.76,1.93l-.77,1.08c-.77-.55-2.11-1.29-3.33-1.88-.45.93-1.34,1.94-3.04,2.83-.24-.34-.71-.7-1.05-.94,1.98-.89,2.72-1.94,2.97-2.91l-3.47.43-.15-1.2,3.7-.45-.02-.19-.16-1.31-1.7.21c-.28.51-.56.97-.9,1.38-.27-.16-.87-.43-1.22-.53.78-.97,1.38-2.12,1.66-3.28l1.35.17c-.07.32-.17.64-.3,1l5.53-.68.14,1.17-3.14.39.16,1.33.02.17,3.64-.45.15,1.2-3.81.47ZM1419.4,860.75l-.39-3.14-.28.03-3.59.44c-1.97.24-2.51,0-2.69-1.45l-.1-.81-2.97.37c-.14,1.4-1.31,2.64-5.18,3.77-.24-.34-.73-.87-1.07-1.11,3.18-.76,4.26-1.62,4.52-2.45l-4.92.6.7,5.7,15.95-1.96ZM1405.57,860.19l11.56-1.42.15,1.19-11.56,1.42-.15-1.19ZM1410.4,844.81c-.27-.36-.94-.96-1.3-1.14,1.98-1.09,2.26-2.08,2.14-3.06l-.17-1.42,6.61-.81.32,2.58c.06.53.14.66.47.62l1.22-.15c.33-.04.83-.13,1.13-.22.08.39.21.99.31,1.37-.3.12-.76.21-1.21.26l-1.53.19c-1.5.18-1.88-.36-2.07-1.89l-.13-1.06-3.28.4c.16,1.28-.2,2.76-2.07,4.03l7.56-.93.32-.12,1.09.34c-.48,1.58-1.33,2.93-2.4,4.08,1.41.45,2.74.93,3.69,1.32l-.65,1.35c-1.04-.44-2.58-1.04-4.23-1.6-1.41,1.13-3.02,2.04-4.72,2.7-.24-.37-.71-.93-1.05-1.22,1.41-.48,2.79-1.19,4.01-2.02-1.21-.42-2.44-.8-3.52-1.09l.62-1.18c1.28.32,2.75.76,4.21,1.2.73-.68,1.4-1.47,1.86-2.32l-6.98.86-.14-1.17-.1.07ZM1412.06,853.33l-2.92.36.15,1.25,2.92-.36-.15-1.25ZM1414.04,855.62l.1.81c.07.56.22.62,1.05.52l3.17-.39c.25-.03.42-.05.52-.09l-.17-1.42-4.67.57Z"/><path d="M1432.42,847.02c-.48-1.35-1.54-3.56-2.4-5.26l1.49-.77c.91,1.67,1.99,3.84,2.46,5.09l-1.55.95ZM1435.63,839.86l.87,7.12c.52,4.22.69,10.18-2.26,14.44-.33-.38-1.17-1.01-1.59-1.21,1.81-2.68,2.27-5.86,2.21-8.9-1.02.86-2.08,1.67-3.09,2.41l-.92-1.75c1.02-.63,2.42-1.62,3.93-2.65-.06-.73-.14-1.39-.23-2.09l-1.1-8.92,9.75-1.2c-.31-.67-.68-1.44-.99-2.05l1.95-.69c.43.74.94,1.69,1.26,2.47l9.45-1.16.22,1.81-19.48,2.39ZM1454.9,842.85c-.61.81-1.38,1.61-2.07,2.26,1.16.68,2.43,1.2,3.65,1.47-.34.41-.82,1.12-1.04,1.62-.82-.27-1.68-.58-2.5-1.05l.68,5.53-5.31.65.52,4.22c.12,1-.02,1.47-.76,1.87-.72.37-1.86.51-3.66.73-.18-.51-.54-1.17-.88-1.61,1.37-.11,2.53-.28,2.86-.35.39-.05.46-.14.43-.45l-.51-4.17-5.17.63-.67-5.47c-.66.59-1.41,1.13-2.19,1.68-.34-.44-.97-.98-1.45-1.2,1.23-.77,2.31-1.64,3.21-2.54-.71-.53-1.63-1.07-2.38-1.49l1-1.08c.75.36,1.72.89,2.43,1.39.61-.75,1.17-1.53,1.55-2.31l-5.25.64-.2-1.64,6.28-.77c.32-.83.55-1.71.65-2.51l1.98.04c-.14.72-.35,1.48-.58,2.21l9.56-1.17.2,1.64-5.95.73c.63.74,1.44,1.4,2.31,2,.67-.73,1.43-1.64,1.86-2.29l1.39.76ZM1443.65,855.09c-1.06,1.68-2.56,3.7-3.84,5.01-.4-.26-1.22-.78-1.73-1.03,1.32-1.21,2.75-2.9,3.69-4.37l1.88.39ZM1451.01,846.8l-8.84,1.08.21,1.7,8.84-1.08-.21-1.7ZM1451.38,849.8l-8.84,1.08.21,1.75,8.84-1.08-.21-1.75ZM1450.31,845.5c-1.09-.85-2.09-1.83-2.89-2.89l-2.61.32c-.53,1.19-1.23,2.38-2.16,3.51l7.67-.94ZM1452.1,853.4c1.58,1.13,3.72,2.7,4.83,3.7l-1.43,1.22c-1.05-1-3.15-2.69-4.76-3.87l1.37-1.04Z"/><path class="cls-1" d="M919.55,915.17l14.06-3.77c.79-.21,1.59.26,1.8,1.04.21.78-.25,1.59-1.04,1.8-.09.03-.2.04-.29.05l-14.53.88Z"/><path class="cls-1" d="M942.1,911.5c-3.65,2.07-8.07,5.32-10.63,8.41l1.29-6.89-3.41-6.12c3.41,2.12,8.63,3.79,12.75,4.6Z"/><path class="cls-1" d="M959.26,909.35l14.06-3.77c.79-.21,1.59.26,1.8,1.04.21.78-.25,1.59-1.04,1.8-.09.03-.2.04-.29.05l-14.53.88Z"/><path class="cls-1" d="M981.81,905.67c-3.65,2.07-8.07,5.32-10.63,8.41l1.29-6.89-3.41-6.12c3.41,2.12,8.63,3.79,12.75,4.6Z"/><path class="cls-1" d="M997.27,904.15l14.06-3.77c.79-.21,1.59.26,1.8,1.04.21.78-.25,1.59-1.04,1.8-.09.03-.2.04-.29.05l-14.53.88Z"/><path class="cls-1" d="M1019.82,900.48c-3.65,2.07-8.07,5.32-10.63,8.41l1.29-6.89-3.41-6.12c3.41,2.12,8.63,3.79,12.75,4.6Z"/><path d="M73.53,364.73c1.05-.61,1.69-1.64,1.92-3.08.23-1.44.15-3.67-.22-6.68-.03-.24.19-.39.67-.45.48-.06.73.03.76.27.29,2.38.48,4.25.57,5.61l.89,8.23,1.11,8.08c.25,1.42.53,3.32.82,5.7.03.24-.19.39-.67.44-.48.06-.73-.03-.76-.27-.35-2.86-.83-4.98-1.44-6.35-.61-1.38-1.51-2.25-2.68-2.63-1.18-.38-2.95-.42-5.34-.13l-26.68,3.28c-2.46.3-4.22.76-5.27,1.37-1.05.61-1.69,1.64-1.92,3.08-.23,1.44-.15,3.67.22,6.68.03.24-.19.39-.67.45s-.73-.03-.76-.27c-.29-2.38-.48-4.25-.57-5.61l-.89-8.23-1.11-8.08c-.26-1.42-.53-3.32-.82-5.7-.03-.24.19-.39.67-.45s.73.03.76.27c.35,2.86.83,4.98,1.44,6.35.61,1.38,1.5,2.25,2.68,2.63,1.17.38,2.95.42,5.34.13l26.68-3.28c2.46-.3,4.22-.76,5.27-1.37Z"/><path d="M38.43,409.72c1.68-4.03,4.28-7.34,7.79-9.9,3.51-2.57,7.65-4.14,12.42-4.73,4.68-.58,8.98-.04,12.89,1.62,3.91,1.66,7.13,4.24,9.66,7.76,2.53,3.52,4.08,7.66,4.67,12.42.58,4.68.03,8.98-1.62,12.89-1.66,3.91-4.22,7.13-7.7,9.65-3.48,2.52-7.56,4.07-12.25,4.65-4.69.58-9.02.06-13.01-1.55-3.99-1.61-7.26-4.13-9.81-7.56-2.56-3.43-4.12-7.49-4.7-12.18-.58-4.69-.02-9.05,1.66-13.08ZM45.7,433.49c4.1,1.87,9.4,2.41,15.92,1.61,8.02-.99,13.88-3.28,17.59-6.88,3.71-3.6,5.28-7.7,4.72-12.31-.57-4.61-2.97-7.94-7.21-10-4.24-2.06-9.54-2.7-15.89-1.92-7.15.88-12.77,3.14-16.88,6.79-4.11,3.65-5.85,8.01-5.22,13.09.56,4.53,2.88,7.73,6.98,9.6Z"/><path d="M42.93,458.67c.86-1.16,2.17-1.84,3.92-2.05,1.59-.2,2.92.16,4,1.08,1.08.91,1.72,2.21,1.93,3.87.21,1.75-.08,3.15-.87,4.22-.8,1.06-2.03,1.7-3.7,1.9-1.75.21-3.18-.09-4.28-.92-1.11-.83-1.77-2.12-1.99-3.87-.2-1.67.13-3.08.99-4.23Z"/><path d="M63.22,492.99c4.07,3.25,7.57,5.52,10.51,6.81,2.94,1.29,5.8,1.77,8.58,1.42,3.18-.39,5.66-1.66,7.45-3.82,1.79-2.15,2.5-4.74,2.13-7.76-.74-6.04-6.26-9.91-16.54-11.63-.08,0-.14-.15-.18-.46-.09-.71.03-1.05.36-1.01l19.05,2.5c.16-.02.26.13.3.45.03.24,0,.46-.1.68-.09.21-.19.28-.28.21-.33-.04-.77-.03-1.32.04-1.27.16-1.83.83-1.69,2.02.08.63.51,1.83,1.29,3.59,1.43,3.13,2.3,5.96,2.62,8.5.51,4.13-.17,7.52-2.02,10.16-1.85,2.65-4.52,4.18-8.02,4.61-2.94.36-5.94-.24-8.99-1.8-3.05-1.56-6.21-3.79-9.47-6.7-3.26-2.91-7.65-7.16-13.17-12.77-.27-.21-.47-.24-.62-.11-.15.14-.19.41-.14.8,1,8.18,1.85,13.96,2.55,17.34.7,3.38,1.64,5.8,2.83,7.27,1.19,1.47,3.05,2.33,5.58,2.58.16-.02.26.17.31.57.07.55-.02.85-.26.88l-12.74-.37c-.32.04-.63-.02-.93-.19-.3-.17-.47-.41-.51-.72l-4.46-36.33c-.05-.4.17-.75.66-1.05.49-.3.91-.31,1.27-.04,6.57,6.29,11.89,11.05,15.96,14.3Z"/><path d="M59.8,571.94c-.71.09-1.4.11-2.05.07-.65-.04-.98-.14-1-.3-.11-2.16-.34-5.4-.71-9.71l-18.46,2.27c-.87.11-1.47-.14-1.78-.75l-3.56-5.37-.33-.69c-.03-.24.27-.4.91-.47l22.39-2.75c-.45-4.94-1.53-14.4-3.24-28.38-.05-.4.07-.73.36-1.01.29-.28.61-.28.97,0l49.1,29.64c.18.14.29.37.33.68.03.24,0,.48-.09.74-.09.25-.25.39-.49.42l-41.69,5.12,1.56,9.72c.04.32-.7.57-2.2.76ZM59.38,553.74l29.42-3.61-31.63-19.33c-.61-.41-.87-.18-.76.7.81,6.59,1.8,14,2.97,22.24Z"/><path d="M21.05,190.81c2.71,2.17,5.05,3.68,7.01,4.54,1.96.86,3.86,1.18,5.72.95,2.12-.26,3.77-1.11,4.97-2.54,1.19-1.44,1.67-3.16,1.42-5.17-.49-4.02-4.17-6.61-11.03-7.75-.05,0-.09-.1-.12-.31-.06-.48.02-.7.24-.67l12.7,1.66c.11-.01.17.09.2.3.02.16,0,.31-.07.45-.06.14-.12.19-.18.14-.22-.03-.51-.02-.88.03-.85.1-1.22.55-1.12,1.35.05.42.34,1.22.86,2.39.95,2.09,1.54,3.98,1.74,5.67.34,2.75-.11,5.01-1.34,6.77-1.23,1.76-3.02,2.79-5.34,3.07-1.96.24-3.96-.16-5.99-1.2-2.04-1.04-4.14-2.53-6.31-4.46-2.17-1.94-5.1-4.78-8.78-8.51-.18-.14-.32-.16-.41-.07-.1.09-.13.27-.09.54.67,5.45,1.24,9.31,1.7,11.56.46,2.25,1.09,3.87,1.88,4.85.79.98,2.03,1.55,3.72,1.72.11-.01.17.11.21.38.04.37-.01.57-.17.58l-8.49-.25c-.21.03-.42-.02-.62-.12-.2-.11-.32-.27-.34-.48l-2.97-24.22c-.03-.26.11-.5.44-.7.32-.2.61-.21.84-.02,4.38,4.19,7.93,7.37,10.64,9.53Z"/><path d="M15.03,220.89c1.12-2.69,2.85-4.89,5.19-6.6,2.34-1.71,5.1-2.76,8.28-3.15,3.12-.38,5.99-.02,8.6,1.08,2.61,1.1,4.75,2.83,6.44,5.17,1.69,2.35,2.72,5.11,3.11,8.28.38,3.12.02,5.99-1.08,8.6-1.1,2.61-2.82,4.75-5.13,6.43-2.32,1.68-5.04,2.71-8.16,3.1-3.12.38-6.01.04-8.67-1.03-2.66-1.07-4.84-2.75-6.54-5.04-1.7-2.29-2.75-5-3.13-8.12-.38-3.12-.01-6.03,1.11-8.72ZM19.88,236.74c2.73,1.25,6.27,1.61,10.61,1.08,5.35-.66,9.26-2.18,11.73-4.58,2.47-2.4,3.52-5.14,3.14-8.2-.38-3.07-1.98-5.29-4.81-6.66-2.83-1.37-6.36-1.8-10.59-1.28-4.76.58-8.52,2.09-11.25,4.52-2.74,2.43-3.9,5.34-3.48,8.73.37,3.02,1.92,5.15,4.65,6.4Z"/><path d="M29.62,260.61c2.71,2.17,5.05,3.68,7.01,4.54,1.96.86,3.87,1.18,5.72.95,2.12-.26,3.77-1.11,4.97-2.54,1.19-1.44,1.67-3.16,1.42-5.17-.49-4.02-4.17-6.61-11.03-7.75-.05,0-.09-.1-.12-.31-.06-.48.02-.7.24-.67l12.7,1.67c.11-.01.17.09.2.3.02.16,0,.31-.07.45-.06.14-.12.19-.18.14-.22-.03-.51-.02-.88.03-.85.1-1.22.55-1.12,1.35.05.42.34,1.22.86,2.39.95,2.08,1.54,3.97,1.74,5.67.34,2.75-.11,5.01-1.34,6.77-1.23,1.76-3.02,2.79-5.35,3.07-1.96.24-3.96-.16-5.99-1.2-2.04-1.04-4.14-2.53-6.31-4.46-2.17-1.94-5.1-4.77-8.78-8.51-.18-.14-.32-.16-.41-.07-.1.09-.13.27-.1.54.67,5.45,1.24,9.3,1.7,11.56.46,2.25,1.09,3.87,1.88,4.85.79.98,2.03,1.55,3.72,1.72.11-.01.17.11.21.38.05.37-.01.56-.17.58l-8.49-.25c-.21.03-.42-.02-.62-.12-.2-.11-.32-.27-.34-.48l-2.97-24.22c-.03-.26.11-.5.44-.7.32-.2.61-.21.84-.02,4.38,4.19,7.93,7.37,10.64,9.53Z"/><path d="M46.34,285.51l-8.77-.54c.85,7.36.16,12.93-2.06,16.7-2.23,3.76-5.61,5.93-10.17,6.49-3.02.37-5.85-.06-8.5-1.29-2.65-1.24-5.33-3.35-8.03-6.35-2.71-3-5.64-7.07-8.79-12.22v-.08c-.04-.21.06-.4.28-.56.22-.16.4-.14.53.06,4.01,5.96,7.81,10.03,11.41,12.22,3.6,2.19,7.28,3.06,11.04,2.59,4.39-.54,7.63-2.41,9.71-5.62,2.08-3.21,2.79-7.52,2.12-12.92-.03-.27.03-.49.2-.67.17-.18.38-.26.66-.24l14.45.81c.38,0,.61.06.7.16.09.09.19.35.3.77,1.61,6.57,2.72,10.98,3.32,13.21.6,2.24,1.11,3.67,1.53,4.29.42.62,1.05,1.01,1.88,1.18.17.03.25.2.26.49,0,.29-.1.43-.31.4l-6.55-.81c-.66-.13-1.09-.34-1.28-.61-.19-.27-.33-.75-.42-1.44l-2.16-14.97c-.08-.69-.53-1.04-1.34-1.04Z"/><path d="M25.94,317.92c.58-.77,1.45-1.23,2.61-1.37,1.06-.13,1.95.11,2.67.72.72.61,1.15,1.47,1.28,2.58.14,1.16-.05,2.1-.58,2.81-.53.71-1.35,1.13-2.46,1.27-1.16.14-2.12-.06-2.86-.62s-1.18-1.41-1.32-2.58c-.14-1.11.08-2.05.66-2.82Z"/><path d="M85.34,611.5l1.44,11.76-2.17.27-1.13-9.17-6.89.85.96,7.78-2.17.27-.96-7.78-9.14,1.12-.32-2.59,20.37-2.5Z"/><path d="M68.23,640.54l8.04-6.01-.45-3.67-8.64,1.06-.32-2.58,20.37-2.5.78,6.39c.51,4.14-.6,7.3-4.85,7.82-3.17.39-5.28-1.21-6.29-3.91l-8.28,6.32-.36-2.92ZM77.9,630.61l.42,3.42c.39,3.2,1.89,4.79,4.53,4.47,2.7-.33,3.43-2.2,3.03-5.39l-.42-3.42-7.56.93Z"/><path d="M89.39,644.49l.32,2.58-20.37,2.5-.32-2.58,20.37-2.5Z"/><path d="M85.42,680.85l2.17,17.68-11.56,1.42-.27-2.17,1.45-.18-1.65-13.42-1.5.18-.26-2.08,11.62-1.43ZM83.7,683.18l-6.14.75,1.65,13.42,6.14-.75-1.65-13.42ZM97.63,692.75c-2.03,2.99-5.03,6.6-7.16,8.33l-1.47-1.6c.67-.51,1.41-1.19,2.18-1.99-2.84-15.76-3.09-17.36-3.61-18.4.43-.14,1.42-.63,1.95-.92.19.6.89,1.24,1.92,2.05,1.01.89,4.91,3.69,8.62,5.43l-.67,2.14c-3.27-1.83-6.44-3.95-9.04-6.11l2.43,14.09c1.29-1.46,2.56-3.05,3.59-4.53l1.26,1.51Z"/><path d="M85.04,717.29l-1.73.58c-2.21-3.76-4.55-7.85-6.19-10.89l1.91-1.19c.94,1.92,2.35,4.65,3.88,7.51l11.09-1.36-.86-7.03,2.03-.25.86,7.03,6.5-.8.26,2.11-18.81,2.31,1.06,1.98ZM82.45,727c.15,1.25,1.51,1.25,6.84.77-.38.61-.69,1.5-.76,2.1-5.72.48-7.76.22-8.09-2.45l-.46-3.72c-.29-2.39.43-3.18,3.32-3.54l20.04-2.46.26,2.08-6.45.79.95,7.75-2.03.25-.95-7.75-11.59,1.42c-1.39.17-1.62.4-1.49,1.45l.41,3.31Z"/><path d="M92.53,733.94l1.24,10.06-12.03,1.48-.25-2.03.81-.1-.75-6.09-1.03.13-.24-1.95,12.26-1.5ZM95.32,756.62l-12.03,1.48-.25-2.06.81-.1-.75-6.14-1.03.13-.25-2,12.26-1.5,1.25,10.2ZM84.1,743.13l3.14-.39-.75-6.09-3.14.39.75,6.09ZM85.64,755.72l3.14-.39-.75-6.14-3.14.39.75,6.14ZM90.94,736.11l-2.81.34.75,6.09,2.81-.34-.75-6.09ZM92.48,748.65l-2.81.34.75,6.14,2.81-.34-.75-6.14ZM96.7,752.5l-1.85-15.06,10.28-1.26,1.85,15.06-10.28,1.26ZM100.79,749.94l-1.35-11.03-2.58.32,1.35,11.03,2.58-.32ZM104.98,749.42l-1.35-11.03-2.53.31,1.35,11.03,2.53-.31Z"/><path d="M92.96,774.45l-2.33.29,1.22,9.95-1.75.21-1.22-9.95-3.7.45-.25-2.03,3.7-.45-1.21-9.89,1.75-.21,1.21,9.89,2.33-.29-1.39-11.28,1.83-.23,1.39,11.28,7.34-.9-1.3-10.59,1.75-.22,2.88,23.46-1.75.21-1.33-10.84-7.34.9,1.41,11.51-1.83.23-1.41-11.51ZM100.56,766.72l-1.97.24.41,3.36-1.81.22-.41-3.36-2.11.26-.24-1.92,2.11-.26-.49-3.97,1.81-.22.49,3.97,1.97-.24.24,1.92ZM96.1,779.06l2.2-.27-.42-3.45,1.81-.22.42,3.45,1.89-.23.24,1.92-1.89.23.47,3.86-1.81.22-.47-3.86-2.2.27-.24-1.92ZM105.92,766.01l-.77-6.31,1.83-.22.77,6.31,2-.25.25,2-2,.25.4,3.28-1.83.22-.4-3.28-2.11.26-.25-2,2.11-.26ZM107.09,775.51l-.39-3.2,1.83-.22.39,3.2,2-.25.25,2-2,.25.79,6.42-1.83.22-.79-6.42-2.11.26-.25-2,2.11-.26Z"/><path d="M88.63,789.74c2.33,1.07,6.23,2.45,9.54,3.46l-.97,1.75c-3.1-.89-6.81-2.15-9.54-3.23l.97-1.98ZM111.33,805.91l-3.81.47.64,5.2-18.12,2.23-.25-2.06,1.22-.15-1.51-12.28-1.31.16-.24-1.97,18.2-2.24.59,4.78,3.81-.47-.71-5.78,2-.25,2.25,18.32-2,.25-.76-6.2ZM92.84,811.37l7.59-.93-.02-.17-.33-2.67c-.22-1.78.2-2.31,1.95-2.52l3.42-.42-.3-2.47-1,.12c-1.95.24-4.37-.22-6.34-2.92.25-.25.67-.79.92-1.21l-7.39.91,1.51,12.28ZM96.52,800.2l1.13,9.17-1.78.22-1.13-9.17,1.78-.22ZM104.56,797.46l-5.59.69c1.67,2.31,3.51,2.62,5.01,2.43l.94-.12-.37-3ZM100.73,792.46c.62-1.15,1.56-3.35,2.18-4.98l1.67.95c-.57,1.59-1.42,3.81-2.01,5.01l-1.84-.99ZM106.07,809.74l-.42-3.39-3.36.41c-.5.06-.55.15-.47.79l.27,2.22c.03.22.04.36.08.44l3.89-.48ZM111.09,804.02l-.32-2.61-3.81.47.32,2.61,3.81-.47ZM112.07,788.56c-.6,1.54-1.52,3.71-2.14,4.83l-1.82-1.02c.66-1.1,1.69-3.25,2.34-4.83l1.62,1.01Z"/><path d="M115.43,839.6l-2,.25-2.51-20.45-5.2.64c-4.28.53-10.67.89-15.17-1.07.29-.43.78-1.42.95-1.95,4.29,1.87,9.96,1.43,13.97.94l7.2-.88,1.33,10.84c.87-.5,1.86-1.13,2.63-1.79l.74,1.91c-.91.85-2.14,1.67-3.09,2.19l1.15,9.39ZM108.03,830.52l1.1,8.98-1.89.23-1.1-8.98-3.72.46.94,7.64-9.78,1.2-.25-2.06,1.06-.13-1.44-11.73-1.11.14-.25-2,9.84-1.21.74,6.06,8.89-1.09.26,2.08-3.28.4ZM101.18,837.03l-1.44-11.73-4.97.61,1.44,11.73,4.97-.61Z"/><path d="M106.49,185.46c.02.14-.03.22-.15.24-.45.06-1.18.12-2.19.2-1.01.08-1.74.14-2.19.2-.6.07-1.3.18-2.1.33-.8.15-1.43.25-1.88.3-.1.01-.15-.05-.17-.2-.02-.14.02-.22.12-.23.69-.08,1.19-.22,1.49-.42.3-.19.43-.47.39-.83s-.32-.94-.83-1.75l-3.39-5.17-8.65,1.06-1.24,4.07c-.22.75-.3,1.41-.23,1.99.1.83.48,1.43,1.13,1.79.65.36,1.51.47,2.58.34.12-.01.19.05.2.19.02.14-.03.22-.15.24-.43.05-1.05.11-1.87.16-.91.06-1.7.14-2.37.22-.64.08-1.39.19-2.24.35-.76.14-1.38.24-1.88.3-.12.01-.19-.05-.21-.19-.02-.14.03-.22.15-.24.67-.08,1.21-.28,1.63-.6.42-.32.8-.84,1.15-1.57.35-.73.73-1.8,1.17-3.21l5.56-18.24c.04-.08.14-.13.31-.15.17-.02.27,0,.3.07l10.92,16.58c1.04,1.61,1.88,2.7,2.52,3.26.64.56,1.28.8,1.92.73.12-.01.19.05.2.19ZM87.22,178.25l7.83-.96-5.13-7.82-2.69,8.78Z"/><path d="M115.94,183.21c.16.32.43.51.82.59.38.07.98.06,1.79-.04.07,0,.12.06.13.2.02.14,0,.22-.08.23-.76.09-1.37.16-1.83.19l-2.65.29-2.57.35c-.45.08-1.07.17-1.85.26-.07,0-.12-.06-.13-.2-.02-.14,0-.22.08-.23.81-.1,1.39-.23,1.75-.4.35-.16.58-.43.68-.79.1-.36.11-.9.02-1.62l-2.03-16.54c-.09-.71-.22-1.23-.41-1.55-.18-.32-.47-.52-.85-.6-.39-.08-.98-.08-1.79.02-.07,0-.12-.06-.13-.2-.02-.14,0-.22.08-.23l1.86-.19c1.05-.08,1.91-.16,2.58-.24.74-.09,1.63-.22,2.67-.4l1.78-.26c.07,0,.12.06.13.2.02.14,0,.22-.08.23-.79.1-1.36.24-1.71.43-.35.19-.57.46-.66.82-.09.36-.09.9,0,1.62l2.02,16.47c.09.74.22,1.27.38,1.59Z"/><path d="M139.98,180.26c.16.32.43.52.82.59.38.08.98.06,1.79-.04.07,0,.12.06.13.2.02.14,0,.22-.08.23-.76.09-1.37.16-1.83.19l-2.65.29-2.57.35c-.45.08-1.07.17-1.85.26-.07,0-.12-.06-.13-.2-.02-.14,0-.22.08-.23.81-.1,1.39-.23,1.75-.4.35-.16.58-.43.68-.79.1-.36.11-.9.02-1.62l-2.03-16.54c-.09-.71-.22-1.23-.41-1.55-.18-.32-.47-.52-.85-.6-.39-.09-.98-.08-1.79.02-.07,0-.12-.06-.13-.2-.02-.14,0-.22.08-.23l1.86-.19c1.05-.08,1.91-.16,2.58-.24.74-.09,1.63-.22,2.67-.4l1.78-.25c.07,0,.12.06.13.2.02.14,0,.22-.08.23-.79.1-1.35.24-1.71.43-.35.19-.57.46-.66.82-.09.36-.09.9,0,1.62l2.02,16.47c.09.74.22,1.27.38,1.59Z"/><path d="M169.05,155.55c.02.14,0,.22-.05.22-.95.12-1.65.55-2.09,1.29-.44.74-.58,1.75-.43,3.01l2.27,18.47c0,.07-.05.13-.16.17-.12.04-.2.04-.25,0l-19.15-17.42,1.79,14.54c.15,1.26.52,2.2,1.11,2.8.58.61,1.35.85,2.3.73.05,0,.08.06.1.21.02.14,0,.22-.04.22-.64.08-1.13.13-1.47.14l-1.9.2-2.1.29c-.38.07-.92.15-1.64.24-.07,0-.12-.06-.13-.2-.02-.14,0-.22.08-.23,1.02-.12,1.77-.56,2.25-1.29.48-.73.64-1.73.48-3l-1.92-15.65c-.75-.63-1.42-1.06-1.99-1.28-.57-.22-1.14-.3-1.71-.23-.05,0-.08-.06-.1-.21-.02-.14,0-.22.05-.22l1.43-.14c.31-.01.75-.06,1.33-.13l2.28-.32c.28-.06.63-.11,1.03-.16.19-.02.34,0,.45.09.11.08.27.26.5.52l1,1.04,14.72,13.57-1.55-12.65c-.15-1.26-.52-2.2-1.11-2.82-.58-.62-1.34-.87-2.27-.75-.05,0-.08-.06-.1-.21-.02-.14,0-.22.04-.22l1.47-.14c.77-.05,1.4-.1,1.9-.16.48-.06,1.12-.16,1.92-.31l1.57-.23s.08.06.1.21Z"/><path d="M210.29,172.72c.02.14,0,.22-.08.23-.81.1-1.47.17-1.97.21l-2.61.28-3.03.41c-.43.08-1,.16-1.71.25-.07,0-.12-.06-.13-.2-.02-.14,0-.22.08-.23.9-.11,1.55-.25,1.94-.42.39-.17.64-.43.74-.78.1-.35.11-.9.02-1.63l-1.01-8.25-12.26,1.5,1.01,8.25c.09.71.22,1.24.41,1.56.19.33.49.53.93.59.43.07,1.1.05,2-.06.05,0,.08.06.1.21.02.14,0,.22-.04.22-.81.1-1.44.17-1.9.2l-2.97.33-2.6.36c-.45.08-1.08.17-1.89.27-.05,0-.08-.06-.1-.21-.02-.14,0-.22.05-.22.86-.11,1.48-.24,1.87-.41.39-.17.64-.43.74-.8.1-.36.11-.9.02-1.62l-2.03-16.54c-.09-.71-.22-1.23-.41-1.55-.18-.32-.49-.51-.91-.59-.42-.08-1.05-.07-1.88.03-.05,0-.08-.06-.1-.21-.02-.14,0-.22.04-.22l1.9-.2c1.1-.09,1.96-.17,2.58-.24.83-.1,1.82-.25,2.96-.44l1.89-.27s.08.06.1.21c.02.14,0,.22-.04.22-.88.11-1.52.26-1.92.45-.4.19-.66.47-.77.84-.11.37-.12.9-.04,1.62l.89,7.29,12.26-1.5-.9-7.29c-.09-.72-.22-1.24-.41-1.56-.19-.33-.5-.54-.93-.63-.43-.09-1.09-.08-1.97.02-.07,0-.12-.06-.13-.2-.02-.14,0-.22.08-.23l1.72-.17c1.15-.09,2.17-.19,3.05-.3.64-.08,1.51-.21,2.6-.39l1.96-.28c.07,0,.12.06.13.2.02.14,0,.22-.08.23-.86.11-1.47.25-1.85.43-.38.18-.62.44-.72.79-.1.35-.11.88-.02,1.6l2.03,16.54c.09.71.22,1.24.41,1.56s.48.53.89.6c.41.07,1.04.05,1.9-.05.07,0,.12.06.13.2Z"/><path d="M230.1,164.77c.07,0,.14,0,.2.03.06.03.1.05.1.08-.02,1.84.07,3.51.25,5.01.02.19,0,.33-.06.42-.06.09-.2.15-.41.18l-15.51,1.9c-.07,0-.12-.06-.13-.2-.02-.14,0-.22.08-.23.81-.1,1.39-.23,1.75-.4.35-.16.58-.43.67-.79.09-.36.09-.9,0-1.61l-2.03-16.54c-.09-.71-.22-1.23-.39-1.55-.17-.32-.46-.52-.85-.6-.4-.08-.99-.08-1.77.02-.07,0-.12-.06-.13-.2-.02-.14,0-.22.08-.23l14.86-1.83c.24-.03.37.06.4.28l.64,4.64s-.06.09-.18.13c-.13.04-.21.03-.24-.04-.91-2.65-2.73-3.8-5.47-3.46l-1.43.18c-.86.11-1.45.34-1.76.69-.32.35-.43.9-.34,1.64l.89,7.29,3.43-.42c2.62-.32,3.82-1.36,3.61-3.13,0-.07.05-.12.18-.13.13-.02.2.01.21.08l.35,3.11.24,1.68c.14.76.24,1.37.3,1.85,0,.05-.06.08-.21.1-.14.02-.22,0-.22-.04-.25-2.05-1.71-2.91-4.38-2.58l-3.39.42,1,8.11c.1.79.31,1.32.65,1.59.34.27.88.36,1.65.27l1.75-.21c3.19-.39,5.03-2.19,5.5-5.39,0-.05.04-.08.13-.09Z"/><path d="M260.07,166.6c.02.14-.03.22-.15.24-.45.06-1.18.12-2.19.2-1.01.08-1.74.14-2.19.2-.6.07-1.3.18-2.1.33-.8.15-1.43.25-1.88.3-.1.01-.15-.05-.17-.2-.02-.14.02-.22.12-.23.69-.08,1.19-.22,1.49-.42.3-.19.43-.47.39-.83s-.32-.94-.83-1.75l-3.39-5.17-8.65,1.06-1.24,4.07c-.22.75-.3,1.42-.23,1.99.1.83.48,1.43,1.13,1.79.65.36,1.51.47,2.58.34.12-.01.19.05.21.19.02.14-.03.22-.15.24-.43.05-1.05.11-1.87.16-.91.06-1.7.14-2.37.22-.64.08-1.39.19-2.24.35-.76.14-1.38.24-1.88.3-.12.01-.19-.05-.2-.19-.02-.14.03-.22.15-.24.67-.08,1.21-.28,1.63-.6.42-.32.8-.84,1.15-1.57.35-.73.73-1.8,1.17-3.21l5.56-18.24c.04-.08.14-.13.31-.15.17-.02.27,0,.3.07l10.92,16.58c1.04,1.61,1.89,2.7,2.52,3.26.64.56,1.28.8,1.92.73.12-.01.19.05.21.19ZM240.79,159.4l7.83-.96-5.13-7.82-2.69,8.78Z"/><path d="M268.62,162.69c.08.64.19,1.1.33,1.37.14.27.37.44.7.5.32.06.83.04,1.52-.04l2.14-.26c1.69-.21,3.06-.85,4.11-1.94,1.05-1.08,1.67-2.45,1.86-4.09.01-.07.08-.11.2-.12.12,0,.19.03.19.1.06,2.27.18,4.14.36,5.61.02.19,0,.33-.06.42-.06.09-.2.15-.41.18l-16.72,2.05s-.08-.06-.1-.21c-.02-.14,0-.22.04-.22.81-.1,1.39-.23,1.75-.4.35-.16.58-.43.66-.79s.09-.9,0-1.61l-2.03-16.54c-.09-.71-.22-1.23-.39-1.55-.17-.32-.46-.52-.85-.6-.4-.08-.99-.08-1.77.02-.05,0-.08-.06-.1-.21-.02-.14,0-.22.04-.22l1.83-.19c1.05-.08,1.91-.16,2.58-.24.71-.09,1.59-.22,2.64-.4l1.78-.26c.07,0,.12.06.13.2.02.14,0,.22-.08.23-.79.1-1.36.23-1.71.41-.35.18-.57.45-.66.81-.09.36-.09.9,0,1.62l2.01,16.37Z"/><path d="M284.28,143.3c-.83,1.01-1.39,2.45-1.66,4.32,0,.05-.06.08-.19.1-.13.02-.2-.01-.21-.08-.02-.94-.06-2.15-.12-3.63-.06-1.48-.14-2.59-.23-3.33-.01-.12.04-.19.17-.2.13-.02.2.03.22.15.06.52.76.7,2.1.54,2.06-.18,4.46-.44,7.19-.77,1.41-.17,2.89-.38,4.46-.62l2.43-.33c.9-.11,1.56-.25,1.96-.42.4-.17.64-.44.72-.81.01-.1.08-.15.2-.17s.18.03.2.12c.02.75.08,1.88.2,3.39.11,1.51.23,2.73.34,3.66,0,.07-.05.12-.18.13-.13.02-.21-.01-.25-.08-.46-1.8-1.19-3.09-2.18-3.85-.99-.76-2.23-1.05-3.73-.87-.67.08-1.15.2-1.46.36-.31.16-.5.39-.57.7-.07.31-.07.79.01,1.43l2.02,16.47c.09.74.23,1.27.41,1.58.18.32.5.51.94.57.44.07,1.13.04,2.06-.07.07,0,.12.06.13.2.02.14,0,.22-.08.23-.83.1-1.49.17-1.97.21l-2.93.32-2.78.38c-.5.09-1.19.18-2.07.29-.05,0-.08-.06-.1-.21-.02-.14,0-.22.04-.22.93-.11,1.61-.26,2.03-.43.43-.17.7-.44.81-.81.11-.37.12-.91.04-1.62l-2.03-16.54c-.08-.62-.19-1.06-.35-1.33-.15-.27-.39-.45-.72-.53-.32-.08-.81-.08-1.45,0-1.45.18-2.6.77-3.43,1.78Z"/><path d="M333.6,157.57c.02.14,0,.22-.08.23-.81.1-1.47.17-1.97.21l-2.61.28-3.03.41c-.43.08-1,.16-1.71.25-.07,0-.12-.06-.13-.2-.02-.14,0-.22.08-.23.9-.11,1.55-.25,1.94-.42.39-.17.64-.43.74-.78.1-.35.11-.9.02-1.63l-1.01-8.25-12.26,1.5,1.01,8.25c.09.71.22,1.24.41,1.56.19.33.49.53.93.59.43.07,1.1.05,2-.06.05,0,.08.06.1.21.02.14,0,.22-.04.22-.81.1-1.44.17-1.9.2l-2.97.33-2.6.36c-.45.08-1.08.17-1.89.27-.05,0-.08-.06-.1-.21-.02-.14,0-.22.05-.22.86-.11,1.48-.24,1.87-.41.39-.17.64-.43.74-.8.1-.36.11-.9.02-1.62l-2.03-16.54c-.09-.71-.22-1.23-.41-1.55-.18-.32-.49-.51-.91-.59-.42-.08-1.05-.07-1.88.03-.05,0-.08-.06-.1-.21-.02-.14,0-.22.04-.22l1.9-.2c1.1-.09,1.96-.17,2.58-.24.83-.1,1.82-.25,2.96-.44l1.89-.27s.08.06.1.21c.02.14,0,.22-.04.22-.88.11-1.52.26-1.92.45-.4.19-.66.47-.77.84-.11.37-.12.9-.04,1.62l.89,7.29,12.26-1.5-.9-7.29c-.09-.72-.22-1.24-.41-1.56-.19-.33-.5-.54-.93-.63-.43-.09-1.09-.08-1.97.02-.07,0-.12-.06-.13-.2-.02-.14,0-.22.08-.23l1.72-.17c1.15-.09,2.17-.19,3.05-.3.64-.08,1.51-.21,2.6-.39l1.96-.28c.07,0,.12.06.13.2.02.14,0,.22-.08.23-.86.11-1.47.25-1.85.43-.38.18-.62.44-.72.79-.1.35-.11.88-.02,1.6l2.03,16.54c.09.71.22,1.24.41,1.56s.48.53.89.6c.41.07,1.04.05,1.9-.05.07,0,.12.06.13.2Z"/><path d="M355.31,133.18c.2.07.33.15.39.23.06.08.13.26.21.54l1.01,4.66c0,.07-.05.13-.16.17-.12.04-.2.01-.26-.08-.86-1.88-1.96-3.25-3.32-4.13-1.35-.87-2.93-1.2-4.74-.98-1.74.21-3.24.84-4.5,1.88-1.26,1.04-2.18,2.42-2.74,4.14-.56,1.73-.71,3.67-.44,5.84.26,2.14.9,4.01,1.92,5.59,1.02,1.58,2.28,2.75,3.8,3.5,1.52.76,3.16,1.03,4.92.81,1.74-.21,3.13-.85,4.17-1.91,1.04-1.06,1.88-2.64,2.52-4.75.01-.08.08-.11.21-.1.12,0,.19.04.19.09l.06,4.34c.01.29,0,.47-.06.55-.05.08-.17.18-.34.3-2.04,1.14-4.26,1.86-6.66,2.16-2.55.31-4.88.11-7-.61-2.12-.72-3.85-1.89-5.18-3.5s-2.14-3.55-2.42-5.82c-.27-2.24.06-4.31,1.01-6.22.95-1.9,2.38-3.48,4.28-4.71,1.9-1.24,4.11-2.01,6.61-2.32,2.64-.33,4.82-.22,6.53.32Z"/><path d="M388.24,150.87c.02.14-.03.22-.15.24-.45.06-1.18.12-2.19.2-1.01.08-1.74.14-2.19.2-.6.07-1.3.18-2.1.33-.8.15-1.43.25-1.88.3-.1.01-.15-.05-.17-.2-.02-.14.02-.22.12-.23.69-.08,1.19-.22,1.49-.42.3-.2.43-.47.39-.83s-.32-.94-.83-1.75l-3.39-5.17-8.65,1.06-1.24,4.07c-.22.75-.3,1.41-.23,1.99.1.83.48,1.43,1.13,1.79s1.51.47,2.58.34c.12-.01.19.05.2.19.02.14-.03.22-.15.24-.43.05-1.05.11-1.87.16-.91.06-1.7.14-2.37.22-.64.08-1.39.2-2.24.35-.76.14-1.39.24-1.89.3-.12.01-.19-.05-.2-.19-.02-.14.03-.22.15-.24.67-.08,1.21-.28,1.63-.6.42-.32.8-.84,1.15-1.57.35-.73.73-1.8,1.17-3.21l5.56-18.24c.04-.08.14-.13.31-.15.17-.02.27,0,.3.07l10.92,16.58c1.04,1.61,1.89,2.7,2.52,3.26.64.56,1.28.8,1.92.73.12-.01.19.05.21.19ZM368.96,143.66l7.83-.96-5.13-7.82-2.69,8.78Z"/><path d="M414.93,147.59c.02.14,0,.22-.08.23l-5.75.71c-.55.07-1.68-.76-3.41-2.48-1.72-1.72-3.86-4.17-6.4-7.34-.52.11-.92.19-1.21.22-.52.06-1.15.12-1.87.16l.98,7.97c.09.74.22,1.27.39,1.58.17.32.45.51.83.59.38.07.98.06,1.79-.04.05,0,.08.06.1.21.02.14,0,.22-.04.22-.79.1-1.4.16-1.83.19l-2.65.29-2.57.35c-.45.08-1.07.17-1.85.26-.07,0-.12-.06-.13-.2-.02-.14,0-.22.08-.23.81-.1,1.39-.23,1.75-.4.35-.16.58-.43.68-.79s.11-.9.02-1.62l-2.03-16.54c-.09-.71-.22-1.23-.39-1.55-.17-.32-.46-.52-.85-.6-.4-.08-.99-.08-1.78.02-.05,0-.08-.06-.1-.21-.02-.14,0-.22.04-.22l1.86-.19c1.05-.08,1.9-.16,2.55-.24.79-.1,1.64-.24,2.56-.42.31-.06.68-.13,1.12-.21s.93-.15,1.48-.22c2.07-.25,3.72-.04,4.96.63,1.23.67,1.94,1.73,2.11,3.19.16,1.31-.06,2.53-.66,3.67-.6,1.14-1.47,2.09-2.6,2.86,2.31,2.64,4.22,4.69,5.72,6.15,1.51,1.46,2.81,2.49,3.92,3.09,1.1.6,2.14.84,3.12.72.07,0,.12.06.13.2ZM398.19,138c1.55-.19,2.61-.71,3.18-1.57.57-.86.75-2.14.54-3.86-.24-1.93-.73-3.23-1.48-3.92-.75-.68-1.74-.95-2.98-.79-.93.11-1.57.37-1.92.76s-.47,1.04-.36,1.95l.93,7.54c.58.03,1.28-.01,2.09-.11Z"/><path d="M433.23,139.83c.07,0,.14,0,.2.03.06.03.1.05.1.08-.02,1.84.07,3.51.25,5.01.02.19,0,.33-.06.42-.06.09-.2.15-.41.18l-15.51,1.9c-.07,0-.12-.06-.13-.2-.02-.14,0-.22.08-.23.81-.1,1.39-.23,1.75-.4.35-.16.58-.43.67-.79.09-.36.09-.9,0-1.61l-2.03-16.54c-.09-.71-.22-1.23-.39-1.55-.17-.32-.46-.52-.85-.6-.4-.08-.99-.08-1.77.02-.07,0-.12-.06-.13-.2-.02-.14,0-.22.08-.23l14.86-1.83c.24-.03.37.07.4.28l.64,4.64s-.06.09-.18.13c-.13.04-.21.03-.24-.04-.91-2.65-2.73-3.8-5.47-3.46l-1.43.18c-.86.1-1.45.34-1.76.69-.32.35-.43.9-.34,1.64l.89,7.29,3.43-.42c2.62-.32,3.82-1.36,3.61-3.13,0-.07.05-.12.18-.13s.2.01.21.08l.35,3.11.24,1.67c.14.76.24,1.37.3,1.85,0,.05-.06.08-.21.1-.14.02-.22,0-.22-.04-.25-2.05-1.71-2.91-4.38-2.58l-3.39.42,1,8.11c.1.79.31,1.32.65,1.59.34.27.88.36,1.65.27l1.75-.21c3.19-.39,5.03-2.19,5.5-5.39,0-.05.04-.08.13-.09Z"/><path d="M455.6,141.51c.16.32.43.52.82.59.38.08.98.06,1.79-.04.07,0,.12.06.13.2.02.14,0,.22-.08.23-.76.09-1.37.16-1.83.19l-2.65.29-2.57.35c-.45.08-1.07.17-1.85.26-.07,0-.12-.06-.13-.2-.02-.14,0-.22.08-.23.81-.1,1.39-.23,1.75-.4.35-.16.58-.43.68-.79.1-.36.11-.9.02-1.62l-2.03-16.54c-.09-.71-.22-1.23-.41-1.55s-.47-.52-.85-.6c-.39-.08-.98-.08-1.79.02-.07,0-.12-.06-.13-.2-.02-.14,0-.22.08-.23l1.86-.19c1.05-.08,1.91-.16,2.58-.24.74-.09,1.63-.22,2.67-.4l1.78-.25c.07,0,.12.06.13.2.02.14,0,.22-.08.23-.79.1-1.35.24-1.71.43-.35.19-.57.46-.66.82-.09.36-.09.9,0,1.62l2.02,16.47c.09.74.22,1.27.38,1.59Z"/><path d="M484.67,116.79c.02.14,0,.22-.05.22-.95.12-1.65.55-2.09,1.29-.44.74-.58,1.75-.43,3.01l2.27,18.47c0,.07-.05.13-.16.17-.12.04-.2.04-.25,0l-19.15-17.42,1.79,14.54c.15,1.26.52,2.2,1.11,2.8.58.61,1.35.85,2.3.73.05,0,.08.06.1.21.02.14,0,.22-.04.22-.64.08-1.13.13-1.47.14l-1.9.2-2.1.29c-.38.07-.92.15-1.64.24-.07,0-.12-.06-.13-.2-.02-.14,0-.22.08-.23,1.02-.12,1.78-.56,2.25-1.29.48-.74.64-1.74.48-3l-1.92-15.65c-.75-.63-1.42-1.06-1.99-1.28-.57-.22-1.14-.3-1.71-.23-.05,0-.08-.06-.1-.21-.02-.14,0-.22.05-.22l1.43-.14c.31-.01.75-.06,1.33-.13l2.28-.32c.28-.06.63-.11,1.03-.16.19-.02.34,0,.45.09.11.08.27.26.5.52l1,1.04,14.72,13.57-1.55-12.65c-.15-1.26-.52-2.2-1.11-2.82-.58-.62-1.34-.87-2.27-.75-.05,0-.08-.06-.1-.21-.02-.14,0-.22.04-.22l1.47-.14c.77-.05,1.4-.1,1.9-.16.48-.06,1.12-.16,1.92-.31l1.57-.23s.08.06.1.21Z"/><path d="M512.61,113.36c.02.14,0,.22-.05.22-.95.12-1.65.55-2.09,1.29-.44.74-.58,1.75-.43,3.01l2.27,18.47c0,.07-.05.13-.16.17-.12.04-.2.04-.25,0l-19.15-17.42,1.79,14.54c.15,1.26.52,2.2,1.11,2.8.58.61,1.35.85,2.3.73.05,0,.08.06.1.21.02.14,0,.22-.05.22-.64.08-1.13.13-1.47.14l-1.9.2-2.1.29c-.38.07-.92.15-1.64.24-.07,0-.12-.06-.13-.2-.02-.14,0-.22.08-.23,1.02-.13,1.78-.56,2.25-1.29.48-.73.64-1.73.48-3l-1.92-15.65c-.75-.63-1.42-1.06-1.99-1.28-.57-.22-1.14-.3-1.71-.23-.05,0-.08-.06-.1-.21-.02-.14,0-.22.04-.22l1.43-.14c.31-.01.75-.06,1.33-.13l2.28-.32c.28-.06.63-.11,1.03-.16.19-.02.34,0,.45.09.11.08.27.26.5.52l1,1.04,14.72,13.57-1.55-12.65c-.16-1.26-.52-2.2-1.11-2.82-.58-.62-1.34-.87-2.27-.75-.05,0-.08-.06-.1-.21-.02-.14,0-.22.04-.22l1.47-.14c.77-.05,1.4-.1,1.9-.16.48-.06,1.12-.16,1.92-.31l1.57-.23s.08.06.1.21Z"/><path d="M524.6,133.2c-1.85-.82-3.36-2.07-4.52-3.72-1.16-1.66-1.87-3.54-2.12-5.63-.3-2.45.06-4.63,1.08-6.53,1.02-1.9,2.45-3.41,4.29-4.53,1.83-1.12,3.76-1.8,5.79-2.05,2.26-.28,4.32,0,6.16.86,1.85.85,3.33,2.09,4.46,3.71,1.13,1.63,1.82,3.42,2.06,5.37.27,2.17-.06,4.23-.98,6.18-.92,1.95-2.28,3.57-4.06,4.85-1.79,1.28-3.8,2.06-6.04,2.34-2.22.27-4.25,0-6.1-.83ZM535.51,131.39c1.04-.91,1.79-2.16,2.26-3.74.47-1.58.58-3.41.32-5.48-.27-2.19-.87-4.11-1.81-5.76-.94-1.65-2.14-2.88-3.61-3.69-1.47-.81-3.1-1.11-4.91-.88-2.31.28-4,1.33-5.07,3.14s-1.43,4.18-1.07,7.11c.28,2.26.9,4.27,1.88,6.01s2.19,3.05,3.64,3.92,3.01,1.21,4.68,1c1.43-.18,2.66-.72,3.7-1.63Z"/><path d="M567.92,106.57c.02.14,0,.22-.08.23-.86.11-1.6.52-2.24,1.26-.64.73-1.11,1.73-1.41,3l-4.71,18.97c-.01.1-.14.16-.38.19-.24.03-.38,0-.41-.1l-11.41-18.22c-.54-.83-1.04-1.42-1.52-1.77-.48-.35-1.02-.49-1.61-.42-.07,0-.12-.06-.13-.2-.02-.14,0-.22.08-.23l.93-.08c.53-.02,1.13-.07,1.8-.15,1.67-.2,3.17-.41,4.49-.62.38-.07.87-.14,1.46-.22.07,0,.12.06.13.2.02.14,0,.22-.08.23-1.5.18-2.19.8-2.06,1.85.05.41.22.84.52,1.31l8.39,13.41,3.55-14.18c.14-.6.19-1.12.13-1.58-.08-.67-.37-1.15-.85-1.46-.49-.3-1.17-.4-2.05-.29-.07,0-.12-.06-.13-.2-.02-.14,0-.22.08-.23l1.72-.17c.91-.06,1.75-.14,2.51-.24.45-.05,1.01-.15,1.67-.28l1.46-.22c.07,0,.12.06.13.2Z"/><path d="M597.73,125.14c.02.14-.03.22-.15.24-.45.06-1.18.12-2.19.2-1.01.08-1.74.14-2.19.2-.6.07-1.3.18-2.1.33-.8.15-1.43.25-1.89.31-.1.01-.15-.05-.17-.2-.02-.14.02-.22.12-.23.69-.08,1.19-.22,1.49-.42.3-.2.43-.47.39-.83s-.32-.94-.83-1.75l-3.39-5.17-8.65,1.06-1.24,4.07c-.22.75-.3,1.41-.23,1.99.1.83.48,1.43,1.13,1.79s1.51.47,2.58.34c.12-.01.19.05.21.19.02.14-.03.22-.15.24-.43.05-1.05.11-1.87.16-.91.06-1.7.14-2.37.22-.64.08-1.39.2-2.24.35-.76.14-1.38.24-1.89.31-.12.01-.19-.05-.2-.19-.02-.14.03-.22.15-.24.67-.08,1.21-.28,1.63-.6.42-.32.8-.84,1.15-1.57.35-.73.73-1.8,1.17-3.21l5.56-18.24c.04-.08.14-.13.31-.15.17-.02.27,0,.3.07l10.92,16.58c1.04,1.61,1.88,2.7,2.52,3.26.64.56,1.28.8,1.92.73.12-.01.19.05.21.19ZM578.45,117.94l7.83-.96-5.13-7.82-2.69,8.78Z"/><path d="M600.83,104.43c-.83,1.01-1.39,2.45-1.66,4.32,0,.05-.06.08-.19.1-.13.02-.2-.01-.21-.08-.02-.94-.06-2.15-.12-3.63-.06-1.48-.14-2.59-.23-3.33-.01-.12.04-.19.17-.2.13-.02.2.03.22.15.06.52.76.7,2.1.54,2.06-.18,4.46-.44,7.2-.77,1.41-.17,2.89-.38,4.46-.62l2.42-.33c.91-.11,1.56-.25,1.96-.42.4-.17.64-.44.72-.81.01-.1.08-.15.2-.17.12-.01.18.03.2.12.02.75.09,1.88.2,3.39.11,1.51.23,2.73.34,3.66,0,.07-.05.12-.18.13-.13.02-.21-.01-.25-.08-.46-1.8-1.19-3.09-2.18-3.85-.99-.76-2.23-1.05-3.73-.87-.67.08-1.15.2-1.46.36-.31.16-.5.39-.57.71-.07.31-.07.79.01,1.43l2.02,16.47c.09.74.23,1.27.41,1.58.18.32.5.51.94.57.44.07,1.13.04,2.06-.07.07,0,.12.06.13.2.02.14,0,.22-.08.23-.83.1-1.49.17-1.97.21l-2.93.32-2.78.38c-.5.09-1.19.18-2.07.29-.05,0-.08-.06-.1-.21-.02-.14,0-.22.05-.22.93-.11,1.61-.26,2.03-.43.43-.17.69-.44.81-.81.11-.37.12-.9.04-1.62l-2.03-16.54c-.08-.62-.19-1.07-.35-1.34-.15-.27-.39-.45-.72-.53-.32-.08-.81-.08-1.45,0-1.45.18-2.6.77-3.43,1.78Z"/><path d="M631.83,119.87c.16.32.43.51.82.59.38.07.98.06,1.79-.04.07,0,.12.06.13.2.02.14,0,.22-.08.23-.76.09-1.37.16-1.83.19l-2.65.29-2.57.35c-.45.08-1.07.17-1.85.26-.07,0-.12-.06-.13-.2-.02-.14,0-.22.08-.23.81-.1,1.39-.23,1.75-.4.35-.16.58-.43.68-.79s.11-.9.02-1.62l-2.03-16.54c-.09-.71-.22-1.23-.41-1.55-.18-.32-.47-.52-.85-.6-.39-.09-.98-.08-1.79.02-.07,0-.12-.06-.13-.2-.02-.14,0-.22.08-.23l1.86-.19c1.05-.08,1.91-.16,2.58-.24.74-.09,1.63-.22,2.67-.4l1.78-.26c.07,0,.12.06.13.2.02.14,0,.22-.08.23-.79.1-1.35.24-1.71.43-.35.19-.57.46-.66.83-.09.36-.09.9,0,1.61l2.02,16.47c.09.74.22,1.27.38,1.59Z"/><path d="M644.94,118.42c-1.85-.82-3.36-2.07-4.52-3.72-1.16-1.66-1.87-3.54-2.12-5.63-.3-2.45.06-4.63,1.08-6.53,1.02-1.9,2.45-3.41,4.29-4.53,1.83-1.12,3.76-1.8,5.79-2.05,2.26-.28,4.32,0,6.16.86,1.84.85,3.33,2.09,4.46,3.71,1.13,1.63,1.82,3.42,2.06,5.37.27,2.17-.06,4.23-.98,6.18s-2.28,3.57-4.06,4.85c-1.79,1.28-3.8,2.06-6.04,2.34-2.22.27-4.25,0-6.1-.83ZM655.86,116.61c1.04-.91,1.79-2.16,2.26-3.74.47-1.58.58-3.41.32-5.48-.27-2.19-.87-4.11-1.81-5.76-.94-1.65-2.14-2.88-3.61-3.69-1.47-.81-3.1-1.11-4.91-.88-2.31.28-4,1.33-5.07,3.14s-1.43,4.18-1.07,7.11c.28,2.26.9,4.27,1.88,6.01s2.19,3.05,3.64,3.92c1.45.87,3.01,1.21,4.68,1,1.43-.18,2.66-.72,3.7-1.63Z"/><path d="M690.05,91.57c.02.14,0,.22-.04.22-.95.12-1.65.55-2.09,1.29-.44.74-.58,1.75-.43,3.01l2.27,18.47c0,.07-.04.13-.16.17-.12.04-.2.04-.25,0l-19.15-17.42,1.79,14.54c.15,1.26.52,2.2,1.11,2.8.58.61,1.35.85,2.3.73.05,0,.08.06.1.21.02.14,0,.22-.05.22-.64.08-1.13.13-1.47.14l-1.9.2-2.1.29c-.38.07-.92.15-1.64.24-.07,0-.12-.06-.13-.2s0-.22.08-.23c1.02-.13,1.78-.56,2.25-1.29.48-.73.64-1.73.48-3l-1.92-15.65c-.76-.63-1.42-1.06-1.99-1.28-.57-.22-1.14-.3-1.71-.23-.05,0-.08-.06-.1-.21-.02-.14,0-.22.04-.22l1.43-.14c.31-.01.75-.06,1.33-.13l2.28-.32c.28-.06.63-.11,1.03-.16.19-.02.34,0,.45.09.11.08.27.26.5.52l1,1.04,14.72,13.57-1.55-12.65c-.16-1.26-.52-2.2-1.11-2.82-.58-.62-1.34-.87-2.27-.75-.05,0-.08-.06-.1-.21-.02-.14,0-.22.04-.22l1.47-.14c.77-.04,1.4-.1,1.9-.16.48-.06,1.12-.16,1.92-.31l1.57-.23s.08.06.1.21Z"/><path d="M730.72,108.81c.02.14-.03.22-.15.24-.45.06-1.18.12-2.19.2-1.01.08-1.74.14-2.19.2-.6.07-1.3.18-2.1.33-.8.15-1.43.25-1.89.3-.1.01-.15-.05-.17-.2-.02-.14.02-.22.12-.23.69-.08,1.19-.22,1.49-.42.3-.19.43-.47.39-.83s-.32-.94-.83-1.75l-3.39-5.17-8.65,1.06-1.24,4.07c-.22.75-.3,1.42-.23,1.99.1.83.48,1.43,1.13,1.78.65.36,1.51.47,2.58.34.12-.01.19.05.21.19.02.14-.03.22-.15.24-.43.05-1.05.11-1.87.16-.91.06-1.7.14-2.37.22-.64.08-1.39.19-2.24.35-.76.14-1.38.24-1.88.3-.12.01-.19-.05-.21-.19-.02-.14.03-.22.15-.24.67-.08,1.21-.28,1.63-.6.42-.32.8-.84,1.15-1.57.34-.73.73-1.8,1.17-3.21l5.56-18.24c.04-.08.14-.13.31-.15.17-.02.27,0,.3.07l10.92,16.58c1.04,1.61,1.89,2.7,2.52,3.26.64.56,1.28.8,1.92.73.12-.01.19.05.2.19ZM711.45,101.61l7.83-.96-5.13-7.82-2.69,8.78Z"/><path d="M762.69,82.66c.02.14,0,.22-.05.22-.86.11-1.6.52-2.24,1.25-.64.73-1.12,1.73-1.44,3.01l-4.71,18.97c-.01.1-.14.16-.38.19s-.38,0-.41-.1l-5.82-9.29-2.54,10.32c-.01.1-.14.16-.38.19-.24.03-.38,0-.41-.1l-11.41-18.22c-.63-.99-1.14-1.62-1.52-1.9-.39-.28-.92-.38-1.61-.29-.07,0-.12-.06-.13-.2-.02-.14,0-.22.08-.23l.93-.08c.53-.02,1.13-.07,1.8-.15,1.33-.16,2.55-.34,3.64-.52.33-.06.75-.13,1.25-.19.07,0,.12.06.13.2.02.14,0,.22-.08.23-.64.08-1.09.2-1.35.37-.26.16-.37.42-.32.78.05.41.35,1.05.89,1.92l8.61,13.71,1.76-6.96-4.91-7.81c-.54-.83-1.02-1.42-1.43-1.78-.42-.36-.88-.51-1.38-.45-.07,0-.12-.06-.13-.2-.02-.14,0-.22.08-.23l.86-.07c.53-.02,1.06-.06,1.58-.12,1.12-.14,2.1-.28,2.96-.44.24-.05.54-.1.92-.15.07,0,.12.06.13.2.02.14,0,.22-.08.23-.38.05-.64.12-.79.22-.15.1-.2.26-.18.48.05.38.43,1.13,1.15,2.25l2.43,3.84.87-3.55c.29-1.17.4-2.04.33-2.62-.09-.71-.49-1.03-1.2-.94-.07,0-.12-.06-.13-.2-.02-.14,0-.22.08-.23.21-.03.47-.04.76-.04.29,0,.82-.04,1.58-.14.43-.05.93-.14,1.49-.26l1.39-.21s.08.06.1.21c.02.14,0,.22-.05.22-.81.1-1.49.49-2.03,1.16-.55.67-.99,1.69-1.33,3.06l-1.17,4.64,5.54,8.75,3.55-14.25c.16-.65.21-1.25.14-1.79-.08-.67-.34-1.16-.78-1.48-.44-.32-1.02-.44-1.73-.35-.07,0-.12-.06-.13-.2-.02-.14,0-.22.08-.23l1.58-.16c.86-.06,1.64-.13,2.33-.21.48-.06,1.02-.15,1.63-.27l1.53-.22s.08.06.1.21Z"/><path d="M792.5,101.23c.02.14-.03.22-.15.24-.45.06-1.18.12-2.19.2-1.01.08-1.74.14-2.19.2-.6.07-1.3.18-2.1.33-.8.15-1.43.25-1.89.3-.1.01-.15-.05-.17-.2-.02-.14.02-.22.12-.23.69-.08,1.19-.22,1.49-.42.3-.19.43-.47.39-.83s-.32-.94-.83-1.75l-3.39-5.17-8.65,1.06-1.24,4.07c-.22.75-.3,1.41-.23,1.99.1.83.48,1.43,1.13,1.79.65.36,1.51.47,2.58.34.12-.01.19.05.21.19.02.14-.03.22-.15.24-.43.05-1.05.11-1.87.16-.91.06-1.7.14-2.37.22-.64.08-1.39.19-2.24.35-.76.14-1.38.24-1.88.3-.12.01-.19-.05-.21-.19-.02-.14.03-.22.15-.24.67-.08,1.21-.28,1.63-.6.42-.32.8-.84,1.15-1.57.35-.73.73-1.8,1.17-3.21l5.56-18.24c.04-.08.14-.13.31-.15.17-.02.27,0,.3.07l10.92,16.58c1.04,1.61,1.88,2.7,2.52,3.26.64.56,1.28.8,1.92.73.12-.01.19.05.2.19ZM773.23,94.02l7.83-.96-5.13-7.82-2.69,8.78Z"/><path d="M819.19,97.95c.02.14-.01.22-.08.23l-5.75.71c-.55.07-1.68-.76-3.41-2.48-1.72-1.72-3.86-4.17-6.4-7.34-.52.11-.92.19-1.21.22-.52.06-1.15.12-1.87.16l.98,7.97c.09.74.22,1.27.39,1.58.17.32.45.51.83.59.38.07.98.06,1.79-.04.05,0,.08.06.1.21.02.14,0,.22-.04.22-.79.1-1.4.16-1.83.19l-2.65.29-2.57.35c-.45.08-1.07.17-1.85.26-.07,0-.12-.06-.13-.2-.02-.14,0-.22.08-.23.81-.1,1.39-.23,1.75-.4.35-.16.58-.43.68-.79.1-.36.11-.9.02-1.62l-2.03-16.54c-.09-.71-.22-1.23-.39-1.55-.17-.32-.46-.52-.85-.6-.4-.08-.99-.08-1.78.02-.05,0-.08-.06-.1-.21-.02-.14,0-.22.04-.22l1.86-.19c1.05-.08,1.9-.16,2.55-.24.79-.1,1.64-.24,2.56-.42.31-.06.68-.13,1.12-.21.44-.08.93-.15,1.48-.22,2.07-.25,3.72-.04,4.96.63,1.23.67,1.94,1.73,2.11,3.19.16,1.31-.06,2.53-.66,3.67-.6,1.14-1.47,2.09-2.6,2.86,2.31,2.64,4.22,4.69,5.72,6.15,1.51,1.46,2.81,2.49,3.92,3.09,1.1.6,2.14.84,3.12.72.07,0,.12.06.13.2ZM802.46,88.36c1.55-.19,2.61-.71,3.18-1.57.57-.86.75-2.14.54-3.86-.24-1.93-.73-3.23-1.48-3.92-.75-.68-1.74-.95-2.98-.79-.93.11-1.57.37-1.92.76-.35.39-.47,1.04-.36,1.95l.93,7.54c.58.03,1.28-.01,2.09-.11Z"/><path d="M829.37,96.96c-.36.02-.82.05-1.37.1-.55.04-1.17.11-1.86.19l-2.53.35c-.45.08-1.08.17-1.89.27-.05,0-.08-.06-.1-.21-.02-.14,0-.22.04-.22.81-.1,1.39-.23,1.75-.4.35-.16.58-.43.68-.79.1-.36.11-.9.02-1.62l-2.03-16.54c-.09-.71-.22-1.23-.39-1.55-.17-.32-.46-.52-.85-.6-.4-.08-.99-.08-1.78.02-.05,0-.08-.06-.1-.21-.02-.14,0-.22.04-.22l1.9-.2c1.05-.08,1.89-.16,2.51-.24.95-.12,1.91-.27,2.88-.46,1.18-.19,1.98-.32,2.38-.37,2.43-.3,4.64-.09,6.64.64,2,.72,3.62,1.84,4.85,3.36,1.24,1.52,1.98,3.3,2.23,5.35.28,2.31,0,4.42-.86,6.33-.85,1.91-2.13,3.45-3.82,4.64-1.69,1.19-3.62,1.91-5.79,2.18-.74.09-1.6.16-2.59.21ZM835.74,94.36c1.18-.94,2.03-2.23,2.56-3.85.53-1.62.66-3.51.39-5.65-.25-2.05-.82-3.86-1.7-5.43-.88-1.57-2-2.76-3.36-3.58-1.36-.81-2.86-1.12-4.5-.92-1,.12-1.77.28-2.3.46-.53.19-.91.46-1.12.81-.21.35-.28.86-.19,1.53l1.97,16.08c.12.98.46,1.64,1.01,2,.55.36,1.55.44,3.01.26,1.64-.2,3.05-.77,4.23-1.72Z"/><path d="M851.91,77.7c.52.62,1.14,1.15,1.86,1.57s1.68.91,2.88,1.46c1.31.61,2.35,1.15,3.12,1.61.77.46,1.45,1.06,2.03,1.8.59.74.95,1.64,1.08,2.72.15,1.21-.03,2.34-.55,3.37-.51,1.03-1.32,1.88-2.41,2.56-1.09.68-2.37,1.11-3.85,1.29-1,.12-2.05.12-3.14-.01-1.09-.13-1.94-.35-2.53-.67-.23-.12-.38-.33-.44-.64l-.88-5.4v-.04c-.02-.09.04-.16.16-.18.12-.03.19,0,.23.1,1.03,1.88,2.13,3.39,3.29,4.53,1.17,1.14,2.54,1.61,4.11,1.42,1.02-.13,1.85-.51,2.47-1.15.62-.64.85-1.62.69-2.93-.13-1.05-.47-1.93-1.03-2.66s-1.21-1.31-1.96-1.75-1.75-.97-3.01-1.59c-1.23-.6-2.2-1.11-2.91-1.55-.71-.43-1.33-1-1.88-1.69-.54-.7-.88-1.54-1-2.54-.15-1.24.06-2.33.65-3.27.59-.94,1.41-1.69,2.46-2.24s2.19-.91,3.41-1.05c.81-.1,1.63-.12,2.46-.06.83.05,1.53.17,2.11.34.38.1.58.3.62.61l.7,4.85c0,.07-.05.13-.18.17-.13.04-.21.03-.24-.04-.66-1.39-1.45-2.63-2.4-3.71-.94-1.08-2.21-1.52-3.81-1.33-1.07.13-1.89.54-2.44,1.24-.56.7-.77,1.58-.64,2.65.11.88.42,1.63.95,2.26Z"/><path class="cls-1" d="M870.5,81.13l14.06-3.77c.79-.21,1.59.26,1.8,1.04.21.78-.25,1.59-1.04,1.8-.09.03-.2.04-.29.05l-14.53.88Z"/><path class="cls-1" d="M893.05,77.46c-3.65,2.07-8.07,5.32-10.63,8.41l1.29-6.89-3.41-6.12c3.41,2.12,8.63,3.79,12.75,4.6Z"/><path class="cls-1" d="M905.66,75.93l14.06-3.77c.79-.21,1.59.26,1.8,1.04.21.78-.25,1.59-1.04,1.8-.09.03-.2.04-.29.05l-14.53.88Z"/><path class="cls-1" d="M928.21,72.26c-3.65,2.07-8.07,5.32-10.63,8.41l1.29-6.89-3.41-6.12c3.41,2.12,8.63,3.79,12.75,4.6Z"/><path class="cls-1" d="M945.37,70.11l14.06-3.77c.79-.21,1.59.26,1.8,1.04.21.78-.25,1.59-1.04,1.8-.09.03-.2.04-.29.05l-14.53.88Z"/><path class="cls-1" d="M967.92,66.44c-3.65,2.07-8.07,5.32-10.63,8.41l1.29-6.89-3.41-6.12c3.41,2.12,8.63,3.79,12.75,4.6Z"/></g></svg>